<?xml version="1.0" encoding="UTF-8"?>
<!DOCTYPE svg PUBLIC "-//W3C//DTD SVG 1.1//EN" "http://www.w3.org/Graphics/SVG/1.1/DTD/svg11.dtd">
<svg xmlns="http://www.w3.org/2000/svg" version="1.1" width="626px" height="584px" style="shape-rendering:geometricPrecision; text-rendering:geometricPrecision; image-rendering:optimizeQuality; fill-rule:evenodd; clip-rule:evenodd" xmlns:xlink="http://www.w3.org/1999/xlink">
<g><path style="opacity:1" fill="#65e2f0" d="M -0.5,-0.5 C 208.167,-0.5 416.833,-0.5 625.5,-0.5C 625.5,177.167 625.5,354.833 625.5,532.5C 556.833,532.5 488.167,532.5 419.5,532.5C 417.901,532.768 416.568,532.434 415.5,531.5C 424.821,528.01 430.321,521.343 432,511.5C 432.499,506.511 432.666,501.511 432.5,496.5C 433.479,493.375 433.813,490.042 433.5,486.5C 461.841,486.833 490.175,486.5 518.5,485.5C 526.846,464.145 535.18,442.812 543.5,421.5C 543.5,421.167 543.5,420.833 543.5,420.5C 547.331,414.015 549.998,407.015 551.5,399.5C 539.167,399.5 526.833,399.5 514.5,399.5C 514.5,399.167 514.5,398.833 514.5,398.5C 515.828,389.765 515.828,380.932 514.5,372C 490.996,371.17 467.663,371.337 444.5,372.5C 443.507,381.318 443.173,390.318 443.5,399.5C 440.167,399.5 436.833,399.5 433.5,399.5C 433.5,324.5 433.5,249.5 433.5,174.5C 472.501,174.667 511.501,174.5 550.5,174C 555.333,171.833 558.833,168.333 561,163.5C 561.667,128.167 561.667,92.8333 561,57.5C 559.167,53 556,49.8333 551.5,48C 486.5,47.3333 421.5,47.3333 356.5,48C 352.031,49.7669 349.031,52.9335 347.5,57.5C 346.505,63.1278 346.171,68.7945 346.5,74.5C 293.499,74.3333 240.499,74.5 187.5,75C 176.847,78.4857 170.18,85.6524 167.5,96.5C 167.5,96.8333 167.5,97.1667 167.5,97.5C 166.833,158.001 166.167,218.668 165.5,279.5C 164.808,278.975 164.308,278.308 164,277.5C 163.996,282.311 164.496,286.977 165.5,291.5C 166.156,332.627 166.822,373.627 167.5,414.5C 151.679,454.13 135.346,493.463 118.5,532.5C 78.8333,532.5 39.1667,532.5 -0.5,532.5C -0.5,354.833 -0.5,177.167 -0.5,-0.5 Z"/></g>
<g><path style="opacity:1" fill="#034655" d="M 433.5,174.5 C 432.5,174.5 431.5,174.5 430.5,174.5C 416.833,174.5 403.167,174.5 389.5,174.5C 389.062,173.494 388.396,173.494 387.5,174.5C 377.008,173.67 366.341,173.17 355.5,173C 352.333,171.167 349.833,168.667 348,165.5C 347.831,150.661 347.331,135.994 346.5,121.5C 346.5,113.167 346.5,104.833 346.5,96.5C 346.5,89.1667 346.5,81.8333 346.5,74.5C 346.171,68.7945 346.505,63.1278 347.5,57.5C 349.031,52.9335 352.031,49.7669 356.5,48C 421.5,47.3333 486.5,47.3333 551.5,48C 556,49.8333 559.167,53 561,57.5C 561.667,92.8333 561.667,128.167 561,163.5C 558.833,168.333 555.333,171.833 550.5,174C 511.501,174.5 472.501,174.667 433.5,174.5 Z"/></g>
<g><path style="opacity:1" fill="#017282" d="M 486.5,57.5 C 506.167,57.5 525.833,57.5 545.5,57.5C 545.5,63.1667 545.5,68.8333 545.5,74.5C 525.833,74.5 506.167,74.5 486.5,74.5C 486.5,68.8333 486.5,63.1667 486.5,57.5 Z"/></g>
<g><path style="opacity:1" fill="#067281" d="M 346.5,74.5 C 346.5,81.8333 346.5,89.1667 346.5,96.5C 286.833,96.5 227.167,96.5 167.5,96.5C 170.18,85.6524 176.847,78.4857 187.5,75C 240.499,74.5 293.499,74.3333 346.5,74.5 Z"/></g>
<g><path style="opacity:1" fill="#56ccda" d="M 272.5,85.5 C 291.512,85.1671 310.512,85.5004 329.5,86.5C 320,86.8333 310.5,87.1667 301,87.5C 291.142,87.4985 281.642,86.8318 272.5,85.5 Z"/></g>
<g><path style="opacity:1" fill="#ad925b" d="M 409.5,88.5 C 406.5,88.5 403.5,88.5 400.5,88.5C 400.167,88.5 399.833,88.5 399.5,88.5C 398.5,88.5 397.5,88.5 396.5,88.5C 396.167,88.5 395.833,88.5 395.5,88.5C 391.466,88.5045 387.466,88.8379 383.5,89.5C 383.918,88.7784 384.584,88.2784 385.5,88C 393.677,87.1772 401.677,87.3439 409.5,88.5 Z"/></g>
<g><path style="opacity:1" fill="#fbb850" d="M 400.5,88.5 C 403.5,88.5 406.5,88.5 409.5,88.5C 412.833,89.1667 414.833,91.1667 415.5,94.5C 415.5,95.5 415.5,96.5 415.5,97.5C 411.154,97.6657 406.821,97.499 402.5,97C 401.518,94.2617 400.852,91.4284 400.5,88.5 Z"/></g>
<g><path style="opacity:1" fill="#fdb84e" d="M 395.5,88.5 C 394.841,91.4552 394.508,94.4552 394.5,97.5C 389.833,97.5 385.167,97.5 380.5,97.5C 380.5,96.1667 380.5,94.8333 380.5,93.5C 381.5,92.1667 382.5,90.8333 383.5,89.5C 387.466,88.8379 391.466,88.5045 395.5,88.5 Z"/></g>
<g><path style="opacity:1" fill="#feb64d" d="M 396.5,88.5 C 397.5,88.5 398.5,88.5 399.5,88.5C 400.833,97.1667 400.833,105.833 399.5,114.5C 398.5,114.5 397.5,114.5 396.5,114.5C 395.167,105.833 395.167,97.1667 396.5,88.5 Z"/></g>
<g><path style="opacity:1" fill="#95e6f0" d="M 167.5,97.5 C 167.5,156.833 167.5,216.167 167.5,275.5C 166.236,280.722 165.569,286.055 165.5,291.5C 164.496,286.977 163.996,282.311 164,277.5C 164.308,278.308 164.808,278.975 165.5,279.5C 166.167,218.668 166.833,158.001 167.5,97.5 Z"/></g>
<g><path style="opacity:1" fill="#fdfefd" d="M 167.5,96.5 C 227.167,96.5 286.833,96.5 346.5,96.5C 346.5,104.833 346.5,113.167 346.5,121.5C 338.493,121.334 330.493,121.5 322.5,122C 320.85,125.139 319.517,128.306 318.5,131.5C 317.502,155.994 317.169,180.661 317.5,205.5C 340.5,205.5 363.5,205.5 386.5,205.5C 386.5,204.5 386.5,203.5 386.5,202.5C 387.423,200.233 388.256,197.9 389,195.5C 389.5,188.508 389.666,181.508 389.5,174.5C 403.167,174.5 416.833,174.5 430.5,174.5C 431.497,249.096 431.83,323.762 431.5,398.5C 417.99,398.171 404.656,398.504 391.5,399.5C 391.167,399.5 390.833,399.5 390.5,399.5C 390.768,397.901 390.434,396.568 389.5,395.5C 381.5,395.5 373.5,395.5 365.5,395.5C 365.5,396.5 365.5,397.5 365.5,398.5C 363.608,395.724 361.941,392.724 360.5,389.5C 370.483,388.668 380.483,388.168 390.5,388C 380.151,387.832 369.817,387.332 359.5,386.5C 359.709,385.914 360.043,385.414 360.5,385C 370.5,384.667 380.5,384.333 390.5,384C 351.833,383 351.833,382 390.5,381C 380.5,380.667 370.5,380.333 360.5,380C 357.954,378.188 355.288,378.022 352.5,379.5C 341.147,379.168 329.814,379.501 318.5,380.5C 318.624,381.107 318.957,381.44 319.5,381.5C 362.167,382.167 362.167,382.833 319.5,383.5C 318.957,383.56 318.624,383.893 318.5,384.5C 329.814,385.499 341.147,385.832 352.5,385.5C 353.043,385.56 353.376,385.893 353.5,386.5C 342.181,387.332 330.848,387.832 319.5,388C 332.167,388.333 344.833,388.667 357.5,389C 362.801,398.768 367.135,408.934 370.5,419.5C 370.5,420.167 370.833,420.5 371.5,420.5C 371.5,421.167 371.5,421.833 371.5,422.5C 355.521,424.159 339.187,425.159 322.5,425.5C 321.154,428.855 319.82,432.188 318.5,435.5C 317.503,455.66 317.17,475.993 317.5,496.5C 303.656,496.829 289.99,496.496 276.5,495.5C 277.498,472.006 277.831,448.339 277.5,424.5C 254.994,424.169 232.66,424.503 210.5,425.5C 208.972,428.749 207.639,432.082 206.5,435.5C 205.503,455.66 205.17,475.993 205.5,496.5C 199.402,497.117 193.735,496.45 188.5,494.5C 195.674,463.47 203.007,432.47 210.5,401.5C 212.412,397.764 213.745,393.764 214.5,389.5C 235.833,389.5 257.167,389.5 278.5,389.5C 278.5,388.5 278.5,387.5 278.5,386.5C 257.5,386.5 236.5,386.5 215.5,386.5C 215.5,385.833 215.833,385.5 216.5,385.5C 299.167,384.833 299.167,384.167 216.5,383.5C 216.328,382.508 216.662,381.842 217.5,381.5C 298.833,380.833 298.833,380.167 217.5,379.5C 219.625,372.216 221.625,364.882 223.5,357.5C 240.18,357.833 256.847,357.499 273.5,356.5C 274.456,354.925 275.123,353.258 275.5,351.5C 275.5,350.833 275.5,350.167 275.5,349.5C 276.498,324.339 276.831,299.005 276.5,273.5C 273.5,273.5 270.5,273.5 267.5,273.5C 266.799,266.198 266.132,258.865 265.5,251.5C 268.054,252.388 270.721,252.721 273.5,252.5C 273.5,249.5 273.5,246.5 273.5,243.5C 270.167,243.5 266.833,243.5 263.5,243.5C 263.5,245.167 263.5,246.833 263.5,248.5C 261.933,245.083 261.433,241.417 262,237.5C 265.745,236.703 269.579,236.203 273.5,236C 269.459,235.827 265.459,235.327 261.5,234.5C 261.624,233.893 261.957,233.56 262.5,233.5C 277.167,232.833 277.167,232.167 262.5,231.5C 265.701,229.74 269.367,228.906 273.5,229C 269.579,228.797 265.745,228.297 262,227.5C 261.783,222.695 260.949,218.028 259.5,213.5C 261.247,199.982 262.914,186.315 264.5,172.5C 265.341,170.621 265.675,168.621 265.5,166.5C 243.084,164.565 220.751,161.898 198.5,158.5C 194.651,161.154 191.985,164.82 190.5,169.5C 189.682,175.74 188.682,182.073 187.5,188.5C 185.81,196.648 184.477,204.981 183.5,213.5C 181.572,219.452 179.739,225.452 178,231.5C 178.018,236.235 177.852,240.902 177.5,245.5C 173.967,255.431 170.634,265.431 167.5,275.5C 167.5,216.167 167.5,156.833 167.5,97.5C 167.5,97.1667 167.5,96.8333 167.5,96.5 Z"/></g>
<g><path style="opacity:1" fill="#d28820" d="M 395.5,88.5 C 395.833,88.5 396.167,88.5 396.5,88.5C 395.167,97.1667 395.167,105.833 396.5,114.5C 396.167,114.5 395.833,114.5 395.5,114.5C 395.148,111.572 394.482,108.738 393.5,106C 389.179,105.501 384.846,105.334 380.5,105.5C 380.5,105.167 380.5,104.833 380.5,104.5C 384.833,104.5 389.167,104.5 393.5,104.5C 393.5,102.5 393.5,100.5 393.5,98.5C 389.167,98.5 384.833,98.5 380.5,98.5C 380.5,98.1667 380.5,97.8333 380.5,97.5C 385.167,97.5 389.833,97.5 394.5,97.5C 394.508,94.4552 394.841,91.4552 395.5,88.5 Z"/></g>
<g><path style="opacity:1" fill="#c68b37" d="M 399.5,88.5 C 399.833,88.5 400.167,88.5 400.5,88.5C 400.852,91.4284 401.518,94.2617 402.5,97C 406.821,97.499 411.154,97.6657 415.5,97.5C 415.5,96.5 415.5,95.5 415.5,94.5C 416.833,98.8333 416.833,103.167 415.5,107.5C 413.777,106.2 411.61,105.533 409,105.5C 406.833,105.667 404.667,105.833 402.5,106C 401.518,108.738 400.852,111.572 400.5,114.5C 403.5,114.5 406.5,114.5 409.5,114.5C 401.5,115.833 393.5,115.833 385.5,114.5C 388.833,114.5 392.167,114.5 395.5,114.5C 395.833,114.5 396.167,114.5 396.5,114.5C 397.5,114.5 398.5,114.5 399.5,114.5C 400.833,105.833 400.833,97.1667 399.5,88.5 Z"/></g>
<g><path style="opacity:1" fill="#fdb74e" d="M 380.5,98.5 C 384.833,98.5 389.167,98.5 393.5,98.5C 393.5,100.5 393.5,102.5 393.5,104.5C 389.167,104.5 384.833,104.5 380.5,104.5C 380.5,102.5 380.5,100.5 380.5,98.5 Z"/></g>
<g><path style="opacity:1" fill="#fdb64c" d="M 402.5,98.5 C 406.833,98.5 411.167,98.5 415.5,98.5C 415.5,100.5 415.5,102.5 415.5,104.5C 411.167,104.5 406.833,104.5 402.5,104.5C 402.5,102.5 402.5,100.5 402.5,98.5 Z"/></g>
<g><path style="opacity:1" fill="#99814d" d="M 380.5,93.5 C 380.5,94.8333 380.5,96.1667 380.5,97.5C 380.5,97.8333 380.5,98.1667 380.5,98.5C 380.5,100.5 380.5,102.5 380.5,104.5C 380.5,104.833 380.5,105.167 380.5,105.5C 381.038,107.117 381.371,108.784 381.5,110.5C 380.883,110.389 380.383,110.056 380,109.5C 379.183,103.984 379.349,98.6503 380.5,93.5 Z"/></g>
<g><path style="opacity:1" fill="#fbb74f" d="M 415.5,107.5 C 415.129,111.25 413.129,113.583 409.5,114.5C 406.5,114.5 403.5,114.5 400.5,114.5C 400.852,111.572 401.518,108.738 402.5,106C 404.667,105.833 406.833,105.667 409,105.5C 411.61,105.533 413.777,106.2 415.5,107.5 Z"/></g>
<g><path style="opacity:1" fill="#fcb84f" d="M 380.5,105.5 C 384.846,105.334 389.179,105.501 393.5,106C 394.482,108.738 395.148,111.572 395.5,114.5C 392.167,114.5 388.833,114.5 385.5,114.5C 383.659,113.598 382.326,112.264 381.5,110.5C 381.371,108.784 381.038,107.117 380.5,105.5 Z"/></g>
<g><path style="opacity:1" fill="#fd9e39" d="M 346.5,121.5 C 346.5,125.5 346.5,129.5 346.5,133.5C 337.167,133.5 327.833,133.5 318.5,133.5C 318.5,132.833 318.5,132.167 318.5,131.5C 319.517,128.306 320.85,125.139 322.5,122C 330.493,121.5 338.493,121.334 346.5,121.5 Z"/></g>
<g><path style="opacity:1" fill="#fbb64e" d="M 346.5,121.5 C 347.331,135.994 347.831,150.661 348,165.5C 349.833,168.667 352.333,171.167 355.5,173C 366.341,173.17 377.008,173.67 387.5,174.5C 385.528,183.44 384.861,192.773 385.5,202.5C 363.525,204.489 341.192,205.156 318.5,204.5C 318.5,180.833 318.5,157.167 318.5,133.5C 327.833,133.5 337.167,133.5 346.5,133.5C 346.5,129.5 346.5,125.5 346.5,121.5 Z"/></g>
<g><path style="opacity:1" fill="#0fb3c2" d="M 264.5,172.5 C 262.805,174.535 261.472,176.868 260.5,179.5C 237.508,176.62 214.508,173.787 191.5,171C 190.944,170.617 190.611,170.117 190.5,169.5C 191.985,164.82 194.651,161.154 198.5,158.5C 220.751,161.898 243.084,164.565 265.5,166.5C 265.675,168.621 265.341,170.621 264.5,172.5 Z"/></g>
<g><path style="opacity:1" fill="#66e2f0" d="M 190.5,169.5 C 190.611,170.117 190.944,170.617 191.5,171C 214.508,173.787 237.508,176.62 260.5,179.5C 259.208,189.462 258.208,199.462 257.5,209.5C 257.167,209.5 256.833,209.5 256.5,209.5C 256.179,207.952 255.179,207.285 253.5,207.5C 253.863,213.294 253.196,218.961 251.5,224.5C 251.52,225.726 251.853,226.726 252.5,227.5C 252.56,230.341 253.226,233.007 254.5,235.5C 252.912,240.24 251.912,245.24 251.5,250.5C 251.543,251.416 251.876,252.083 252.5,252.5C 241.789,254.205 231.123,253.371 220.5,250C 207.424,248.917 194.424,247.417 181.5,245.5C 183.059,239.155 184.726,232.822 186.5,226.5C 185.625,222.213 185.292,217.879 185.5,213.5C 186.328,205.184 186.995,196.85 187.5,188.5C 188.682,182.073 189.682,175.74 190.5,169.5 Z"/></g>
<g><path style="opacity:1" fill="#fa9e34" d="M 389.5,174.5 C 389.666,181.508 389.5,188.508 389,195.5C 388.256,197.9 387.423,200.233 386.5,202.5C 386.167,202.5 385.833,202.5 385.5,202.5C 384.861,192.773 385.528,183.44 387.5,174.5C 388.396,173.494 389.062,173.494 389.5,174.5 Z"/></g>
<g><path style="opacity:1" fill="#1e7281" d="M 264.5,172.5 C 262.914,186.315 261.247,199.982 259.5,213.5C 258.833,212.167 258.167,210.833 257.5,209.5C 258.208,199.462 259.208,189.462 260.5,179.5C 261.472,176.868 262.805,174.535 264.5,172.5 Z"/></g>
<g><path style="opacity:1" fill="#fcc882" d="M 318.5,131.5 C 318.5,132.167 318.5,132.833 318.5,133.5C 318.5,157.167 318.5,180.833 318.5,204.5C 341.192,205.156 363.525,204.489 385.5,202.5C 385.833,202.5 386.167,202.5 386.5,202.5C 386.5,203.5 386.5,204.5 386.5,205.5C 363.5,205.5 340.5,205.5 317.5,205.5C 317.169,180.661 317.502,155.994 318.5,131.5 Z"/></g>
<g><path style="opacity:1" fill="#afe9ee" d="M 187.5,188.5 C 186.995,196.85 186.328,205.184 185.5,213.5C 184.833,213.5 184.167,213.5 183.5,213.5C 184.477,204.981 185.81,196.648 187.5,188.5 Z"/></g>
<g><path style="opacity:1" fill="#c3d5b5" d="M 256.5,209.5 C 255.883,209.389 255.383,209.056 255,208.5C 254.92,215.038 254.087,221.371 252.5,227.5C 251.853,226.726 251.52,225.726 251.5,224.5C 253.196,218.961 253.863,213.294 253.5,207.5C 255.179,207.285 256.179,207.952 256.5,209.5 Z"/></g>
<g><path style="opacity:1" fill="#e9bd87" d="M 256.5,209.5 C 256.833,209.5 257.167,209.5 257.5,209.5C 258.167,210.833 258.833,212.167 259.5,213.5C 260.949,218.028 261.783,222.695 262,227.5C 265.745,228.297 269.579,228.797 273.5,229C 269.367,228.906 265.701,229.74 262.5,231.5C 262.5,232.167 262.5,232.833 262.5,233.5C 261.957,233.56 261.624,233.893 261.5,234.5C 265.459,235.327 269.459,235.827 273.5,236C 269.579,236.203 265.745,236.703 262,237.5C 261.433,241.417 261.933,245.083 263.5,248.5C 263.833,249.167 264.167,249.833 264.5,250.5C 262.833,250.5 261.167,250.5 259.5,250.5C 259.512,246.235 258.179,242.569 255.5,239.5C 255.567,238.041 255.234,236.708 254.5,235.5C 253.226,233.007 252.56,230.341 252.5,227.5C 254.087,221.371 254.92,215.038 255,208.5C 255.383,209.056 255.883,209.389 256.5,209.5 Z"/></g>
<g><path style="opacity:1" fill="#f9cc94" d="M 183.5,213.5 C 184.167,213.5 184.833,213.5 185.5,213.5C 185.292,217.879 185.625,222.213 186.5,226.5C 184.726,232.822 183.059,239.155 181.5,245.5C 180.167,245.5 178.833,245.5 177.5,245.5C 177.852,240.902 178.018,236.235 178,231.5C 179.739,225.452 181.572,219.452 183.5,213.5 Z"/></g>
<g><path style="opacity:1" fill="#919ca0" d="M 318.5,227.5 C 342.509,227.167 366.509,227.5 390.5,228.5C 378.5,228.833 366.5,229.167 354.5,229.5C 342.148,229.499 330.148,228.832 318.5,227.5 Z"/></g>
<g><path style="opacity:1" fill="#848588" d="M 262.5,231.5 C 277.167,232.167 277.167,232.833 262.5,233.5C 262.5,232.833 262.5,232.167 262.5,231.5 Z"/></g>
<g><path style="opacity:1" fill="#86868a" d="M 318.5,231.5 C 342.509,231.167 366.509,231.5 390.5,232.5C 378.5,232.833 366.5,233.167 354.5,233.5C 342.148,233.499 330.148,232.832 318.5,231.5 Z"/></g>
<g><path style="opacity:1" fill="#99a1a3" d="M 318.5,235.5 C 342.509,235.167 366.509,235.5 390.5,236.5C 378.5,236.833 366.5,237.167 354.5,237.5C 342.148,237.499 330.148,236.832 318.5,235.5 Z"/></g>
<g><path style="opacity:1" fill="#0f7584" d="M 254.5,235.5 C 255.234,236.708 255.567,238.041 255.5,239.5C 255.526,244.085 254.526,248.419 252.5,252.5C 251.876,252.083 251.543,251.416 251.5,250.5C 251.912,245.24 252.912,240.24 254.5,235.5 Z"/></g>
<g><path style="opacity:1" fill="#fff0cd" d="M 365.5,243.5 C 373.99,242.343 382.657,242.176 391.5,243C 392.943,246.961 392.61,250.795 390.5,254.5C 382.038,253.861 373.704,253.194 365.5,252.5C 366.167,252.5 366.833,252.5 367.5,252.5C 375.167,252.5 382.833,252.5 390.5,252.5C 390.81,249.287 390.477,246.287 389.5,243.5C 381.5,243.5 373.5,243.5 365.5,243.5 Z"/></g>
<g><path style="opacity:1" fill="#fdb60e" d="M 365.5,243.5 C 373.5,243.5 381.5,243.5 389.5,243.5C 389.5,246.167 389.5,248.833 389.5,251.5C 381.981,251.175 374.648,251.508 367.5,252.5C 366.833,252.5 366.167,252.5 365.5,252.5C 365.5,249.5 365.5,246.5 365.5,243.5 Z"/></g>
<g><path style="opacity:1" fill="#fcfcfb" d="M 181.5,245.5 C 194.424,247.417 207.424,248.917 220.5,250C 231.123,253.371 241.789,254.205 252.5,252.5C 254.167,252.5 255.833,252.5 257.5,252.5C 257.5,259.5 257.5,266.5 257.5,273.5C 247.5,273.5 237.5,273.5 227.5,273.5C 227.426,271.589 226.426,270.422 224.5,270C 214.765,268.344 206.431,270.844 199.5,277.5C 198.596,278.209 198.263,279.209 198.5,280.5C 197.167,280.5 195.833,280.5 194.5,280.5C 194.194,283.385 194.527,286.052 195.5,288.5C 196.32,290.812 197.153,293.146 198,295.5C 200.772,299.388 203.272,303.388 205.5,307.5C 205.5,312.167 205.5,316.833 205.5,321.5C 196.445,310.417 187.612,299.083 179,287.5C 179.973,273.536 180.807,259.536 181.5,245.5 Z"/></g>
<g><path style="opacity:1" fill="#78d8e0" d="M 255.5,239.5 C 258.179,242.569 259.512,246.235 259.5,250.5C 258.5,250.833 257.833,251.5 257.5,252.5C 255.833,252.5 254.167,252.5 252.5,252.5C 254.526,248.419 255.526,244.085 255.5,239.5 Z"/></g>
<g><path style="opacity:1" fill="#65e1ee" d="M 265.5,251.5 C 265.5,250.833 265.167,250.5 264.5,250.5C 264.167,249.833 263.833,249.167 263.5,248.5C 263.5,246.833 263.5,245.167 263.5,243.5C 266.833,243.5 270.167,243.5 273.5,243.5C 273.5,246.5 273.5,249.5 273.5,252.5C 270.721,252.721 268.054,252.388 265.5,251.5 Z"/></g>
<g><path style="opacity:1" fill="#fa7371" d="M 177.5,245.5 C 178.833,245.5 180.167,245.5 181.5,245.5C 180.807,259.536 179.973,273.536 179,287.5C 187.612,299.083 196.445,310.417 205.5,321.5C 205.33,322.822 205.663,323.989 206.5,325C 209.53,325.288 212.364,325.455 215,325.5C 216.302,324.915 217.469,324.249 218.5,323.5C 229.983,317.681 241.317,311.681 252.5,305.5C 255.099,305.451 257.266,304.451 259,302.5C 259.747,292.624 259.247,282.958 257.5,273.5C 257.5,266.5 257.5,259.5 257.5,252.5C 257.833,251.5 258.5,250.833 259.5,250.5C 261.167,250.5 262.833,250.5 264.5,250.5C 265.167,250.5 265.5,250.833 265.5,251.5C 266.132,258.865 266.799,266.198 267.5,273.5C 268.295,277.476 268.962,281.476 269.5,285.5C 269.221,292.924 269.887,300.257 271.5,307.5C 271.167,308.167 270.833,308.833 270.5,309.5C 257.469,318.363 244.302,327.03 231,335.5C 228.681,342.98 226.181,350.314 223.5,357.5C 221.625,364.882 219.625,372.216 217.5,379.5C 217.5,380.167 217.5,380.833 217.5,381.5C 216.662,381.842 216.328,382.508 216.5,383.5C 216.5,384.167 216.5,384.833 216.5,385.5C 215.833,385.5 215.5,385.833 215.5,386.5C 235.996,387.332 256.663,387.832 277.5,388C 256.329,388.168 235.329,388.668 214.5,389.5C 213.745,393.764 212.412,397.764 210.5,401.5C 205.167,401.5 199.833,401.5 194.5,401.5C 187.183,402.118 179.849,402.451 172.5,402.5C 176.099,376.669 179.766,350.836 183.5,325C 183.333,323.167 183.167,321.333 183,319.5C 177.556,310.935 172.389,302.269 167.5,293.5C 167.167,292.5 166.5,291.833 165.5,291.5C 165.569,286.055 166.236,280.722 167.5,275.5C 170.634,265.431 173.967,255.431 177.5,245.5 Z"/></g>
<g><path style="opacity:1" fill="#f9b44a" d="M 389.5,243.5 C 390.477,246.287 390.81,249.287 390.5,252.5C 382.833,252.5 375.167,252.5 367.5,252.5C 374.648,251.508 381.981,251.175 389.5,251.5C 389.5,248.833 389.5,246.167 389.5,243.5 Z"/></g>
<g><path style="opacity:1" fill="#0b4453" d="M 227.5,273.5 C 226.752,275.332 225.752,276.999 224.5,278.5C 221.898,290.004 219.565,301.671 217.5,313.5C 215.379,313.325 213.379,313.659 211.5,314.5C 210.2,311.568 208.2,309.234 205.5,307.5C 203.272,303.388 200.772,299.388 198,295.5C 197.153,293.146 196.32,290.812 195.5,288.5C 195.5,286.167 195.5,283.833 195.5,281.5C 196.833,281.5 198.167,281.5 199.5,281.5C 199.5,280.167 199.5,278.833 199.5,277.5C 206.431,270.844 214.765,268.344 224.5,270C 226.426,270.422 227.426,271.589 227.5,273.5 Z"/></g>
<g><path style="opacity:1" fill="#df8f8f" d="M 388.5,348.5 C 388.5,323.5 388.5,298.5 388.5,273.5C 366.425,273.178 344.425,273.511 322.5,274.5C 344.475,272.511 366.808,271.844 389.5,272.5C 389.831,298.005 389.498,323.339 388.5,348.5 Z"/></g>
<g><path style="opacity:1" fill="#d8f4f7" d="M 430.5,174.5 C 431.5,174.5 432.5,174.5 433.5,174.5C 433.5,249.5 433.5,324.5 433.5,399.5C 419.5,399.5 405.5,399.5 391.5,399.5C 404.656,398.504 417.99,398.171 431.5,398.5C 431.83,323.762 431.497,249.096 430.5,174.5 Z"/></g>
<g><path style="opacity:1" fill="#fd9e38" d="M 227.5,273.5 C 237.5,273.5 247.5,273.5 257.5,273.5C 257.5,277.5 257.5,281.5 257.5,285.5C 246.001,284.668 235.001,284.668 224.5,285.5C 224.5,283.167 224.5,280.833 224.5,278.5C 225.752,276.999 226.752,275.332 227.5,273.5 Z"/></g>
<g><path style="opacity:1" fill="#d94444" d="M 388.5,348.5 C 387.637,350.421 386.971,352.421 386.5,354.5C 385.557,331.805 385.224,308.805 385.5,285.5C 363.014,285.417 340.68,285.417 318.5,285.5C 318.5,285.167 318.5,284.833 318.5,284.5C 319.393,280.958 320.726,277.624 322.5,274.5C 344.425,273.511 366.425,273.178 388.5,273.5C 388.5,298.5 388.5,323.5 388.5,348.5 Z"/></g>
<g><path style="opacity:1" fill="#f39338" d="M 267.5,273.5 C 270.5,273.5 273.5,273.5 276.5,273.5C 276.831,299.005 276.498,324.339 275.5,349.5C 275.667,327.164 275.5,304.831 275,282.5C 274.667,281.833 274.333,281.167 274,280.5C 273.506,282.134 273.34,283.801 273.5,285.5C 272.167,285.5 270.833,285.5 269.5,285.5C 268.962,281.476 268.295,277.476 267.5,273.5 Z"/></g>
<g><path style="opacity:1" fill="#6d878e" d="M 199.5,277.5 C 199.5,278.833 199.5,280.167 199.5,281.5C 198.167,281.5 196.833,281.5 195.5,281.5C 195.5,283.833 195.5,286.167 195.5,288.5C 194.527,286.052 194.194,283.385 194.5,280.5C 195.833,280.5 197.167,280.5 198.5,280.5C 198.263,279.209 198.596,278.209 199.5,277.5 Z"/></g>
<g><path style="opacity:1" fill="#fe9313" d="M 275.5,349.5 C 275.5,350.167 275.5,350.833 275.5,351.5C 273.511,329.859 272.844,307.859 273.5,285.5C 273.34,283.801 273.506,282.134 274,280.5C 274.333,281.167 274.667,281.833 275,282.5C 275.5,304.831 275.667,327.164 275.5,349.5 Z"/></g>
<g><path style="opacity:1" fill="#fa8b61" d="M 257.5,273.5 C 259.247,282.958 259.747,292.624 259,302.5C 257.266,304.451 255.099,305.451 252.5,305.5C 253.622,304.053 255.122,303.053 257,302.5C 257.499,296.843 257.666,291.176 257.5,285.5C 257.5,281.5 257.5,277.5 257.5,273.5 Z"/></g>
<g><path style="opacity:1" fill="#feb74e" d="M 257.5,285.5 C 257.666,291.176 257.499,296.843 257,302.5C 255.122,303.053 253.622,304.053 252.5,305.5C 241.317,311.681 229.983,317.681 218.5,323.5C 219.324,320.236 219.658,316.902 219.5,313.5C 222.199,313.534 224.699,312.867 227,311.5C 226.719,302.805 225.886,294.138 224.5,285.5C 235.001,284.668 246.001,284.668 257.5,285.5 Z"/></g>
<g><path style="opacity:1" fill="#ee5959" d="M 386.5,354.5 C 386.672,355.492 386.338,356.158 385.5,356.5C 363.167,356.5 340.833,356.5 318.5,356.5C 318.5,332.833 318.5,309.167 318.5,285.5C 340.68,285.417 363.014,285.417 385.5,285.5C 385.224,308.805 385.557,331.805 386.5,354.5 Z"/></g>
<g><path style="opacity:1" fill="#96e7f1" d="M 165.5,291.5 C 166.5,291.833 167.167,292.5 167.5,293.5C 167.168,333.67 167.501,373.67 168.5,413.5C 168.5,414.167 168.167,414.5 167.5,414.5C 166.822,373.627 166.156,332.627 165.5,291.5 Z"/></g>
<g><path style="opacity:1" fill="#fdfbfb" d="M 167.5,293.5 C 172.389,302.269 177.556,310.935 183,319.5C 183.167,321.333 183.333,323.167 183.5,325C 179.766,350.836 176.099,376.669 172.5,402.5C 172.5,402.833 172.5,403.167 172.5,403.5C 170.616,406.603 169.282,409.937 168.5,413.5C 167.501,373.67 167.168,333.67 167.5,293.5 Z"/></g>
<g><path style="opacity:1" fill="#f6c588" d="M 224.5,278.5 C 224.5,280.833 224.5,283.167 224.5,285.5C 225.886,294.138 226.719,302.805 227,311.5C 224.699,312.867 222.199,313.534 219.5,313.5C 219.658,316.902 219.324,320.236 218.5,323.5C 217.469,324.249 216.302,324.915 215,325.5C 212.364,325.455 209.53,325.288 206.5,325C 205.663,323.989 205.33,322.822 205.5,321.5C 205.5,316.833 205.5,312.167 205.5,307.5C 208.2,309.234 210.2,311.568 211.5,314.5C 213.379,313.659 215.379,313.325 217.5,313.5C 219.565,301.671 221.898,290.004 224.5,278.5 Z"/></g>
<g><path style="opacity:1" fill="#feb84f" d="M 269.5,285.5 C 270.833,285.5 272.167,285.5 273.5,285.5C 272.844,307.859 273.511,329.859 275.5,351.5C 275.123,353.258 274.456,354.925 273.5,356.5C 256.847,357.499 240.18,357.833 223.5,357.5C 226.181,350.314 228.681,342.98 231,335.5C 244.302,327.03 257.469,318.363 270.5,309.5C 270.833,308.833 271.167,308.167 271.5,307.5C 269.887,300.257 269.221,292.924 269.5,285.5 Z"/></g>
<g><path style="opacity:1" fill="#feb94e" d="M 211.5,314.5 C 210.287,317.637 208.787,320.637 207,323.5C 206.333,319.167 206.333,314.833 207,310.5C 207.876,312.635 209.376,313.969 211.5,314.5 Z"/></g>
<g><path style="opacity:1" fill="#f89797" d="M 318.5,284.5 C 318.5,284.833 318.5,285.167 318.5,285.5C 318.5,309.167 318.5,332.833 318.5,356.5C 340.833,356.5 363.167,356.5 385.5,356.5C 363.006,357.497 340.339,357.831 317.5,357.5C 317.169,332.994 317.502,308.661 318.5,284.5 Z"/></g>
<g><path style="opacity:1" fill="#d1bc81" d="M 444.5,372.5 C 456.833,372.5 469.167,372.5 481.5,372.5C 469.345,373.495 457.011,373.829 444.5,373.5C 444.5,381.833 444.5,390.167 444.5,398.5C 467.833,398.5 491.167,398.5 514.5,398.5C 514.5,398.833 514.5,399.167 514.5,399.5C 490.833,399.5 467.167,399.5 443.5,399.5C 443.173,390.318 443.507,381.318 444.5,372.5 Z"/></g>
<g><path style="opacity:1" fill="#feb84f" d="M 481.5,372.5 C 492.513,372.501 503.513,372.834 514.5,373.5C 514.5,381.833 514.5,390.167 514.5,398.5C 491.167,398.5 467.833,398.5 444.5,398.5C 444.5,390.167 444.5,381.833 444.5,373.5C 457.011,373.829 469.345,373.495 481.5,372.5 Z"/></g>
<g><path style="opacity:1" fill="#cad1a8" d="M 444.5,372.5 C 467.663,371.337 490.996,371.17 514.5,372C 515.828,380.932 515.828,389.765 514.5,398.5C 514.5,390.167 514.5,381.833 514.5,373.5C 503.513,372.834 492.513,372.501 481.5,372.5C 469.167,372.5 456.833,372.5 444.5,372.5 Z"/></g>
<g><path style="opacity:1" fill="#a0a3a3" d="M 217.5,379.5 C 298.833,380.167 298.833,380.833 217.5,381.5C 217.5,380.833 217.5,380.167 217.5,379.5 Z"/></g>
<g><path style="opacity:1" fill="#c4c7c9" d="M 352.5,379.5 C 341.5,380.167 330.5,380.833 319.5,381.5C 318.957,381.44 318.624,381.107 318.5,380.5C 329.814,379.501 341.147,379.168 352.5,379.5 Z"/></g>
<g><path style="opacity:1" fill="#8a8e8f" d="M 216.5,383.5 C 299.167,384.167 299.167,384.833 216.5,385.5C 216.5,384.833 216.5,384.167 216.5,383.5 Z"/></g>
<g><path style="opacity:1" fill="#a2a8aa" d="M 319.5,383.5 C 330.5,384.167 341.5,384.833 352.5,385.5C 341.147,385.832 329.814,385.499 318.5,384.5C 318.624,383.893 318.957,383.56 319.5,383.5 Z"/></g>
<g><path style="opacity:1" fill="#e5e5e9" d="M 215.5,386.5 C 236.5,386.5 257.5,386.5 278.5,386.5C 278.5,387.5 278.5,388.5 278.5,389.5C 257.167,389.5 235.833,389.5 214.5,389.5C 235.329,388.668 256.329,388.168 277.5,388C 256.663,387.832 235.996,387.332 215.5,386.5 Z"/></g>
<g><path style="opacity:1" fill="#feb60d" d="M 253.5,395.5 C 261.5,395.5 269.5,395.5 277.5,395.5C 277.5,398.167 277.5,400.833 277.5,403.5C 269.5,403.5 261.5,403.5 253.5,403.5C 253.5,400.833 253.5,398.167 253.5,395.5 Z"/></g>
<g><path style="opacity:1" fill="#fff0cc" d="M 253.5,395.5 C 262.009,394.179 270.675,394.179 279.5,395.5C 279.709,396.086 280.043,396.586 280.5,397C 280.015,399.68 279.682,402.347 279.5,405C 270.657,405.824 261.99,405.657 253.5,404.5C 261.833,404.5 270.167,404.5 278.5,404.5C 278.81,401.287 278.477,398.287 277.5,395.5C 269.5,395.5 261.5,395.5 253.5,395.5 Z"/></g>
<g><path style="opacity:1" fill="#f33f48" d="M 389.5,395.5 C 389.5,396.5 389.5,397.5 389.5,398.5C 381.5,398.5 373.5,398.5 365.5,398.5C 365.5,397.5 365.5,396.5 365.5,395.5C 373.5,395.5 381.5,395.5 389.5,395.5 Z"/></g>
<g><path style="opacity:1" fill="#cb5458" d="M 389.5,395.5 C 390.434,396.568 390.768,397.901 390.5,399.5C 381.983,399.826 373.65,399.493 365.5,398.5C 373.5,398.5 381.5,398.5 389.5,398.5C 389.5,397.5 389.5,396.5 389.5,395.5 Z"/></g>
<g><path style="opacity:1" fill="#1b3a46" d="M 365.5,398.5 C 373.65,399.493 381.983,399.826 390.5,399.5C 390.833,399.5 391.167,399.5 391.5,399.5C 405.5,399.5 419.5,399.5 433.5,399.5C 436.833,399.5 440.167,399.5 443.5,399.5C 467.167,399.5 490.833,399.5 514.5,399.5C 526.833,399.5 539.167,399.5 551.5,399.5C 549.998,407.015 547.331,414.015 543.5,420.5C 534.676,419.67 525.676,419.17 516.5,419C 525.343,418.83 534.01,418.33 542.5,417.5C 544.693,412.257 546.693,406.923 548.5,401.5C 538.833,401.5 529.167,401.5 519.5,401.5C 518.627,406.534 517.627,411.534 516.5,416.5C 516.167,416.5 515.833,416.5 515.5,416.5C 515.5,415.167 515.5,413.833 515.5,412.5C 515.5,410.833 515.5,409.167 515.5,407.5C 516.738,405.786 517.405,403.786 517.5,401.5C 516.5,401.5 515.5,401.5 514.5,401.5C 505.651,401.174 496.984,401.507 488.5,402.5C 487.532,404.607 487.198,406.941 487.5,409.5C 486.833,409.833 486.167,410.167 485.5,410.5C 485.5,407.5 485.5,404.5 485.5,401.5C 475.652,401.173 465.986,401.506 456.5,402.5C 455.833,402.5 455.167,402.5 454.5,402.5C 451.375,401.521 448.042,401.187 444.5,401.5C 437.646,401.176 430.979,401.509 424.5,402.5C 424.575,405.206 424.908,407.873 425.5,410.5C 425.328,411.492 425.662,412.158 426.5,412.5C 426.216,414.415 426.549,416.081 427.5,417.5C 428.11,418.391 428.443,419.391 428.5,420.5C 428.083,423.159 427.083,425.492 425.5,427.5C 425.702,425.05 425.369,422.717 424.5,420.5C 423.89,419.609 423.557,418.609 423.5,417.5C 423.5,415.833 423.5,414.167 423.5,412.5C 423.247,408.96 422.581,405.627 421.5,402.5C 411.326,401.177 400.993,401.177 390.5,402.5C 390.624,403.107 390.957,403.44 391.5,403.5C 393.036,408.109 394.37,412.776 395.5,417.5C 396.806,418.467 397.473,419.801 397.5,421.5C 397.878,423.921 398.545,426.254 399.5,428.5C 399.715,430.179 399.048,431.179 397.5,431.5C 397.5,430.833 397.167,430.5 396.5,430.5C 396.68,426.714 395.68,423.381 393.5,420.5C 386.679,419.671 379.679,419.171 372.5,419C 379.524,418.831 386.524,418.331 393.5,417.5C 393.376,416.893 393.043,416.56 392.5,416.5C 391.739,412.216 390.405,408.216 388.5,404.5C 388.672,403.508 388.338,402.842 387.5,402.5C 380.679,401.345 373.679,401.179 366.5,402C 365.434,403.159 365.767,403.992 367.5,404.5C 368.833,408.167 370.167,411.833 371.5,415.5C 371.768,417.099 371.434,418.432 370.5,419.5C 367.135,408.934 362.801,398.768 357.5,389C 344.833,388.667 332.167,388.333 319.5,388C 330.848,387.832 342.181,387.332 353.5,386.5C 353.376,385.893 353.043,385.56 352.5,385.5C 341.5,384.833 330.5,384.167 319.5,383.5C 362.167,382.833 362.167,382.167 319.5,381.5C 330.5,380.833 341.5,380.167 352.5,379.5C 355.288,378.022 357.954,378.188 360.5,380C 370.5,380.333 380.5,380.667 390.5,381C 351.833,382 351.833,383 390.5,384C 380.5,384.333 370.5,384.667 360.5,385C 360.043,385.414 359.709,385.914 359.5,386.5C 369.817,387.332 380.151,387.832 390.5,388C 380.483,388.168 370.483,388.668 360.5,389.5C 361.941,392.724 363.608,395.724 365.5,398.5 Z"/></g>
<g><path style="opacity:1" fill="#a54653" d="M 387.5,402.5 C 380.825,402.334 374.158,402.5 367.5,403C 368.056,403.383 368.389,403.883 368.5,404.5C 368.167,404.5 367.833,404.5 367.5,404.5C 365.767,403.992 365.434,403.159 366.5,402C 373.679,401.179 380.679,401.345 387.5,402.5 Z"/></g>
<g><path style="opacity:1" fill="#99adb3" d="M 421.5,402.5 C 411.319,402.173 401.319,402.506 391.5,403.5C 390.957,403.44 390.624,403.107 390.5,402.5C 400.993,401.177 411.326,401.177 421.5,402.5 Z"/></g>
<g><path style="opacity:1" fill="#694650" d="M 194.5,401.5 C 187.412,403.239 180.079,403.906 172.5,403.5C 172.5,403.167 172.5,402.833 172.5,402.5C 179.849,402.451 187.183,402.118 194.5,401.5 Z"/></g>
<g><path style="opacity:1" fill="#fcf7f7" d="M 421.5,402.5 C 422.581,405.627 423.247,408.96 423.5,412.5C 414.5,412.5 405.5,412.5 396.5,412.5C 396.5,414.167 396.5,415.833 396.5,417.5C 396.167,417.5 395.833,417.5 395.5,417.5C 394.37,412.776 393.036,408.109 391.5,403.5C 401.319,402.506 411.319,402.173 421.5,402.5 Z"/></g>
<g><path style="opacity:1" fill="#f1f5f5" d="M 424.5,402.5 C 427.167,402.5 429.833,402.5 432.5,402.5C 432.5,405.5 432.5,408.5 432.5,411.5C 430.05,411.702 427.717,411.369 425.5,410.5C 424.908,407.873 424.575,405.206 424.5,402.5 Z"/></g>
<g><path style="opacity:1" fill="#b69c65" d="M 444.5,402.5 C 444.5,402.167 444.5,401.833 444.5,401.5C 448.042,401.187 451.375,401.521 454.5,402.5C 454.5,407.5 454.5,412.5 454.5,417.5C 454.167,417.5 453.833,417.5 453.5,417.5C 453.5,412.5 453.5,407.5 453.5,402.5C 450.5,402.5 447.5,402.5 444.5,402.5 Z"/></g>
<g><path style="opacity:1" fill="#383320" d="M 454.5,402.5 C 455.167,402.5 455.833,402.5 456.5,402.5C 456.5,407.167 456.5,411.833 456.5,416.5C 455.833,416.833 455.167,417.167 454.5,417.5C 454.5,412.5 454.5,407.5 454.5,402.5 Z"/></g>
<g><path style="opacity:1" fill="#feb94f" d="M 483.5,416.5 C 475.016,417.493 466.349,417.826 457.5,417.5C 457.5,412.5 457.5,407.5 457.5,402.5C 466.5,402.5 475.5,402.5 484.5,402.5C 484.167,407.167 483.833,411.833 483.5,416.5 Z"/></g>
<g><path style="opacity:1" fill="#f8bb60" d="M 277.5,395.5 C 278.477,398.287 278.81,401.287 278.5,404.5C 270.167,404.5 261.833,404.5 253.5,404.5C 253.5,404.167 253.5,403.833 253.5,403.5C 261.5,403.5 269.5,403.5 277.5,403.5C 277.5,400.833 277.5,398.167 277.5,395.5 Z"/></g>
<g><path style="opacity:1" fill="#e34748" d="M 387.5,402.5 C 388.338,402.842 388.672,403.508 388.5,404.5C 381.833,404.5 375.167,404.5 368.5,404.5C 368.389,403.883 368.056,403.383 367.5,403C 374.158,402.5 380.825,402.334 387.5,402.5 Z"/></g>
<g><path style="opacity:1" fill="#6ddbe7" d="M 424.5,402.5 C 430.979,401.509 437.646,401.176 444.5,401.5C 444.5,401.833 444.5,402.167 444.5,402.5C 443.513,407.305 443.179,412.305 443.5,417.5C 442.833,417.5 442.167,417.5 441.5,417.5C 441.784,415.585 441.451,413.919 440.5,412.5C 438.052,411.527 435.385,411.194 432.5,411.5C 432.5,408.5 432.5,405.5 432.5,402.5C 429.833,402.5 427.167,402.5 424.5,402.5 Z"/></g>
<g><path style="opacity:1" fill="#fdb84f" d="M 444.5,402.5 C 447.5,402.5 450.5,402.5 453.5,402.5C 453.5,407.5 453.5,412.5 453.5,417.5C 450.833,417.5 448.167,417.5 445.5,417.5C 444.555,412.595 444.221,407.595 444.5,402.5 Z"/></g>
<g><path style="opacity:1" fill="#f8b54e" d="M 514.5,401.5 C 514.5,401.833 514.5,402.167 514.5,402.5C 513.559,407.07 513.226,411.737 513.5,416.5C 504.827,416.666 496.16,416.5 487.5,416C 488.467,411.599 488.8,407.099 488.5,402.5C 496.984,401.507 505.651,401.174 514.5,401.5 Z"/></g>
<g><path style="opacity:1" fill="#61dcea" d="M 542.5,417.5 C 533.651,417.826 524.984,417.493 516.5,416.5C 517.627,411.534 518.627,406.534 519.5,401.5C 529.167,401.5 538.833,401.5 548.5,401.5C 546.693,406.923 544.693,412.257 542.5,417.5 Z"/></g>
<g><path style="opacity:1" fill="#074554" d="M 194.5,401.5 C 199.833,401.5 205.167,401.5 210.5,401.5C 203.007,432.47 195.674,463.47 188.5,494.5C 185.401,506.05 182.401,517.717 179.5,529.5C 177.85,536.101 176.517,542.767 175.5,549.5C 173.518,550.807 171.518,552.141 169.5,553.5C 169.927,549.176 170.261,544.842 170.5,540.5C 171.388,537.946 171.721,535.279 171.5,532.5C 172.434,529.344 173.101,526.011 173.5,522.5C 174.666,513.843 176,505.176 177.5,496.5C 181.245,471.542 184.411,446.542 187,421.5C 179.965,433.571 173.465,445.904 167.5,458.5C 153.421,482.317 140.087,506.651 127.5,531.5C 125.929,533.635 124.596,535.968 123.5,538.5C 121.5,538.5 119.5,538.5 117.5,538.5C 118.15,536.565 118.483,534.565 118.5,532.5C 135.346,493.463 151.679,454.13 167.5,414.5C 168.167,414.5 168.5,414.167 168.5,413.5C 169.282,409.937 170.616,406.603 172.5,403.5C 180.079,403.906 187.412,403.239 194.5,401.5 Z"/></g>
<g><path style="opacity:1" fill="#ad935e" d="M 485.5,410.5 C 484.539,412.265 484.205,414.265 484.5,416.5C 484.167,416.5 483.833,416.5 483.5,416.5C 483.833,411.833 484.167,407.167 484.5,402.5C 475.5,402.5 466.5,402.5 457.5,402.5C 457.5,407.5 457.5,412.5 457.5,417.5C 456.833,417.5 456.5,417.167 456.5,416.5C 456.5,411.833 456.5,407.167 456.5,402.5C 465.986,401.506 475.652,401.173 485.5,401.5C 485.5,404.5 485.5,407.5 485.5,410.5 Z"/></g>
<g><path style="opacity:1" fill="#47acb8" d="M 514.5,402.5 C 514.5,402.167 514.5,401.833 514.5,401.5C 515.5,401.5 516.5,401.5 517.5,401.5C 517.405,403.786 516.738,405.786 515.5,407.5C 515.784,405.585 515.451,403.919 514.5,402.5 Z"/></g>
<g><path style="opacity:1" fill="#fbf9f9" d="M 367.5,404.5 C 367.833,404.5 368.167,404.5 368.5,404.5C 375.167,404.5 381.833,404.5 388.5,404.5C 390.405,408.216 391.739,412.216 392.5,416.5C 389.351,417.165 386.018,417.498 382.5,417.5C 378.573,417.42 374.907,416.753 371.5,415.5C 370.167,411.833 368.833,408.167 367.5,404.5 Z"/></g>
<g><path style="opacity:1" fill="#d6cb96" d="M 444.5,402.5 C 444.221,407.595 444.555,412.595 445.5,417.5C 444.833,417.5 444.167,417.5 443.5,417.5C 443.179,412.305 443.513,407.305 444.5,402.5 Z"/></g>
<g><path style="opacity:1" fill="#e4afaf" d="M 425.5,410.5 C 427.717,411.369 430.05,411.702 432.5,411.5C 435.385,411.194 438.052,411.527 440.5,412.5C 440.167,412.5 439.833,412.5 439.5,412.5C 435.167,412.5 430.833,412.5 426.5,412.5C 425.662,412.158 425.328,411.492 425.5,410.5 Z"/></g>
<g><path style="opacity:1" fill="#ea5d5d" d="M 423.5,412.5 C 423.5,414.167 423.5,415.833 423.5,417.5C 414.5,417.5 405.5,417.5 396.5,417.5C 396.5,415.833 396.5,414.167 396.5,412.5C 405.5,412.5 414.5,412.5 423.5,412.5 Z"/></g>
<g><path style="opacity:1" fill="#d76466" d="M 426.5,412.5 C 430.833,412.5 435.167,412.5 439.5,412.5C 435.702,413.483 431.702,413.817 427.5,413.5C 427.5,414.5 427.5,415.5 427.5,416.5C 431.833,416.5 436.167,416.5 440.5,416.5C 440.5,415.167 440.5,413.833 440.5,412.5C 441.451,413.919 441.784,415.585 441.5,417.5C 436.833,417.5 432.167,417.5 427.5,417.5C 426.549,416.081 426.216,414.415 426.5,412.5 Z"/></g>
<g><path style="opacity:1" fill="#f55655" d="M 439.5,412.5 C 439.833,412.5 440.167,412.5 440.5,412.5C 440.5,413.833 440.5,415.167 440.5,416.5C 436.167,416.5 431.833,416.5 427.5,416.5C 427.5,415.5 427.5,414.5 427.5,413.5C 431.702,413.817 435.702,413.483 439.5,412.5 Z"/></g>
<g><path style="opacity:1" fill="#e9b967" d="M 488.5,402.5 C 488.8,407.099 488.467,411.599 487.5,416C 496.16,416.5 504.827,416.666 513.5,416.5C 513.226,411.737 513.559,407.07 514.5,402.5C 515.451,403.919 515.784,405.585 515.5,407.5C 515.5,409.167 515.5,410.833 515.5,412.5C 514.549,413.919 514.216,415.585 514.5,417.5C 505.167,417.5 495.833,417.5 486.5,417.5C 486.833,414.833 487.167,412.167 487.5,409.5C 487.198,406.941 487.532,404.607 488.5,402.5 Z"/></g>
<g><path style="opacity:1" fill="#404048" d="M 395.5,417.5 C 395.833,417.5 396.167,417.5 396.5,417.5C 405.5,417.5 414.5,417.5 423.5,417.5C 423.557,418.609 423.89,419.609 424.5,420.5C 415.416,420.196 406.416,420.529 397.5,421.5C 397.473,419.801 396.806,418.467 395.5,417.5 Z"/></g>
<g><path style="opacity:1" fill="#46484a" d="M 427.5,417.5 C 432.167,417.5 436.833,417.5 441.5,417.5C 442.167,417.5 442.833,417.5 443.5,417.5C 444.167,417.5 444.833,417.5 445.5,417.5C 448.167,417.5 450.833,417.5 453.5,417.5C 450.023,418.323 446.356,418.823 442.5,419C 446.356,419.177 450.023,419.677 453.5,420.5C 450.167,420.5 446.833,420.5 443.5,420.5C 442.833,420.5 442.167,420.5 441.5,420.5C 437.167,420.5 432.833,420.5 428.5,420.5C 428.443,419.391 428.11,418.391 427.5,417.5 Z"/></g>
<g><path style="opacity:1" fill="#4d6a6d" d="M 371.5,415.5 C 374.907,416.753 378.573,417.42 382.5,417.5C 386.018,417.498 389.351,417.165 392.5,416.5C 393.043,416.56 393.376,416.893 393.5,417.5C 386.524,418.331 379.524,418.831 372.5,419C 379.679,419.171 386.679,419.671 393.5,420.5C 386.745,419.877 380.412,420.544 374.5,422.5C 373.778,421.449 372.778,420.782 371.5,420.5C 370.833,420.5 370.5,420.167 370.5,419.5C 371.434,418.432 371.768,417.099 371.5,415.5 Z"/></g>
<g><path style="opacity:1" fill="#175d6d" d="M 515.5,416.5 C 515.833,416.5 516.167,416.5 516.5,416.5C 524.984,417.493 533.651,417.826 542.5,417.5C 534.01,418.33 525.343,418.83 516.5,419C 525.676,419.17 534.676,419.67 543.5,420.5C 543.5,420.833 543.5,421.167 543.5,421.5C 542.833,421.5 542.167,421.5 541.5,421.5C 533.016,420.507 524.349,420.174 515.5,420.5C 515.737,421.791 515.404,422.791 514.5,423.5C 514.448,421.097 514.781,418.764 515.5,416.5 Z"/></g>
<g><path style="opacity:1" fill="#c7a86f" d="M 482.5,426.5 C 482.5,424.833 482.5,423.167 482.5,421.5C 474.493,421.334 466.493,421.5 458.5,422C 457.529,427.072 457.195,432.238 457.5,437.5C 456.512,432.36 456.179,427.026 456.5,421.5C 465.318,420.507 474.318,420.173 483.5,420.5C 483.795,422.735 483.461,424.735 482.5,426.5 Z"/></g>
<g><path style="opacity:1" fill="#2e4142" d="M 487.5,409.5 C 487.167,412.167 486.833,414.833 486.5,417.5C 495.833,417.5 505.167,417.5 514.5,417.5C 514.216,415.585 514.549,413.919 515.5,412.5C 515.5,413.833 515.5,415.167 515.5,416.5C 514.781,418.764 514.448,421.097 514.5,423.5C 514.5,424.5 514.5,425.5 514.5,426.5C 513.213,430.313 512.213,434.313 511.5,438.5C 512.5,438.5 513.5,438.5 514.5,438.5C 521.167,438.5 527.833,438.5 534.5,438.5C 534.167,439.167 533.833,439.833 533.5,440.5C 527.167,440.5 520.833,440.5 514.5,440.5C 513.178,440.33 512.011,440.663 511,441.5C 509.844,445.44 509.01,449.44 508.5,453.5C 507.566,454.568 507.232,455.901 507.5,457.5C 506.596,458.209 506.263,459.209 506.5,460.5C 505.833,460.5 505.167,460.5 504.5,460.5C 505.394,454.804 506.394,449.137 507.5,443.5C 507.5,443.167 507.5,442.833 507.5,442.5C 508.757,441.377 508.424,440.711 506.5,440.5C 507.167,439.833 507.833,439.167 508.5,438.5C 508.5,438.167 508.5,437.833 508.5,437.5C 510.489,433.503 511.489,429.17 511.5,424.5C 512.434,423.432 512.768,422.099 512.5,420.5C 503.5,420.5 494.5,420.5 485.5,420.5C 485.5,422.5 485.5,424.5 485.5,426.5C 485.5,427.5 485.5,428.5 485.5,429.5C 484.523,432.287 484.19,435.287 484.5,438.5C 484.5,439.167 484.5,439.833 484.5,440.5C 484.5,440.833 484.5,441.167 484.5,441.5C 483.275,446.29 482.608,451.29 482.5,456.5C 481.549,457.919 481.216,459.585 481.5,461.5C 481.5,462.167 481.5,462.833 481.5,463.5C 481.5,463.833 481.5,464.167 481.5,464.5C 481.5,466.167 481.5,467.833 481.5,469.5C 479.896,473.9 479.229,478.566 479.5,483.5C 485.833,483.5 492.167,483.5 498.5,483.5C 484.833,484.833 471.167,484.833 457.5,483.5C 463.842,483.666 470.175,483.5 476.5,483C 477.46,479.27 477.793,475.437 477.5,471.5C 478.473,469.052 478.806,466.385 478.5,463.5C 478.5,462.833 478.5,462.167 478.5,461.5C 478.5,461.167 478.5,460.833 478.5,460.5C 480.383,453.979 481.05,447.312 480.5,440.5C 480.5,439.833 480.5,439.167 480.5,438.5C 481.117,438.389 481.617,438.056 482,437.5C 482.499,433.848 482.665,430.182 482.5,426.5C 483.461,424.735 483.795,422.735 483.5,420.5C 474.318,420.173 465.318,420.507 456.5,421.5C 455.833,421.5 455.167,421.5 454.5,421.5C 454.5,420.833 454.167,420.5 453.5,420.5C 450.023,419.677 446.356,419.177 442.5,419C 446.356,418.823 450.023,418.323 453.5,417.5C 453.833,417.5 454.167,417.5 454.5,417.5C 455.167,417.167 455.833,416.833 456.5,416.5C 456.5,417.167 456.833,417.5 457.5,417.5C 461.82,418.166 466.32,418.499 471,418.5C 475.886,418.493 480.386,417.826 484.5,416.5C 484.205,414.265 484.539,412.265 485.5,410.5C 486.167,410.167 486.833,409.833 487.5,409.5 Z"/></g>
<g><path style="opacity:1" fill="#6a7161" d="M 483.5,416.5 C 483.833,416.5 484.167,416.5 484.5,416.5C 480.386,417.826 475.886,418.493 471,418.5C 466.32,418.499 461.82,418.166 457.5,417.5C 466.349,417.826 475.016,417.493 483.5,416.5 Z"/></g>
<g><path style="opacity:1" fill="#cfac6b" d="M 511.5,424.5 C 511.5,423.5 511.5,422.5 511.5,421.5C 503.167,421.5 494.833,421.5 486.5,421.5C 486.784,423.415 486.451,425.081 485.5,426.5C 485.5,424.5 485.5,422.5 485.5,420.5C 494.5,420.5 503.5,420.5 512.5,420.5C 512.768,422.099 512.434,423.432 511.5,424.5 Z"/></g>
<g><path style="opacity:1" fill="#f4f9fa" d="M 393.5,420.5 C 395.68,423.381 396.68,426.714 396.5,430.5C 396.5,432.833 396.5,435.167 396.5,437.5C 394.167,437.5 391.833,437.5 389.5,437.5C 389.5,433.167 389.5,428.833 389.5,424.5C 384.833,424.5 380.167,424.5 375.5,424.5C 374.662,424.158 374.328,423.492 374.5,422.5C 380.412,420.544 386.745,419.877 393.5,420.5 Z"/></g>
<g><path style="opacity:1" fill="#d96467" d="M 424.5,420.5 C 425.369,422.717 425.702,425.05 425.5,427.5C 425.5,429.167 425.5,430.833 425.5,432.5C 424.521,429.375 424.187,426.042 424.5,422.5C 415.827,422.334 407.16,422.5 398.5,423C 400.155,424.444 400.822,426.278 400.5,428.5C 400.167,428.5 399.833,428.5 399.5,428.5C 398.545,426.254 397.878,423.921 397.5,421.5C 406.416,420.529 415.416,420.196 424.5,420.5 Z"/></g>
<g><path style="opacity:1" fill="#63deec" d="M 541.5,421.5 C 538.95,427.168 536.617,432.835 534.5,438.5C 527.833,438.5 521.167,438.5 514.5,438.5C 515.791,434.399 515.791,430.399 514.5,426.5C 514.5,425.5 514.5,424.5 514.5,423.5C 515.404,422.791 515.737,421.791 515.5,420.5C 524.349,420.174 533.016,420.507 541.5,421.5 Z"/></g>
<g><path style="opacity:1" fill="#a1bcc3" d="M 441.5,420.5 C 442.167,420.5 442.833,420.5 443.5,420.5C 443.211,426.591 443.545,432.591 444.5,438.5C 443.209,438.737 442.209,438.404 441.5,437.5C 441.5,432.167 441.5,426.833 441.5,421.5C 441.5,421.167 441.5,420.833 441.5,420.5 Z"/></g>
<g><path style="opacity:1" fill="#ddb469" d="M 443.5,420.5 C 446.833,420.5 450.167,420.5 453.5,420.5C 454.167,420.5 454.5,420.833 454.5,421.5C 454.821,427.026 454.488,432.36 453.5,437.5C 450.713,438.477 447.713,438.81 444.5,438.5C 443.545,432.591 443.211,426.591 443.5,420.5 Z"/></g>
<g><path style="opacity:1" fill="#f0aaa9" d="M 210.5,425.5 C 232.66,424.503 254.994,424.169 277.5,424.5C 277.831,448.339 277.498,472.006 276.5,495.5C 277.157,471.809 276.49,448.476 274.5,425.5C 253.167,425.5 231.833,425.5 210.5,425.5 Z"/></g>
<g><path style="opacity:1" fill="#dc4646" d="M 210.5,425.5 C 231.833,425.5 253.167,425.5 274.5,425.5C 275.489,448.758 275.823,472.092 275.5,495.5C 274.209,495.737 273.209,495.404 272.5,494.5C 273.497,475.674 273.83,456.674 273.5,437.5C 251.167,437.5 228.833,437.5 206.5,437.5C 206.5,436.833 206.5,436.167 206.5,435.5C 207.639,432.082 208.972,428.749 210.5,425.5 Z"/></g>
<g><path style="opacity:1" fill="#ae2f30" d="M 274.5,425.5 C 276.49,448.476 277.157,471.809 276.5,495.5C 276.167,495.5 275.833,495.5 275.5,495.5C 275.823,472.092 275.489,448.758 274.5,425.5 Z"/></g>
<g><path style="opacity:1" fill="#18b4c3" d="M 371.5,422.5 C 373.739,427.324 375.739,432.324 377.5,437.5C 357.472,438.154 337.805,437.488 318.5,435.5C 319.82,432.188 321.154,428.855 322.5,425.5C 339.187,425.159 355.521,424.159 371.5,422.5 Z"/></g>
<g><path style="opacity:1" fill="#f7fafa" d="M 177.5,496.5 C 174.167,496.5 170.833,496.5 167.5,496.5C 167.5,483.833 167.5,471.167 167.5,458.5C 173.465,445.904 179.965,433.571 187,421.5C 184.411,446.542 181.245,471.542 177.5,496.5 Z"/></g>
<g><path style="opacity:1" fill="#90545b" d="M 428.5,420.5 C 432.833,420.5 437.167,420.5 441.5,420.5C 441.5,420.833 441.5,421.167 441.5,421.5C 437.167,421.5 432.833,421.5 428.5,421.5C 428.616,424.86 428.949,428.193 429.5,431.5C 428.732,430.737 428.232,429.737 428,428.5C 427.503,430.81 427.337,433.143 427.5,435.5C 426.833,434.5 426.167,433.5 425.5,432.5C 425.5,430.833 425.5,429.167 425.5,427.5C 427.083,425.492 428.083,423.159 428.5,420.5 Z"/></g>
<g><path style="opacity:1" fill="#ee5959" d="M 206.5,437.5 C 228.833,437.5 251.167,437.5 273.5,437.5C 273.83,456.674 273.497,475.674 272.5,494.5C 250.5,494.5 228.5,494.5 206.5,494.5C 206.5,475.5 206.5,456.5 206.5,437.5 Z"/></g>
<g><path style="opacity:1" fill="#66e2f0" d="M 318.5,435.5 C 337.805,437.488 357.472,438.154 377.5,437.5C 380.442,444.385 383.108,451.385 385.5,458.5C 385.5,471.167 385.5,483.833 385.5,496.5C 362.833,496.5 340.167,496.5 317.5,496.5C 317.17,475.993 317.503,455.66 318.5,435.5 Z"/></g>
<g><path style="opacity:1" fill="#ecf2f3" d="M 390.5,470.5 C 392.443,475.391 394.109,480.391 395.5,485.5C 394.828,488.512 394.161,491.512 393.5,494.5C 392.533,495.806 391.199,496.473 389.5,496.5C 389.174,487.651 389.507,478.984 390.5,470.5 Z"/></g>
<g><path style="opacity:1" fill="#85aeb3" d="M 389.5,468.5 C 389.833,469.167 390.167,469.833 390.5,470.5C 389.507,478.984 389.174,487.651 389.5,496.5C 388.167,487.167 388.167,477.833 389.5,468.5 Z"/></g>
<g><path style="opacity:1" fill="#64e0ee" d="M 167.5,458.5 C 167.5,471.167 167.5,483.833 167.5,496.5C 167.334,502.176 167.501,507.843 168,513.5C 168.843,517.2 170.676,520.2 173.5,522.5C 173.101,526.011 172.434,529.344 171.5,532.5C 156.657,532.829 141.99,532.496 127.5,531.5C 140.087,506.651 153.421,482.317 167.5,458.5 Z"/></g>
<g><path style="opacity:1" fill="#164250" d="M 371.5,420.5 C 372.778,420.782 373.778,421.449 374.5,422.5C 374.328,423.492 374.662,424.158 375.5,424.5C 377.077,428.728 378.577,433.061 380,437.5C 381.699,438.406 383.533,438.739 385.5,438.5C 384.665,439.943 383.332,440.943 381.5,441.5C 381.624,442.107 381.957,442.44 382.5,442.5C 383.167,444.833 383.833,447.167 384.5,449.5C 385.472,452.132 386.805,454.465 388.5,456.5C 388.232,458.099 388.566,459.432 389.5,460.5C 391.607,461.468 393.941,461.802 396.5,461.5C 400.167,461.5 403.833,461.5 407.5,461.5C 407.784,459.585 407.451,457.919 406.5,456.5C 405.596,455.791 405.263,454.791 405.5,453.5C 405.131,451.007 405.797,450.34 407.5,451.5C 408.213,454.594 409.213,457.594 410.5,460.5C 417.313,461.491 424.313,461.825 431.5,461.5C 430.99,458.612 431.656,456.279 433.5,454.5C 432.406,460.905 435.073,463.238 441.5,461.5C 442.5,461.5 443.5,461.5 444.5,461.5C 448.042,461.813 451.375,461.479 454.5,460.5C 455.167,460.5 455.833,460.5 456.5,460.5C 463.648,461.492 470.981,461.825 478.5,461.5C 478.5,462.167 478.5,462.833 478.5,463.5C 470.981,463.175 463.648,463.508 456.5,464.5C 455.833,464.5 455.167,464.5 454.5,464.5C 454.167,464.5 453.833,464.5 453.5,464.5C 450.713,463.523 447.713,463.19 444.5,463.5C 443.5,463.5 442.5,463.5 441.5,463.5C 439.5,463.5 437.5,463.5 435.5,463.5C 435.5,466.167 435.5,468.833 435.5,471.5C 435.784,473.415 435.451,475.081 434.5,476.5C 433.823,472.429 432.823,468.429 431.5,464.5C 425.021,463.509 418.354,463.176 411.5,463.5C 411.5,465.167 411.5,466.833 411.5,468.5C 412.167,468.833 412.833,469.167 413.5,469.5C 413.5,469.833 413.5,470.167 413.5,470.5C 414.988,474.788 416.322,479.121 417.5,483.5C 423.167,483.5 428.833,483.5 434.5,483.5C 434.972,481.469 435.972,479.802 437.5,478.5C 437.5,478.833 437.5,479.167 437.5,479.5C 437.5,480.833 437.5,482.167 437.5,483.5C 438.833,483.5 440.167,483.5 441.5,483.5C 442.167,483.5 442.833,483.5 443.5,483.5C 443.833,483.5 444.167,483.5 444.5,483.5C 447.833,483.5 451.167,483.5 454.5,483.5C 455.167,483.167 455.833,482.833 456.5,482.5C 456.5,483.167 456.833,483.5 457.5,483.5C 471.167,484.833 484.833,484.833 498.5,483.5C 500.678,477.804 502.011,471.804 502.5,465.5C 503.043,465.44 503.376,465.107 503.5,464.5C 496.197,463.503 488.863,463.169 481.5,463.5C 481.5,462.833 481.5,462.167 481.5,461.5C 489.019,461.825 496.352,461.492 503.5,460.5C 503.833,460.5 504.167,460.5 504.5,460.5C 505.167,460.5 505.833,460.5 506.5,460.5C 508.948,461.473 511.615,461.806 514.5,461.5C 518.437,461.793 522.27,461.46 526,460.5C 528.791,453.922 531.291,447.255 533.5,440.5C 533.833,439.833 534.167,439.167 534.5,438.5C 536.617,432.835 538.95,427.168 541.5,421.5C 542.167,421.5 542.833,421.5 543.5,421.5C 535.18,442.812 526.846,464.145 518.5,485.5C 490.175,486.5 461.841,486.833 433.5,486.5C 421.482,486.168 409.482,486.501 397.5,487.5C 396.675,489.801 396.008,492.135 395.5,494.5C 394.662,494.842 394.328,495.508 394.5,496.5C 393.662,496.158 393.328,495.492 393.5,494.5C 394.161,491.512 394.828,488.512 395.5,485.5C 394.109,480.391 392.443,475.391 390.5,470.5C 390.167,469.833 389.833,469.167 389.5,468.5C 388.122,465.094 386.789,461.76 385.5,458.5C 383.108,451.385 380.442,444.385 377.5,437.5C 375.739,432.324 373.739,427.324 371.5,422.5C 371.5,421.833 371.5,421.167 371.5,420.5 Z"/></g>
<g><path style="opacity:1" fill="#e1b363" d="M 501.5,464.5 C 502.167,464.5 502.5,464.833 502.5,465.5C 502.011,471.804 500.678,477.804 498.5,483.5C 492.167,483.5 485.833,483.5 479.5,483.5C 479.229,478.566 479.896,473.9 481.5,469.5C 481.533,473.869 481.2,478.202 480.5,482.5C 486.5,482.5 492.5,482.5 498.5,482.5C 498.958,479.606 498.291,477.106 496.5,475C 497.337,473.989 497.67,472.822 497.5,471.5C 498.5,471.5 499.5,471.5 500.5,471.5C 500.448,469.097 500.781,466.764 501.5,464.5 Z"/></g>
<g><path style="opacity:1" fill="#cf6567" d="M 430.5,464.5 C 430.833,464.5 431.167,464.5 431.5,464.5C 432.823,468.429 433.823,472.429 434.5,476.5C 434.5,478.833 434.5,481.167 434.5,483.5C 428.833,483.5 423.167,483.5 417.5,483.5C 416.322,479.121 414.988,474.788 413.5,470.5C 414.458,470.953 415.292,471.619 416,472.5C 416.558,475.934 417.391,479.267 418.5,482.5C 423.5,482.5 428.5,482.5 433.5,482.5C 432.675,476.379 431.675,470.379 430.5,464.5 Z"/></g>
<g><path style="opacity:1" fill="#6c444d" d="M 435.5,471.5 C 435.833,471.5 436.167,471.5 436.5,471.5C 437.219,473.764 437.552,476.097 437.5,478.5C 435.972,479.802 434.972,481.469 434.5,483.5C 434.5,481.167 434.5,478.833 434.5,476.5C 435.451,475.081 435.784,473.415 435.5,471.5 Z"/></g>
<g><path style="opacity:1" fill="#deb86f" d="M 514.5,463.5 C 515.46,470.078 515.793,476.745 515.5,483.5C 510.833,483.5 506.167,483.5 501.5,483.5C 501.263,482.209 501.596,481.209 502.5,480.5C 503.34,474.805 504.34,469.139 505.5,463.5C 508.5,463.5 511.5,463.5 514.5,463.5 Z"/></g>
<g><path style="opacity:1" fill="#e15e5e" d="M 408.5,465.5 C 408.833,465.5 409.167,465.5 409.5,465.5C 409.285,467.179 409.952,468.179 411.5,468.5C 411.337,470.857 411.503,473.19 412,475.5C 413.481,478.11 414.648,480.777 415.5,483.5C 409.5,483.5 403.5,483.5 397.5,483.5C 397.5,482.167 397.5,480.833 397.5,479.5C 398.404,480.209 398.737,481.209 398.5,482.5C 403.167,482.5 407.833,482.5 412.5,482.5C 412.762,481.022 412.429,479.689 411.5,478.5C 410.751,480.012 409.584,481.012 408,481.5C 405.536,480.839 403.036,480.339 400.5,480C 402.577,479.808 404.577,479.308 406.5,478.5C 404.167,477.833 401.833,477.167 399.5,476.5C 402.027,475.786 404.527,475.12 407,474.5C 408.149,471.607 408.649,468.607 408.5,465.5 Z"/></g>
<g><path style="opacity:1" fill="#f25958" d="M 437.5,479.5 C 437.5,479.167 437.5,478.833 437.5,478.5C 437.552,476.097 437.219,473.764 436.5,471.5C 436.5,469.167 436.5,466.833 436.5,464.5C 437.833,464.5 439.167,464.5 440.5,464.5C 440.829,470.537 440.496,476.537 439.5,482.5C 438.824,481.398 438.158,480.398 437.5,479.5 Z"/></g>
<g><path style="opacity:1" fill="#c77274" d="M 396.5,463.5 C 401.294,462.903 405.627,463.57 409.5,465.5C 409.167,465.5 408.833,465.5 408.5,465.5C 405.038,464.518 401.371,464.185 397.5,464.5C 397.5,469.5 397.5,474.5 397.5,479.5C 396.5,479.167 395.833,478.5 395.5,477.5C 396.486,473.03 396.819,468.363 396.5,463.5 Z"/></g>
<g><path style="opacity:1" fill="#a1bbc3" d="M 441.5,463.5 C 442.5,463.5 443.5,463.5 444.5,463.5C 443.54,470.078 443.207,476.745 443.5,483.5C 442.833,483.5 442.167,483.5 441.5,483.5C 441.5,476.833 441.5,470.167 441.5,463.5 Z"/></g>
<g><path style="opacity:1" fill="#ef5958" d="M 430.5,464.5 C 431.675,470.379 432.675,476.379 433.5,482.5C 428.5,482.5 423.5,482.5 418.5,482.5C 417.391,479.267 416.558,475.934 416,472.5C 415.292,471.619 414.458,470.953 413.5,470.5C 413.5,470.167 413.5,469.833 413.5,469.5C 412.962,467.883 412.629,466.216 412.5,464.5C 418.5,464.5 424.5,464.5 430.5,464.5 Z"/></g>
<g><path style="opacity:1" fill="#62dce8" d="M 514.5,463.5 C 517.898,463.18 521.232,463.513 524.5,464.5C 521.882,470.18 519.549,476.013 517.5,482C 517.164,483.03 516.497,483.53 515.5,483.5C 515.793,476.745 515.46,470.078 514.5,463.5 Z"/></g>
<g><path style="opacity:1" fill="#feb84c" d="M 502.5,480.5 C 505.595,475.834 506.928,470.5 506.5,464.5C 508.792,464.244 510.959,464.577 513,465.5C 513.499,471.157 513.666,476.824 513.5,482.5C 509.351,483.08 505.684,482.414 502.5,480.5 Z"/></g>
<g><path style="opacity:1" fill="#d26769" d="M 441.5,463.5 C 441.5,470.167 441.5,476.833 441.5,483.5C 440.167,483.5 438.833,483.5 437.5,483.5C 437.5,482.167 437.5,480.833 437.5,479.5C 438.158,480.398 438.824,481.398 439.5,482.5C 440.496,476.537 440.829,470.537 440.5,464.5C 439.167,464.5 437.833,464.5 436.5,464.5C 436.5,466.833 436.5,469.167 436.5,471.5C 436.167,471.5 435.833,471.5 435.5,471.5C 435.5,468.833 435.5,466.167 435.5,463.5C 437.5,463.5 439.5,463.5 441.5,463.5 Z"/></g>
<g><path style="opacity:1" fill="#f05858" d="M 408.5,465.5 C 408.649,468.607 408.149,471.607 407,474.5C 404.527,475.12 402.027,475.786 399.5,476.5C 401.833,477.167 404.167,477.833 406.5,478.5C 404.577,479.308 402.577,479.808 400.5,480C 403.036,480.339 405.536,480.839 408,481.5C 409.584,481.012 410.751,480.012 411.5,478.5C 412.429,479.689 412.762,481.022 412.5,482.5C 407.833,482.5 403.167,482.5 398.5,482.5C 398.737,481.209 398.404,480.209 397.5,479.5C 397.5,474.5 397.5,469.5 397.5,464.5C 401.371,464.185 405.038,464.518 408.5,465.5 Z"/></g>
<g><path style="opacity:1" fill="#feb84c" d="M 481.5,464.5 C 488.167,464.5 494.833,464.5 501.5,464.5C 500.781,466.764 500.448,469.097 500.5,471.5C 499.5,471.5 498.5,471.5 497.5,471.5C 497.67,472.822 497.337,473.989 496.5,475C 498.291,477.106 498.958,479.606 498.5,482.5C 492.5,482.5 486.5,482.5 480.5,482.5C 481.2,478.202 481.533,473.869 481.5,469.5C 481.5,467.833 481.5,466.167 481.5,464.5 Z"/></g>
<g><path style="opacity:1" fill="#fbb84f" d="M 477.5,471.5 C 477.793,475.437 477.46,479.27 476.5,483C 470.175,483.5 463.842,483.666 457.5,483.5C 457.5,477.167 457.5,470.833 457.5,464.5C 464.167,464.5 470.833,464.5 477.5,464.5C 477.5,466.833 477.5,469.167 477.5,471.5 Z"/></g>
<g><path style="opacity:1" fill="#a99469" d="M 478.5,463.5 C 478.806,466.385 478.473,469.052 477.5,471.5C 477.5,469.167 477.5,466.833 477.5,464.5C 470.833,464.5 464.167,464.5 457.5,464.5C 457.5,470.833 457.5,477.167 457.5,483.5C 456.833,483.5 456.5,483.167 456.5,482.5C 456.5,476.5 456.5,470.5 456.5,464.5C 463.648,463.508 470.981,463.175 478.5,463.5 Z"/></g>
<g><path style="opacity:1" fill="#383320" d="M 454.5,464.5 C 455.167,464.5 455.833,464.5 456.5,464.5C 456.5,470.5 456.5,476.5 456.5,482.5C 455.833,482.833 455.167,483.167 454.5,483.5C 454.5,477.167 454.5,470.833 454.5,464.5 Z"/></g>
<g><path style="opacity:1" fill="#f7b753" d="M 453.5,464.5 C 453.833,464.5 454.167,464.5 454.5,464.5C 454.5,470.833 454.5,477.167 454.5,483.5C 451.167,483.5 447.833,483.5 444.5,483.5C 445.014,477.178 445.347,470.845 445.5,464.5C 448.167,464.5 450.833,464.5 453.5,464.5 Z"/></g>
<g><path style="opacity:1" fill="#ddb870" d="M 444.5,463.5 C 447.713,463.19 450.713,463.523 453.5,464.5C 450.833,464.5 448.167,464.5 445.5,464.5C 445.347,470.845 445.014,477.178 444.5,483.5C 444.167,483.5 443.833,483.5 443.5,483.5C 443.207,476.745 443.54,470.078 444.5,463.5 Z"/></g>
<g><path style="opacity:1" fill="#eaecec" d="M 396.5,463.5 C 396.819,468.363 396.486,473.03 395.5,477.5C 393.526,472.932 391.859,468.265 390.5,463.5C 392.5,463.5 394.5,463.5 396.5,463.5 Z"/></g>
<g><path style="opacity:1" fill="#b19762" d="M 481.5,464.5 C 481.5,464.167 481.5,463.833 481.5,463.5C 488.863,463.169 496.197,463.503 503.5,464.5C 503.376,465.107 503.043,465.44 502.5,465.5C 502.5,464.833 502.167,464.5 501.5,464.5C 494.833,464.5 488.167,464.5 481.5,464.5 Z"/></g>
<g><path style="opacity:1" fill="#9d595f" d="M 431.5,464.5 C 431.167,464.5 430.833,464.5 430.5,464.5C 424.5,464.5 418.5,464.5 412.5,464.5C 412.629,466.216 412.962,467.883 413.5,469.5C 412.833,469.167 412.167,468.833 411.5,468.5C 411.5,466.833 411.5,465.167 411.5,463.5C 418.354,463.176 425.021,463.509 431.5,464.5 Z"/></g>
<g><path style="opacity:1" fill="#b19660" d="M 482.5,456.5 C 482.5,457.833 482.5,459.167 482.5,460.5C 489.5,460.5 496.5,460.5 503.5,460.5C 496.352,461.492 489.019,461.825 481.5,461.5C 481.216,459.585 481.549,457.919 482.5,456.5 Z"/></g>
<g><path style="opacity:1" fill="#af9766" d="M 457.5,441.5 C 457.177,448.022 457.51,454.355 458.5,460.5C 465.167,460.5 471.833,460.5 478.5,460.5C 478.5,460.833 478.5,461.167 478.5,461.5C 470.981,461.825 463.648,461.492 456.5,460.5C 456.177,453.978 456.51,447.645 457.5,441.5 Z"/></g>
<g><path style="opacity:1" fill="#93545a" d="M 431.5,447.5 C 432.407,449.657 433.073,451.99 433.5,454.5C 431.656,456.279 430.99,458.612 431.5,461.5C 424.313,461.825 417.313,461.491 410.5,460.5C 417.167,460.5 423.833,460.5 430.5,460.5C 430.632,457.43 430.299,454.43 429.5,451.5C 431.176,450.817 431.843,449.483 431.5,447.5 Z"/></g>
<g><path style="opacity:1" fill="#b06569" d="M 396.5,440.5 C 398.099,440.232 399.432,440.566 400.5,441.5C 399.5,441.5 398.5,441.5 397.5,441.5C 397.5,447.833 397.5,454.167 397.5,460.5C 400.5,460.5 403.5,460.5 406.5,460.5C 406.5,459.167 406.5,457.833 406.5,456.5C 407.451,457.919 407.784,459.585 407.5,461.5C 403.833,461.5 400.167,461.5 396.5,461.5C 396.5,454.833 396.5,448.167 396.5,441.5C 396.5,441.167 396.5,440.833 396.5,440.5 Z"/></g>
<g><path style="opacity:1" fill="#edb75d" d="M 484.5,441.5 C 492.352,441.175 500.018,441.508 507.5,442.5C 499.833,442.5 492.167,442.5 484.5,442.5C 484.553,448.196 484.22,453.862 483.5,459.5C 489.842,459.666 496.175,459.5 502.5,459C 503.663,453.53 505.33,448.363 507.5,443.5C 506.394,449.137 505.394,454.804 504.5,460.5C 504.167,460.5 503.833,460.5 503.5,460.5C 496.5,460.5 489.5,460.5 482.5,460.5C 482.5,459.167 482.5,457.833 482.5,456.5C 482.608,451.29 483.275,446.29 484.5,441.5 Z"/></g>
<g><path style="opacity:1" fill="#ec5b5b" d="M 400.5,441.5 C 402.335,444.842 403.502,448.509 404,452.5C 404.383,453.056 404.883,453.389 405.5,453.5C 405.263,454.791 405.596,455.791 406.5,456.5C 406.5,457.833 406.5,459.167 406.5,460.5C 403.5,460.5 400.5,460.5 397.5,460.5C 397.5,454.167 397.5,447.833 397.5,441.5C 398.5,441.5 399.5,441.5 400.5,441.5 Z"/></g>
<g><path style="opacity:1" fill="#fab750" d="M 507.5,457.5 C 507.232,455.901 507.566,454.568 508.5,453.5C 509.117,453.389 509.617,453.056 510,452.5C 510.145,448.963 510.978,445.629 512.5,442.5C 512.586,448.379 512.919,454.379 513.5,460.5C 511.5,460.5 509.5,460.5 507.5,460.5C 507.5,459.5 507.5,458.5 507.5,457.5 Z"/></g>
<g><path style="opacity:1" fill="#a1bcc3" d="M 444.5,440.5 C 443.167,447.5 443.167,454.5 444.5,461.5C 443.5,461.5 442.5,461.5 441.5,461.5C 441.5,455.167 441.5,448.833 441.5,442.5C 441.821,440.952 442.821,440.285 444.5,440.5 Z"/></g>
<g><path style="opacity:1" fill="#ea5b5b" d="M 427.5,441.5 C 429.402,444.337 430.069,447.671 429.5,451.5C 430.299,454.43 430.632,457.43 430.5,460.5C 423.833,460.5 417.167,460.5 410.5,460.5C 409.213,457.594 408.213,454.594 407.5,451.5C 406.545,449.254 405.878,446.921 405.5,444.5C 405.5,443.5 405.5,442.5 405.5,441.5C 412.833,441.5 420.167,441.5 427.5,441.5 Z"/></g>
<g><path style="opacity:1" fill="#63dce9" d="M 514.5,440.5 C 520.833,440.5 527.167,440.5 533.5,440.5C 531.291,447.255 528.791,453.922 526,460.5C 522.27,461.46 518.437,461.793 514.5,461.5C 515.833,454.5 515.833,447.5 514.5,440.5 Z"/></g>
<g><path style="opacity:1" fill="#ec5a59" d="M 431.5,441.5 C 434.939,441.253 438.272,441.586 441.5,442.5C 441.5,448.833 441.5,455.167 441.5,461.5C 435.073,463.238 432.406,460.905 433.5,454.5C 433.073,451.99 432.407,449.657 431.5,447.5C 431.5,445.5 431.5,443.5 431.5,441.5 Z"/></g>
<g><path style="opacity:1" fill="#dcb873" d="M 514.5,440.5 C 515.833,447.5 515.833,454.5 514.5,461.5C 511.615,461.806 508.948,461.473 506.5,460.5C 506.263,459.209 506.596,458.209 507.5,457.5C 507.5,458.5 507.5,459.5 507.5,460.5C 509.5,460.5 511.5,460.5 513.5,460.5C 512.919,454.379 512.586,448.379 512.5,442.5C 510.978,445.629 510.145,448.963 510,452.5C 509.617,453.056 509.117,453.389 508.5,453.5C 509.01,449.44 509.844,445.44 511,441.5C 512.011,440.663 513.178,440.33 514.5,440.5 Z"/></g>
<g><path style="opacity:1" fill="#5fdbe9" d="M 384.5,449.5 C 383.833,447.167 383.167,444.833 382.5,442.5C 383.209,441.596 384.209,441.263 385.5,441.5C 385.806,444.385 385.473,447.052 384.5,449.5 Z"/></g>
<g><path style="opacity:1" fill="#feb74c" d="M 507.5,442.5 C 507.5,442.833 507.5,443.167 507.5,443.5C 505.33,448.363 503.663,453.53 502.5,459C 496.175,459.5 489.842,459.666 483.5,459.5C 484.22,453.862 484.553,448.196 484.5,442.5C 492.167,442.5 499.833,442.5 507.5,442.5 Z"/></g>
<g><path style="opacity:1" fill="#e1b161" d="M 480.5,440.5 C 481.05,447.312 480.383,453.979 478.5,460.5C 478.303,454.455 478.637,448.455 479.5,442.5C 472.5,442.5 465.5,442.5 458.5,442.5C 458.5,448.5 458.5,454.5 458.5,460.5C 457.51,454.355 457.177,448.022 457.5,441.5C 464.982,440.508 472.648,440.175 480.5,440.5 Z"/></g>
<g><path style="opacity:1" fill="#feb74c" d="M 478.5,460.5 C 471.833,460.5 465.167,460.5 458.5,460.5C 458.5,454.5 458.5,448.5 458.5,442.5C 465.5,442.5 472.5,442.5 479.5,442.5C 478.637,448.455 478.303,454.455 478.5,460.5 Z"/></g>
<g><path style="opacity:1" fill="#cdab6a" d="M 444.5,440.5 C 447.713,440.19 450.713,440.523 453.5,441.5C 454.49,447.645 454.823,453.978 454.5,460.5C 451.375,461.479 448.042,461.813 444.5,461.5C 443.167,454.5 443.167,447.5 444.5,440.5 Z"/></g>
<g><path style="opacity:1" fill="#feb84e" d="M 453.5,441.5 C 453.5,447.833 453.5,454.167 453.5,460.5C 450.881,460.768 448.381,460.435 446,459.5C 445.501,453.843 445.334,448.176 445.5,442.5C 448.237,442.599 450.904,442.265 453.5,441.5 Z"/></g>
<g><path style="opacity:1" fill="#fbfaf9" d="M 396.5,441.5 C 396.5,448.167 396.5,454.833 396.5,461.5C 393.941,461.802 391.607,461.468 389.5,460.5C 389.5,454.167 389.5,447.833 389.5,441.5C 391.833,441.5 394.167,441.5 396.5,441.5 Z"/></g>
<g><path style="opacity:1" fill="#90b2b7" d="M 389.5,440.5 C 391.833,440.5 394.167,440.5 396.5,440.5C 396.5,440.833 396.5,441.167 396.5,441.5C 394.167,441.5 391.833,441.5 389.5,441.5C 389.5,447.833 389.5,454.167 389.5,460.5C 388.566,459.432 388.232,458.099 388.5,456.5C 388.179,450.974 388.512,445.64 389.5,440.5 Z"/></g>
<g><path style="opacity:1" fill="#1e6977" d="M 389.5,438.5 C 389.5,439.167 389.5,439.833 389.5,440.5C 388.512,445.64 388.179,450.974 388.5,456.5C 386.805,454.465 385.472,452.132 384.5,449.5C 385.473,447.052 385.806,444.385 385.5,441.5C 384.209,441.263 383.209,441.596 382.5,442.5C 381.957,442.44 381.624,442.107 381.5,441.5C 383.332,440.943 384.665,439.943 385.5,438.5C 387.495,426.599 388.828,426.599 389.5,438.5 Z"/></g>
<g><path style="opacity:1" fill="#b29865" d="M 484.5,441.5 C 484.5,441.167 484.5,440.833 484.5,440.5C 491.833,440.5 499.167,440.5 506.5,440.5C 508.424,440.711 508.757,441.377 507.5,442.5C 500.018,441.508 492.352,441.175 484.5,441.5 Z"/></g>
<g><path style="opacity:1" fill="#965b63" d="M 427.5,440.5 C 427.5,440.833 427.5,441.167 427.5,441.5C 420.167,441.5 412.833,441.5 405.5,441.5C 405.5,442.5 405.5,443.5 405.5,444.5C 404.046,443.48 403.713,442.313 404.5,441C 412.159,440.5 419.826,440.334 427.5,440.5 Z"/></g>
<g><path style="opacity:1" fill="#37372c" d="M 454.5,421.5 C 455.167,421.5 455.833,421.5 456.5,421.5C 456.179,427.026 456.512,432.36 457.5,437.5C 464.982,438.492 472.648,438.825 480.5,438.5C 480.5,439.167 480.5,439.833 480.5,440.5C 472.648,440.175 464.982,440.508 457.5,441.5C 456.51,447.645 456.177,453.978 456.5,460.5C 455.833,460.5 455.167,460.5 454.5,460.5C 454.823,453.978 454.49,447.645 453.5,441.5C 450.713,440.523 447.713,440.19 444.5,440.5C 444.5,439.833 444.5,439.167 444.5,438.5C 447.713,438.81 450.713,438.477 453.5,437.5C 454.488,432.36 454.821,427.026 454.5,421.5 Z"/></g>
<g><path style="opacity:1" fill="#383320" d="M 484.5,438.5 C 492.5,438.5 500.5,438.5 508.5,438.5C 507.833,439.167 507.167,439.833 506.5,440.5C 499.167,440.5 491.833,440.5 484.5,440.5C 484.5,439.833 484.5,439.167 484.5,438.5 Z"/></g>
<g><path style="opacity:1" fill="#63444e" d="M 430.5,437.5 C 434.167,437.5 437.833,437.5 441.5,437.5C 442.209,438.404 443.209,438.737 444.5,438.5C 444.5,439.167 444.5,439.833 444.5,440.5C 442.821,440.285 441.821,440.952 441.5,442.5C 438.272,441.586 434.939,441.253 431.5,441.5C 431.567,440.041 431.234,438.708 430.5,437.5 Z"/></g>
<g><path style="opacity:1" fill="#b89e67" d="M 485.5,429.5 C 485.5,432.167 485.5,434.833 485.5,437.5C 493.167,437.5 500.833,437.5 508.5,437.5C 508.5,437.833 508.5,438.167 508.5,438.5C 500.5,438.5 492.5,438.5 484.5,438.5C 484.19,435.287 484.523,432.287 485.5,429.5 Z"/></g>
<g><path style="opacity:1" fill="#4b404a" d="M 399.5,428.5 C 399.833,428.5 400.167,428.5 400.5,428.5C 401.578,431.402 402.244,434.402 402.5,437.5C 410.833,437.5 419.167,437.5 427.5,437.5C 426.167,438.5 426.167,439.5 427.5,440.5C 419.826,440.334 412.159,440.5 404.5,441C 403.713,442.313 404.046,443.48 405.5,444.5C 405.878,446.921 406.545,449.254 407.5,451.5C 405.797,450.34 405.131,451.007 405.5,453.5C 404.883,453.389 404.383,453.056 404,452.5C 403.502,448.509 402.335,444.842 400.5,441.5C 399.432,440.566 398.099,440.232 396.5,440.5C 394.167,440.5 391.833,440.5 389.5,440.5C 389.5,439.833 389.5,439.167 389.5,438.5C 391.833,438.5 394.167,438.5 396.5,438.5C 397.5,438.5 398.5,438.5 399.5,438.5C 399.606,435.921 398.939,433.588 397.5,431.5C 399.048,431.179 399.715,430.179 399.5,428.5 Z"/></g>
<g><path style="opacity:1" fill="#c96f71" d="M 396.5,430.5 C 397.167,430.5 397.5,430.833 397.5,431.5C 398.939,433.588 399.606,435.921 399.5,438.5C 398.5,438.5 397.5,438.5 396.5,438.5C 396.5,438.167 396.5,437.833 396.5,437.5C 396.5,435.167 396.5,432.833 396.5,430.5 Z"/></g>
<g><path style="opacity:1" fill="#feb84e" d="M 453.5,437.5 C 450.904,436.735 448.237,436.401 445.5,436.5C 445.5,431.833 445.5,427.167 445.5,422.5C 448.127,421.908 450.794,421.575 453.5,421.5C 453.5,426.833 453.5,432.167 453.5,437.5 Z"/></g>
<g><path style="opacity:1" fill="#1c404c" d="M 429.5,431.5 C 429.205,433.735 429.539,435.735 430.5,437.5C 431.234,438.708 431.567,440.041 431.5,441.5C 431.5,443.5 431.5,445.5 431.5,447.5C 431.843,449.483 431.176,450.817 429.5,451.5C 430.069,447.671 429.402,444.337 427.5,441.5C 427.5,441.167 427.5,440.833 427.5,440.5C 426.167,439.5 426.167,438.5 427.5,437.5C 427.5,436.833 427.5,436.167 427.5,435.5C 427.337,433.143 427.503,430.81 428,428.5C 428.232,429.737 428.732,430.737 429.5,431.5 Z"/></g>
<g><path style="opacity:1" fill="#cbbc88" d="M 514.5,426.5 C 515.791,430.399 515.791,434.399 514.5,438.5C 513.5,438.5 512.5,438.5 511.5,438.5C 512.213,434.313 513.213,430.313 514.5,426.5 Z"/></g>
<g><path style="opacity:1" fill="#2fb2c0" d="M 375.5,424.5 C 380.167,424.5 384.833,424.5 389.5,424.5C 389.5,428.833 389.5,433.167 389.5,437.5C 391.833,437.5 394.167,437.5 396.5,437.5C 396.5,437.833 396.5,438.167 396.5,438.5C 394.167,438.5 391.833,438.5 389.5,438.5C 388.828,426.599 387.495,426.599 385.5,438.5C 383.533,438.739 381.699,438.406 380,437.5C 378.577,433.061 377.077,428.728 375.5,424.5 Z"/></g>
<g><path style="opacity:1" fill="#fdb84f" d="M 511.5,424.5 C 511.489,429.17 510.489,433.503 508.5,437.5C 500.833,437.5 493.167,437.5 485.5,437.5C 485.5,434.833 485.5,432.167 485.5,429.5C 485.5,428.5 485.5,427.5 485.5,426.5C 486.451,425.081 486.784,423.415 486.5,421.5C 494.833,421.5 503.167,421.5 511.5,421.5C 511.5,422.5 511.5,423.5 511.5,424.5 Z"/></g>
<g><path style="opacity:1" fill="#ee5959" d="M 425.5,432.5 C 426.167,433.5 426.833,434.5 427.5,435.5C 427.5,436.167 427.5,436.833 427.5,437.5C 419.167,437.5 410.833,437.5 402.5,437.5C 402.244,434.402 401.578,431.402 400.5,428.5C 400.822,426.278 400.155,424.444 398.5,423C 407.16,422.5 415.827,422.334 424.5,422.5C 424.187,426.042 424.521,429.375 425.5,432.5 Z"/></g>
<g><path style="opacity:1" fill="#f8b650" d="M 482.5,426.5 C 482.665,430.182 482.499,433.848 482,437.5C 481.617,438.056 481.117,438.389 480.5,438.5C 472.648,438.825 464.982,438.492 457.5,437.5C 457.195,432.238 457.529,427.072 458.5,422C 466.493,421.5 474.493,421.334 482.5,421.5C 482.5,423.167 482.5,424.833 482.5,426.5 Z"/></g>
<g><path style="opacity:1" fill="#eb5b5a" d="M 441.5,421.5 C 441.5,426.833 441.5,432.167 441.5,437.5C 437.833,437.5 434.167,437.5 430.5,437.5C 429.539,435.735 429.205,433.735 429.5,431.5C 428.949,428.193 428.616,424.86 428.5,421.5C 432.833,421.5 437.167,421.5 441.5,421.5 Z"/></g>
<g><path style="opacity:1" fill="#f5fafb" d="M 433.5,486.5 C 433.813,490.042 433.479,493.375 432.5,496.5C 419.788,497.146 407.455,496.48 395.5,494.5C 396.008,492.135 396.675,489.801 397.5,487.5C 409.482,486.501 421.482,486.168 433.5,486.5 Z"/></g>
<g><path style="opacity:1" fill="#d4696c" d="M 206.5,435.5 C 206.5,436.167 206.5,436.833 206.5,437.5C 206.5,456.5 206.5,475.5 206.5,494.5C 228.5,494.5 250.5,494.5 272.5,494.5C 273.209,495.404 274.209,495.737 275.5,495.5C 252.339,496.498 229.006,496.831 205.5,496.5C 205.17,475.993 205.503,455.66 206.5,435.5 Z"/></g>
<g><path style="opacity:1" fill="#087180" d="M 167.5,496.5 C 170.833,496.5 174.167,496.5 177.5,496.5C 176,505.176 174.666,513.843 173.5,522.5C 170.676,520.2 168.843,517.2 168,513.5C 167.501,507.843 167.334,502.176 167.5,496.5 Z"/></g>
<g><path style="opacity:1" fill="#047282" d="M 385.5,458.5 C 386.789,461.76 388.122,465.094 389.5,468.5C 388.167,477.833 388.167,487.167 389.5,496.5C 390.091,497.151 390.757,497.818 391.5,498.5C 387.673,510.149 384.006,521.816 380.5,533.5C 317.499,533.667 254.499,533.5 191.5,533C 187.222,532.689 183.222,531.523 179.5,529.5C 182.401,517.717 185.401,506.05 188.5,494.5C 193.735,496.45 199.402,497.117 205.5,496.5C 229.006,496.831 252.339,496.498 275.5,495.5C 275.833,495.5 276.167,495.5 276.5,495.5C 289.99,496.496 303.656,496.829 317.5,496.5C 340.167,496.5 362.833,496.5 385.5,496.5C 385.5,483.833 385.5,471.167 385.5,458.5 Z"/></g>
<g><path style="opacity:1" fill="#047282" d="M 395.5,494.5 C 407.455,496.48 419.788,497.146 432.5,496.5C 432.666,501.511 432.499,506.511 432,511.5C 430.321,521.343 424.821,528.01 415.5,531.5C 414.234,532.09 412.901,532.59 411.5,533C 402.173,533.5 392.839,533.666 383.5,533.5C 387.321,521.217 390.988,508.884 394.5,496.5C 394.328,495.508 394.662,494.842 395.5,494.5 Z"/></g>
<g><path style="opacity:1" fill="#02b2c1" d="M 294.5,505.5 C 304.535,505.032 308.702,509.698 307,519.5C 301.082,527.41 295.082,527.41 289,519.5C 287.268,513.314 289.101,508.647 294.5,505.5 Z"/></g>
<g><path style="opacity:1" fill="#33a6b3" d="M 326.5,509.5 C 330.833,509.5 335.167,509.5 339.5,509.5C 339.5,510.5 339.5,511.5 339.5,512.5C 335.167,512.5 330.833,512.5 326.5,512.5C 326.5,511.5 326.5,510.5 326.5,509.5 Z"/></g>
<g><path style="opacity:1" fill="#42b8c5" d="M 326.5,514.5 C 330.884,514.174 335.217,514.508 339.5,515.5C 337.333,515.833 335.167,516.167 333,516.5C 330.39,516.467 328.223,515.8 326.5,514.5 Z"/></g>
<g><path style="opacity:1" fill="#5ad2e0" d="M 255.5,508.5 C 259.75,509.272 264.083,509.772 268.5,510C 272.482,513.048 272.482,516.048 268.5,519C 263.136,519.829 257.802,519.663 252.5,518.5C 258.052,517.812 263.552,517.146 269,516.5C 269.72,514.888 269.554,513.388 268.5,512C 264.251,511.003 260.251,511.503 256.5,513.5C 255.069,513.023 253.736,512.357 252.5,511.5C 253.77,510.712 254.77,509.712 255.5,508.5 Z"/></g>
<g><path style="opacity:1" fill="#51c1cf" d="M 326.5,518.5 C 330.884,518.174 335.217,518.508 339.5,519.5C 337.333,519.833 335.167,520.167 333,520.5C 330.39,520.467 328.223,519.8 326.5,518.5 Z"/></g>
<g><path style="opacity:1" fill="#0291a1" d="M 415.5,531.5 C 416.568,532.434 417.901,532.768 419.5,532.5C 423.057,533.8 426.724,535.133 430.5,536.5C 433.329,539.159 436.329,541.659 439.5,544C 472.669,544.168 505.669,544.668 538.5,545.5C 485.496,545.833 432.496,545.5 379.5,544.5C 380.842,540.805 382.175,537.138 383.5,533.5C 392.839,533.666 402.173,533.5 411.5,533C 412.901,532.59 414.234,532.09 415.5,531.5 Z"/></g>
<g><path style="opacity:1" fill="#06b3c2" d="M 127.5,531.5 C 141.99,532.496 156.657,532.829 171.5,532.5C 171.721,535.279 171.388,537.946 170.5,540.5C 165.522,543.046 161.022,546.379 157,550.5C 148.038,561.962 138.538,572.962 128.5,583.5C 119.5,583.5 110.5,583.5 101.5,583.5C 109.514,576.573 118.681,571.573 129,568.5C 130.791,567.368 130.625,566.368 128.5,565.5C 126.173,565.335 124.007,564.669 122,563.5C 121.453,555.106 121.953,546.772 123.5,538.5C 124.596,535.968 125.929,533.635 127.5,531.5 Z"/></g>
<g><path style="opacity:1" fill="#03b3c2" d="M 419.5,532.5 C 488.167,532.5 556.833,532.5 625.5,532.5C 625.5,549.5 625.5,566.5 625.5,583.5C 594.167,583.5 562.833,583.5 531.5,583.5C 526.916,580.376 521.916,578.042 516.5,576.5C 526.763,569.595 527.097,562.261 517.5,554.5C 517.5,552.167 517.5,549.833 517.5,547.5C 524.913,548.128 531.913,547.461 538.5,545.5C 505.669,544.668 472.669,544.168 439.5,544C 436.329,541.659 433.329,539.159 430.5,536.5C 426.724,535.133 423.057,533.8 419.5,532.5 Z"/></g>
<g><path style="opacity:1" fill="#0494a3" d="M 179.5,529.5 C 183.222,531.523 187.222,532.689 191.5,533C 254.499,533.5 317.499,533.667 380.5,533.5C 379.575,537.942 378.242,542.275 376.5,546.5C 384.833,547.167 393.167,547.833 401.5,548.5C 402.559,550.534 403.559,552.534 404.5,554.5C 399.364,556.316 397.031,559.982 397.5,565.5C 399.174,575.994 404.841,578.828 414.5,574C 420.49,566.422 419.49,559.922 411.5,554.5C 411.5,552.167 411.5,549.833 411.5,547.5C 443.671,547.168 475.671,547.502 507.5,548.5C 486.156,548.167 464.823,548.5 443.5,549.5C 454.593,560.255 464.927,571.588 474.5,583.5C 359.167,583.5 243.833,583.5 128.5,583.5C 138.538,572.962 148.038,561.962 157,550.5C 161.022,546.379 165.522,543.046 170.5,540.5C 170.261,544.842 169.927,549.176 169.5,553.5C 168.053,554.134 167.387,555.301 167.5,557C 167.684,558.376 168.351,559.209 169.5,559.5C 172.553,562.192 175.886,564.525 179.5,566.5C 184.015,567.812 188.682,567.812 193.5,566.5C 191.978,565.438 190.312,564.771 188.5,564.5C 181.745,561.736 177.412,556.736 175.5,549.5C 176.517,542.767 177.85,536.101 179.5,529.5 Z"/></g>
<g><path style="opacity:1" fill="#03b3c2" d="M -0.5,532.5 C 39.1667,532.5 78.8333,532.5 118.5,532.5C 118.483,534.565 118.15,536.565 117.5,538.5C 116.833,538.5 116.5,538.833 116.5,539.5C 113.721,540.056 112.054,541.722 111.5,544.5C 112.341,548.335 113.341,552.002 114.5,555.5C 115.159,558.455 115.492,561.455 115.5,564.5C 115.67,565.822 115.337,566.989 114.5,568C 102.163,571.666 89.8299,575.166 77.5,578.5C 77.5,580.167 77.5,581.833 77.5,583.5C 51.5,583.5 25.5,583.5 -0.5,583.5C -0.5,566.5 -0.5,549.5 -0.5,532.5 Z"/></g>
<g><path style="opacity:1" fill="#054251" d="M 393.5,494.5 C 393.328,495.492 393.662,496.158 394.5,496.5C 390.988,508.884 387.321,521.217 383.5,533.5C 382.175,537.138 380.842,540.805 379.5,544.5C 432.496,545.5 485.496,545.833 538.5,545.5C 531.913,547.461 524.913,548.128 517.5,547.5C 517.5,549.833 517.5,552.167 517.5,554.5C 515.167,554.5 512.833,554.5 510.5,554.5C 509.5,552.5 508.5,550.5 507.5,548.5C 475.671,547.502 443.671,547.168 411.5,547.5C 411.5,549.833 411.5,552.167 411.5,554.5C 409.167,554.5 406.833,554.5 404.5,554.5C 403.559,552.534 402.559,550.534 401.5,548.5C 393.167,547.833 384.833,547.167 376.5,546.5C 378.242,542.275 379.575,537.942 380.5,533.5C 384.006,521.816 387.673,510.149 391.5,498.5C 390.757,497.818 390.091,497.151 389.5,496.5C 391.199,496.473 392.533,495.806 393.5,494.5 Z"/></g>
<g><path style="opacity:1" fill="#09b3c2" d="M 507.5,548.5 C 508.5,550.5 509.5,552.5 510.5,554.5C 502.129,559.056 500.462,565.389 505.5,573.5C 505.5,574.5 505.5,575.5 505.5,576.5C 506.873,576.343 508.207,576.51 509.5,577C 510.406,579.221 511.406,581.388 512.5,583.5C 499.833,583.5 487.167,583.5 474.5,583.5C 464.927,571.588 454.593,560.255 443.5,549.5C 464.823,548.5 486.156,548.167 507.5,548.5 Z"/></g>
<g><path style="opacity:1" fill="#e85e5e" d="M 175.5,549.5 C 177.412,556.736 181.745,561.736 188.5,564.5C 186.012,566.388 183.012,567.055 179.5,566.5C 175.886,564.525 172.553,562.192 169.5,559.5C 168.359,557.549 168.359,555.549 169.5,553.5C 171.518,552.141 173.518,550.807 175.5,549.5 Z"/></g>
<g><path style="opacity:1" fill="#f05858" d="M 116.5,539.5 C 118.5,539.5 120.5,539.5 122.5,539.5C 121.281,546.119 120.281,552.785 119.5,559.5C 118.833,560.5 118.167,561.5 117.5,562.5C 116.868,559.898 115.868,557.564 114.5,555.5C 113.341,552.002 112.341,548.335 111.5,544.5C 112.054,541.722 113.721,540.056 116.5,539.5 Z"/></g>
<g><path style="opacity:1" fill="#a47f83" d="M 169.5,553.5 C 168.359,555.549 168.359,557.549 169.5,559.5C 168.351,559.209 167.684,558.376 167.5,557C 167.387,555.301 168.053,554.134 169.5,553.5 Z"/></g>
<g><path style="opacity:1" fill="#fbb952" d="M 404.5,554.5 C 406.833,554.5 409.167,554.5 411.5,554.5C 419.49,559.922 420.49,566.422 414.5,574C 404.841,578.828 399.174,575.994 397.5,565.5C 397.031,559.982 399.364,556.316 404.5,554.5 Z"/></g>
<g><path style="opacity:1" fill="#fab953" d="M 510.5,554.5 C 512.833,554.5 515.167,554.5 517.5,554.5C 527.097,562.261 526.763,569.595 516.5,576.5C 512.393,576.877 508.726,575.877 505.5,573.5C 500.462,565.389 502.129,559.056 510.5,554.5 Z"/></g>
<g><path style="opacity:1" fill="#df6766" d="M 116.5,539.5 C 116.5,538.833 116.833,538.5 117.5,538.5C 119.5,538.5 121.5,538.5 123.5,538.5C 121.953,546.772 121.453,555.106 122,563.5C 124.007,564.669 126.173,565.335 128.5,565.5C 127.129,566.787 125.295,567.453 123,567.5C 121.167,567.167 119.333,566.833 117.5,566.5C 117.145,565.478 116.478,564.811 115.5,564.5C 115.492,561.455 115.159,558.455 114.5,555.5C 115.868,557.564 116.868,559.898 117.5,562.5C 118.167,561.5 118.833,560.5 119.5,559.5C 120.281,552.785 121.281,546.119 122.5,539.5C 120.5,539.5 118.5,539.5 116.5,539.5 Z"/></g>
<g><path style="opacity:1" fill="#d17475" d="M 188.5,564.5 C 190.312,564.771 191.978,565.438 193.5,566.5C 188.682,567.812 184.015,567.812 179.5,566.5C 183.012,567.055 186.012,566.388 188.5,564.5 Z"/></g>
<g><path style="opacity:1" fill="#0b95a5" d="M 115.5,564.5 C 116.478,564.811 117.145,565.478 117.5,566.5C 119.333,566.833 121.167,567.167 123,567.5C 125.295,567.453 127.129,566.787 128.5,565.5C 130.625,566.368 130.791,567.368 129,568.5C 118.681,571.573 109.514,576.573 101.5,583.5C 93.5,583.5 85.5,583.5 77.5,583.5C 77.5,581.833 77.5,580.167 77.5,578.5C 89.8299,575.166 102.163,571.666 114.5,568C 115.337,566.989 115.67,565.822 115.5,564.5 Z"/></g>
<g><path style="opacity:1" fill="#1895a4" d="M 505.5,573.5 C 508.726,575.877 512.393,576.877 516.5,576.5C 521.916,578.042 526.916,580.376 531.5,583.5C 525.167,583.5 518.833,583.5 512.5,583.5C 511.406,581.388 510.406,579.221 509.5,577C 508.207,576.51 506.873,576.343 505.5,576.5C 505.5,575.5 505.5,574.5 505.5,573.5 Z"/></g>
</svg>
