<?xml version="1.0" encoding="UTF-8"?>
<!DOCTYPE svg PUBLIC "-//W3C//DTD SVG 1.1//EN" "http://www.w3.org/Graphics/SVG/1.1/DTD/svg11.dtd">
<svg xmlns="http://www.w3.org/2000/svg" version="1.1" width="589px" height="395px" style="shape-rendering:geometricPrecision; text-rendering:geometricPrecision; image-rendering:optimizeQuality; fill-rule:evenodd; clip-rule:evenodd" xmlns:xlink="http://www.w3.org/1999/xlink">
<g><path style="opacity:1" fill="#77dee6" d="M -0.5,-0.5 C 108.833,-0.5 218.167,-0.5 327.5,-0.5C 327.5,24.8333 327.5,50.1667 327.5,75.5C 323.167,75.5 318.833,75.5 314.5,75.5C 314.5,78.1667 314.5,80.8333 314.5,83.5C 312.167,83.5 309.833,83.5 307.5,83.5C 307.5,80.8333 307.5,78.1667 307.5,75.5C 303.833,75.5 300.167,75.5 296.5,75.5C 296.5,85.8333 296.5,96.1667 296.5,106.5C 290.167,106.5 283.833,106.5 277.5,106.5C 277.5,99.8333 277.5,93.1667 277.5,86.5C 271.167,86.5 264.833,86.5 258.5,86.5C 258.5,83.5 258.5,80.5 258.5,77.5C 255.167,77.5 251.833,77.5 248.5,77.5C 248.5,79.8333 248.5,82.1667 248.5,84.5C 235.5,84.5 222.5,84.5 209.5,84.5C 209.5,81.5 209.5,78.5 209.5,75.5C 201.833,75.5 194.167,75.5 186.5,75.5C 186.5,83.1667 186.5,90.8333 186.5,98.5C 181.5,98.5 176.5,98.5 171.5,98.5C 171.5,91.8333 171.5,85.1667 171.5,78.5C 168.167,78.5 164.833,78.5 161.5,78.5C 161.5,82.5 161.5,86.5 161.5,90.5C 158.5,90.5 155.5,90.5 152.5,90.5C 152.5,81.5 152.5,72.5 152.5,63.5C 149.833,63.5 147.167,63.5 144.5,63.5C 144.167,58.1667 143.833,58.1667 143.5,63.5C 142.5,63.5 141.5,63.5 140.5,63.5C 140.127,54.256 139.127,54.256 137.5,63.5C 136.502,72.4754 136.168,81.4754 136.5,90.5C 132.167,90.5 127.833,90.5 123.5,90.5C 123.5,85.8333 123.5,81.1667 123.5,76.5C 122.167,76.5 120.833,76.5 119.5,76.5C 119.5,73.5 119.5,70.5 119.5,67.5C 118.5,67.5 117.5,67.5 116.5,67.5C 116.5,70.5 116.5,73.5 116.5,76.5C 113.5,76.5 110.5,76.5 107.5,76.5C 107.5,78.8333 107.5,81.1667 107.5,83.5C 104.833,83.5 102.167,83.5 99.5,83.5C 99.5,80.8333 99.5,78.1667 99.5,75.5C 96.1667,75.5 92.8333,75.5 89.5,75.5C 89.5,85.8333 89.5,96.1667 89.5,106.5C 84.5,106.5 79.5,106.5 74.5,106.5C 74.5,100.833 74.5,95.1667 74.5,89.5C 71.9552,89.8495 69.9552,89.0162 68.5,87C 64.8484,86.5014 61.1817,86.3347 57.5,86.5C 57.5,81.1667 57.5,75.8333 57.5,70.5C 54.1667,70.5 50.8333,70.5 47.5,70.5C 47.5,72.8333 47.5,75.1667 47.5,77.5C 45.1667,77.5 42.8333,77.5 40.5,77.5C 40.5,81.8333 40.5,86.1667 40.5,90.5C 38.5,90.5 36.5,90.5 34.5,90.5C 34.8314,81.8078 34.498,73.1411 33.5,64.5C 29.7207,67.1448 26.2207,70.1448 23,73.5C 22.5006,79.1569 22.3339,84.8236 22.5,90.5C 19.5,90.5 16.5,90.5 13.5,90.5C 13.5,85.5 13.5,80.5 13.5,75.5C 8.97249,74.0628 4.30583,73.3961 -0.5,73.5C -0.5,48.8333 -0.5,24.1667 -0.5,-0.5 Z"/></g>
<g><path style="opacity:1" fill="#febd4e" d="M 328.5,-0.5 C 415.167,-0.5 501.833,-0.5 588.5,-0.5C 588.5,75.8333 588.5,152.167 588.5,228.5C 586.072,226.957 583.406,225.957 580.5,225.5C 582.587,213.318 577.587,206.318 565.5,204.5C 562.244,204.919 559.244,205.919 556.5,207.5C 554.79,195.295 547.79,190.462 535.5,193C 531.028,194.972 527.695,198.138 525.5,202.5C 520.762,198.572 515.429,197.572 509.5,199.5C 501.5,199.5 493.5,199.5 485.5,199.5C 485.5,144.167 485.5,88.8333 485.5,33.5C 465.167,33.5 444.833,33.5 424.5,33.5C 400.833,33.5 377.167,33.5 353.5,33.5C 353.5,88.8333 353.5,144.167 353.5,199.5C 345.167,199.5 336.833,199.5 328.5,199.5C 328.5,186.167 328.5,172.833 328.5,159.5C 328.5,157.167 328.5,154.833 328.5,152.5C 328.5,101.5 328.5,50.5 328.5,-0.5 Z"/></g>
<g><path style="opacity:1" fill="#d0eef4" d="M 93.5,19.5 C 100.345,18.2123 105.345,20.5456 108.5,26.5C 113.364,26.6121 117.53,28.2788 121,31.5C 122.009,33.0249 122.509,34.6916 122.5,36.5C 128.268,36.0249 130.935,38.6916 130.5,44.5C 133.568,44.5467 136.568,45.0467 139.5,46C 138.167,46.3333 136.833,46.6667 135.5,47C 111.833,47.6667 88.1667,47.6667 64.5,47C 61.4465,46.8214 58.4465,46.3214 55.5,45.5C 60.1067,44.1814 64.7733,43.1814 69.5,42.5C 69.2527,32.2389 74.086,27.9055 84,29.5C 85.8186,27.8743 87.1519,25.8743 88,23.5C 89.8121,22.0229 91.6455,20.6896 93.5,19.5 Z"/></g>
<g><path style="opacity:1" fill="#fcfcfb" d="M 512.5,33.5 C 531.833,33.5 551.167,33.5 570.5,33.5C 570.5,64.8333 570.5,96.1667 570.5,127.5C 551.167,127.5 531.833,127.5 512.5,127.5C 512.5,96.1667 512.5,64.8333 512.5,33.5 Z"/></g>
<g><path style="opacity:1" fill="#824942" d="M 424.5,34.5 C 424.5,47.1667 424.5,59.8333 424.5,72.5C 422.321,73.6772 419.987,74.6772 417.5,75.5C 417.5,64.5 417.5,53.5 417.5,42.5C 398.5,42.5 379.5,42.5 360.5,42.5C 360.5,64.8333 360.5,87.1667 360.5,109.5C 379.5,109.5 398.5,109.5 417.5,109.5C 417.5,101.833 417.5,94.1667 417.5,86.5C 419.435,85.8505 421.435,85.5172 423.5,85.5C 423.5,98.1667 423.5,110.833 423.5,123.5C 422.193,146.031 422.526,168.697 424.5,191.5C 424.167,192.167 423.833,192.833 423.5,193.5C 420.888,194.371 418.221,195.037 415.5,195.5C 415.5,196.833 415.5,198.167 415.5,199.5C 395.167,199.5 374.833,199.5 354.5,199.5C 354.333,145.166 354.5,90.8323 355,36.5C 355.556,38.5951 356.056,38.7618 356.5,37C 356.095,36.0546 355.428,35.3879 354.5,35C 377.831,34.5 401.164,34.3334 424.5,34.5 Z"/></g>
<g><path style="opacity:1" fill="#b0e9f0" d="M 231.5,38.5 C 237.006,37.3777 241.34,39.0444 244.5,43.5C 249.682,43.5841 253.349,45.9175 255.5,50.5C 260.015,50.7541 262.015,53.0874 261.5,57.5C 263.927,57.523 266.26,58.023 268.5,59C 247.159,59.8331 225.826,59.6664 204.5,58.5C 208.061,57.2393 211.728,56.406 215.5,56C 214.497,48.0059 217.997,44.8392 226,46.5C 227.596,43.6305 229.43,40.9639 231.5,38.5 Z"/></g>
<g><path style="opacity:1" fill="#593835" d="M 424.5,34.5 C 444.5,34.5 464.5,34.5 484.5,34.5C 484.5,89.5 484.5,144.5 484.5,199.5C 472.167,199.5 459.833,199.5 447.5,199.5C 447.5,198.167 447.5,196.833 447.5,195.5C 447.5,194.5 447.5,193.5 447.5,192.5C 447.5,174.5 447.5,156.5 447.5,138.5C 448.931,138.119 449.764,137.119 450,135.5C 451.37,126.687 453.37,118.021 456,109.5C 456.663,104.463 456.496,99.4626 455.5,94.5C 456.953,82.7176 452.286,74.7176 441.5,70.5C 441.263,69.209 441.596,68.209 442.5,67.5C 447.123,63.5682 448.623,58.5682 447,52.5C 442.722,50.4632 438.222,49.1299 433.5,48.5C 433.5,50.1667 433.5,51.8333 433.5,53.5C 432.962,55.1172 432.629,56.7839 432.5,58.5C 431.366,60.9664 431.199,63.633 432,66.5C 432.708,67.3805 433.542,68.0472 434.5,68.5C 434.5,69.1667 434.5,69.8333 434.5,70.5C 431.167,71.1667 427.833,71.8333 424.5,72.5C 424.5,59.8333 424.5,47.1667 424.5,34.5 Z"/></g>
<g><path style="opacity:1" fill="#bcbcbd" d="M 525.5,38.5 C 525.5,66.5 525.5,94.5 525.5,122.5C 522.833,122.5 520.167,122.5 517.5,122.5C 517.5,94.5 517.5,66.5 517.5,38.5C 520.167,38.5 522.833,38.5 525.5,38.5 Z"/></g>
<g><path style="opacity:1" fill="#733c41" d="M 424.5,33.5 C 424.5,33.8333 424.5,34.1667 424.5,34.5C 401.164,34.3334 377.831,34.5 354.5,35C 355.428,35.3879 356.095,36.0546 356.5,37C 356.056,38.7618 355.556,38.5951 355,36.5C 354.5,90.8323 354.333,145.166 354.5,199.5C 354.167,199.5 353.833,199.5 353.5,199.5C 353.5,144.167 353.5,88.8333 353.5,33.5C 377.167,33.5 400.833,33.5 424.5,33.5 Z"/></g>
<g><path style="opacity:1" fill="#90a1a1" d="M 525.5,38.5 C 539.167,38.5 552.833,38.5 566.5,38.5C 566.831,66.6716 566.498,94.6716 565.5,122.5C 565.5,94.8333 565.5,67.1667 565.5,39.5C 552.5,39.5 539.5,39.5 526.5,39.5C 526.5,67.1667 526.5,94.8333 526.5,122.5C 526.167,122.5 525.833,122.5 525.5,122.5C 525.5,94.5 525.5,66.5 525.5,38.5 Z"/></g>
<g><path style="opacity:1" fill="#547272" d="M 565.5,122.5 C 552.5,122.5 539.5,122.5 526.5,122.5C 526.5,94.8333 526.5,67.1667 526.5,39.5C 539.5,39.5 552.5,39.5 565.5,39.5C 565.5,67.1667 565.5,94.8333 565.5,122.5 Z"/></g>
<g><path style="opacity:1" fill="#824842" d="M 416.5,75.5 C 416.5,76.1667 416.167,76.5 415.5,76.5C 412.887,77.4349 410.221,77.6015 407.5,77C 403.341,73.7533 399.008,70.7533 394.5,68C 391.769,65.3741 389.936,62.2074 389,58.5C 388.506,60.1341 388.34,61.8008 388.5,63.5C 386.5,63.5 384.5,63.5 382.5,63.5C 382.5,65.8333 382.5,68.1667 382.5,70.5C 385.568,70.5467 388.568,71.0467 391.5,72C 396.241,77.412 401.574,82.0787 407.5,86C 410.146,86.4974 412.813,86.6641 415.5,86.5C 415.5,93.5 415.5,100.5 415.5,107.5C 397.833,107.5 380.167,107.5 362.5,107.5C 362.5,86.5 362.5,65.5 362.5,44.5C 380.167,44.5 397.833,44.5 415.5,44.5C 415.172,55.0135 415.506,65.3468 416.5,75.5 Z"/></g>
<g><path style="opacity:1" fill="#112c2f" d="M 442.5,67.5 C 442.5,66.8333 442.5,66.1667 442.5,65.5C 442.5,65.1667 442.5,64.8333 442.5,64.5C 443.695,64.1344 444.361,63.301 444.5,62C 443.115,60.4029 442.449,58.5695 442.5,56.5C 439.285,56.0951 436.285,55.0951 433.5,53.5C 433.5,51.8333 433.5,50.1667 433.5,48.5C 438.222,49.1299 442.722,50.4632 447,52.5C 448.623,58.5682 447.123,63.5682 442.5,67.5 Z"/></g>
<g><path style="opacity:1" fill="#462634" d="M 424.5,34.5 C 424.5,34.1667 424.5,33.8333 424.5,33.5C 444.833,33.5 465.167,33.5 485.5,33.5C 485.5,88.8333 485.5,144.167 485.5,199.5C 485.167,199.5 484.833,199.5 484.5,199.5C 484.5,144.5 484.5,89.5 484.5,34.5C 464.5,34.5 444.5,34.5 424.5,34.5 Z"/></g>
<g><path style="opacity:1" fill="#e49477" d="M 433.5,53.5 C 436.285,55.0951 439.285,56.0951 442.5,56.5C 442.449,58.5695 443.115,60.4029 444.5,62C 444.361,63.301 443.695,64.1344 442.5,64.5C 440.841,59.9937 437.508,57.9937 432.5,58.5C 432.629,56.7839 432.962,55.1172 433.5,53.5 Z"/></g>
<g><path style="opacity:1" fill="#65c9d5" d="M 327.5,-0.5 C 327.833,-0.5 328.167,-0.5 328.5,-0.5C 328.5,50.5 328.5,101.5 328.5,152.5C 306.5,152.5 284.5,152.5 262.5,152.5C 254.833,152.5 247.167,152.5 239.5,152.5C 238.99,155.388 239.656,157.721 241.5,159.5C 241.5,190.167 241.5,220.833 241.5,251.5C 235.167,251.5 228.833,251.5 222.5,251.5C 222.489,249.983 221.823,248.816 220.5,248C 216.426,247.886 212.76,246.72 209.5,244.5C 209.279,218.62 206.946,192.953 202.5,167.5C 203.568,161.869 205.235,156.535 207.5,151.5C 209.171,154.254 211.671,155.587 215,155.5C 220.994,154.709 226.828,153.376 232.5,151.5C 243.536,149.129 254.536,147.463 265.5,146.5C 265.5,140.167 265.5,133.833 265.5,127.5C 251.167,127.5 236.833,127.5 222.5,127.5C 222.5,133.5 222.5,139.5 222.5,145.5C 220.833,145.5 219.167,145.5 217.5,145.5C 214.498,142.839 212.498,139.505 211.5,135.5C 209.473,128.723 207.139,122.057 204.5,115.5C 205.728,114.694 206.728,113.694 207.5,112.5C 212.284,112.892 215.284,110.725 216.5,106C 216.192,104.541 215.525,103.374 214.5,102.5C 214.5,100.833 214.5,99.1667 214.5,97.5C 222.483,96.6481 222.483,95.4815 214.5,94C 208.487,85.5549 202.321,85.3882 196,93.5C 195.199,96.367 195.366,99.0336 196.5,101.5C 197.167,104.167 197.833,106.833 198.5,109.5C 198.5,110.5 198.5,111.5 198.5,112.5C 193.178,114.324 189.678,117.991 188,123.5C 186.166,135.836 184.333,148.17 182.5,160.5C 181.71,161.609 181.21,162.942 181,164.5C 180.741,172.867 180.241,181.2 179.5,189.5C 176.933,188.525 174.267,187.858 171.5,187.5C 167.347,180.723 162.347,174.556 156.5,169C 154.192,167.133 151.525,166.133 148.5,166C 151.166,164.939 153.833,164.106 156.5,163.5C 157.607,159.729 156.94,156.063 154.5,152.5C 154.043,151.702 153.376,151.369 152.5,151.5C 149.269,150.218 145.936,150.218 142.5,151.5C 142.5,149.833 142.5,148.167 142.5,146.5C 143.993,145.688 144.66,144.355 144.5,142.5C 144.272,140.793 143.938,139.126 143.5,137.5C 142.538,135.014 141.705,135.014 141,137.5C 140.608,140.188 140.108,142.855 139.5,145.5C 141.439,148.305 141.439,151.305 139.5,154.5C 136.328,155.331 134.662,157.331 134.5,160.5C 133.5,160.5 132.5,160.5 131.5,160.5C 131.5,161.5 131.5,162.5 131.5,163.5C 132.93,163.579 134.264,163.246 135.5,162.5C 137.131,165.596 139.131,168.43 141.5,171C 141.043,171.414 140.709,171.914 140.5,172.5C 143.197,181.313 144.03,190.313 143,199.5C 140.789,207.701 138.289,215.701 135.5,223.5C 131.5,223.5 127.5,223.5 123.5,223.5C 117.19,213.925 115.524,203.591 118.5,192.5C 119.467,191.194 120.801,190.527 122.5,190.5C 122.768,187.881 122.435,185.381 121.5,183C 108.377,184.06 95.8766,181.894 84,176.5C 83.0979,176.743 82.2646,177.077 81.5,177.5C 81.5,164.833 81.5,152.167 81.5,139.5C 82.4614,137.735 82.7947,135.735 82.5,133.5C 63.8333,133.5 45.1667,133.5 26.5,133.5C 26.2053,135.735 26.5386,137.735 27.5,139.5C 27.5,152.5 27.5,165.5 27.5,178.5C 45.5,178.5 63.5,178.5 81.5,178.5C 63.3289,179.167 44.9955,179.833 26.5,180.5C 36.8173,181.332 47.1506,181.832 57.5,182C 58.2524,182.671 58.5858,183.504 58.5,184.5C 56.1489,186.07 53.4823,186.903 50.5,187C 48.9632,188.11 48.2965,189.61 48.5,191.5C 47.8333,193.167 47.1667,194.833 46.5,196.5C 41.5221,203.465 37.3554,210.799 34,218.5C 37.0657,215.604 39.8991,212.604 42.5,209.5C 42.427,211.027 43.0937,212.027 44.5,212.5C 40.2036,220.409 39.3703,228.743 42,237.5C 45.2282,244.235 50.3949,248.568 57.5,250.5C 38.3405,251.497 19.0072,251.83 -0.5,251.5C -0.5,192.167 -0.5,132.833 -0.5,73.5C 4.30583,73.3961 8.97249,74.0628 13.5,75.5C 13.5,80.5 13.5,85.5 13.5,90.5C 16.5,90.5 19.5,90.5 22.5,90.5C 22.3339,84.8236 22.5006,79.1569 23,73.5C 26.2207,70.1448 29.7207,67.1448 33.5,64.5C 34.498,73.1411 34.8314,81.8078 34.5,90.5C 36.5,90.5 38.5,90.5 40.5,90.5C 40.5,86.1667 40.5,81.8333 40.5,77.5C 42.8333,77.5 45.1667,77.5 47.5,77.5C 47.5,75.1667 47.5,72.8333 47.5,70.5C 50.8333,70.5 54.1667,70.5 57.5,70.5C 57.5,75.8333 57.5,81.1667 57.5,86.5C 61.1817,86.3347 64.8484,86.5014 68.5,87C 69.9552,89.0162 71.9552,89.8495 74.5,89.5C 74.5,95.1667 74.5,100.833 74.5,106.5C 79.5,106.5 84.5,106.5 89.5,106.5C 89.5,96.1667 89.5,85.8333 89.5,75.5C 92.8333,75.5 96.1667,75.5 99.5,75.5C 99.5,78.1667 99.5,80.8333 99.5,83.5C 102.167,83.5 104.833,83.5 107.5,83.5C 107.5,81.1667 107.5,78.8333 107.5,76.5C 110.5,76.5 113.5,76.5 116.5,76.5C 116.5,73.5 116.5,70.5 116.5,67.5C 117.5,67.5 118.5,67.5 119.5,67.5C 119.5,70.5 119.5,73.5 119.5,76.5C 120.833,76.5 122.167,76.5 123.5,76.5C 123.5,81.1667 123.5,85.8333 123.5,90.5C 127.833,90.5 132.167,90.5 136.5,90.5C 136.168,81.4754 136.502,72.4754 137.5,63.5C 139.127,54.256 140.127,54.256 140.5,63.5C 141.5,63.5 142.5,63.5 143.5,63.5C 143.833,58.1667 144.167,58.1667 144.5,63.5C 147.167,63.5 149.833,63.5 152.5,63.5C 152.5,72.5 152.5,81.5 152.5,90.5C 155.5,90.5 158.5,90.5 161.5,90.5C 161.5,86.5 161.5,82.5 161.5,78.5C 164.833,78.5 168.167,78.5 171.5,78.5C 171.5,85.1667 171.5,91.8333 171.5,98.5C 176.5,98.5 181.5,98.5 186.5,98.5C 186.5,90.8333 186.5,83.1667 186.5,75.5C 194.167,75.5 201.833,75.5 209.5,75.5C 209.5,78.5 209.5,81.5 209.5,84.5C 222.5,84.5 235.5,84.5 248.5,84.5C 248.5,82.1667 248.5,79.8333 248.5,77.5C 251.833,77.5 255.167,77.5 258.5,77.5C 258.5,80.5 258.5,83.5 258.5,86.5C 264.833,86.5 271.167,86.5 277.5,86.5C 277.5,93.1667 277.5,99.8333 277.5,106.5C 283.833,106.5 290.167,106.5 296.5,106.5C 296.5,96.1667 296.5,85.8333 296.5,75.5C 300.167,75.5 303.833,75.5 307.5,75.5C 307.5,78.1667 307.5,80.8333 307.5,83.5C 309.833,83.5 312.167,83.5 314.5,83.5C 314.5,80.8333 314.5,78.1667 314.5,75.5C 318.833,75.5 323.167,75.5 327.5,75.5C 327.5,50.1667 327.5,24.8333 327.5,-0.5 Z"/></g>
<g><path style="opacity:1" fill="#9ed7d1" d="M 432.5,58.5 C 437.508,57.9937 440.841,59.9937 442.5,64.5C 442.5,64.8333 442.5,65.1667 442.5,65.5C 440.455,67.9844 437.788,68.9844 434.5,68.5C 433.542,68.0472 432.708,67.3805 432,66.5C 431.199,63.633 431.366,60.9664 432.5,58.5 Z"/></g>
<g><path style="opacity:1" fill="#de9174" d="M 415.5,76.5 C 416.01,79.5394 416.677,82.5394 417.5,85.5C 416.508,85.3284 415.842,85.6618 415.5,86.5C 412.813,86.6641 410.146,86.4974 407.5,86C 401.574,82.0787 396.241,77.412 391.5,72C 388.568,71.0467 385.568,70.5467 382.5,70.5C 382.5,68.1667 382.5,65.8333 382.5,63.5C 384.5,63.5 386.5,63.5 388.5,63.5C 388.34,61.8008 388.506,60.1341 389,58.5C 389.936,62.2074 391.769,65.3741 394.5,68C 399.008,70.7533 403.341,73.7533 407.5,77C 410.221,77.6015 412.887,77.4349 415.5,76.5 Z"/></g>
<g><path style="opacity:1" fill="#e29274" d="M 442.5,65.5 C 442.5,66.1667 442.5,66.8333 442.5,67.5C 441.596,68.209 441.263,69.209 441.5,70.5C 440.31,73.0771 438.31,73.9105 435.5,73C 434.748,72.3292 434.414,71.4959 434.5,70.5C 434.5,69.8333 434.5,69.1667 434.5,68.5C 437.788,68.9844 440.455,67.9844 442.5,65.5 Z"/></g>
<g><path style="opacity:1" fill="#fafafa" d="M 434.5,70.5 C 434.414,71.4959 434.748,72.3292 435.5,73C 438.31,73.9105 440.31,73.0771 441.5,70.5C 452.286,74.7176 456.953,82.7176 455.5,94.5C 453.08,94.2924 450.747,94.6258 448.5,95.5C 447.502,104.81 447.168,114.143 447.5,123.5C 439.413,126.156 431.413,126.156 423.5,123.5C 423.5,110.833 423.5,98.1667 423.5,85.5C 421.435,85.5172 419.435,85.8505 417.5,86.5C 417.5,86.1667 417.5,85.8333 417.5,85.5C 416.677,82.5394 416.01,79.5394 415.5,76.5C 416.167,76.5 416.5,76.1667 416.5,75.5C 416.833,75.5 417.167,75.5 417.5,75.5C 419.987,74.6772 422.321,73.6772 424.5,72.5C 427.833,71.8333 431.167,71.1667 434.5,70.5 Z"/></g>
<g><path style="opacity:1" fill="#d6201c" d="M 214.5,97.5 C 212.716,96.2801 211.05,96.2801 209.5,97.5C 205.426,99.603 201.093,100.936 196.5,101.5C 195.366,99.0336 195.199,96.367 196,93.5C 202.321,85.3882 208.487,85.5549 214.5,94C 222.483,95.4815 222.483,96.6481 214.5,97.5 Z"/></g>
<g><path style="opacity:1" fill="#e98d69" d="M 209.5,97.5 C 211.05,96.2801 212.716,96.2801 214.5,97.5C 214.5,99.1667 214.5,100.833 214.5,102.5C 211.677,103.217 209.01,104.217 206.5,105.5C 206.448,107.903 206.781,110.236 207.5,112.5C 206.728,113.694 205.728,114.694 204.5,115.5C 202.216,115.025 200.216,114.025 198.5,112.5C 198.5,111.5 198.5,110.5 198.5,109.5C 203.437,109.377 205.937,106.711 206,101.5C 207.113,100.289 208.28,100.289 209.5,101.5C 210.23,100.066 211.23,98.8996 212.5,98C 211.552,97.5172 210.552,97.3505 209.5,97.5 Z"/></g>
<g><path style="opacity:1" fill="#cde8e9" d="M 214.5,102.5 C 215.525,103.374 216.192,104.541 216.5,106C 215.284,110.725 212.284,112.892 207.5,112.5C 206.781,110.236 206.448,107.903 206.5,105.5C 209.01,104.217 211.677,103.217 214.5,102.5 Z"/></g>
<g><path style="opacity:1" fill="#1f1f1f" d="M 209.5,97.5 C 210.552,97.3505 211.552,97.5172 212.5,98C 211.23,98.8996 210.23,100.066 209.5,101.5C 208.28,100.289 207.113,100.289 206,101.5C 205.937,106.711 203.437,109.377 198.5,109.5C 197.833,106.833 197.167,104.167 196.5,101.5C 201.093,100.936 205.426,99.603 209.5,97.5 Z"/></g>
<g><path style="opacity:1" fill="#583535" d="M 417.5,75.5 C 417.167,75.5 416.833,75.5 416.5,75.5C 415.506,65.3468 415.172,55.0135 415.5,44.5C 397.833,44.5 380.167,44.5 362.5,44.5C 362.5,65.5 362.5,86.5 362.5,107.5C 380.167,107.5 397.833,107.5 415.5,107.5C 415.5,100.5 415.5,93.5 415.5,86.5C 415.842,85.6618 416.508,85.3284 417.5,85.5C 417.5,85.8333 417.5,86.1667 417.5,86.5C 417.5,94.1667 417.5,101.833 417.5,109.5C 398.5,109.5 379.5,109.5 360.5,109.5C 360.5,87.1667 360.5,64.8333 360.5,42.5C 379.5,42.5 398.5,42.5 417.5,42.5C 417.5,53.5 417.5,64.5 417.5,75.5 Z"/></g>
<g><path style="opacity:1" fill="#ebaa08" d="M 363.5,112.5 C 368.493,112.997 369.493,115.164 366.5,119C 361.148,119.175 360.148,117.009 363.5,112.5 Z"/></g>
<g><path style="opacity:1" fill="#d21f1c" d="M 198.5,112.5 C 200.216,114.025 202.216,115.025 204.5,115.5C 207.139,122.057 209.473,128.723 211.5,135.5C 208.53,136.538 205.863,138.038 203.5,140C 206.112,143.39 207.445,147.224 207.5,151.5C 205.235,156.535 203.568,161.869 202.5,167.5C 196.616,167.446 190.949,166.279 185.5,164C 183.574,163.578 182.574,162.411 182.5,160.5C 184.333,148.17 186.166,135.836 188,123.5C 189.678,117.991 193.178,114.324 198.5,112.5 Z"/></g>
<g><path style="opacity:1" fill="#d88d71" d="M 455.5,94.5 C 456.496,99.4626 456.663,104.463 456,109.5C 453.37,118.021 451.37,126.687 450,135.5C 449.764,137.119 448.931,138.119 447.5,138.5C 445.654,138.778 444.32,138.111 443.5,136.5C 444.265,134.705 444.932,132.872 445.5,131C 445.108,129.989 444.441,129.489 443.5,129.5C 444.526,127.169 445.86,125.169 447.5,123.5C 447.168,114.143 447.502,104.81 448.5,95.5C 450.747,94.6258 453.08,94.2924 455.5,94.5 Z"/></g>
<g><path style="opacity:1" fill="#583535" d="M 360.5,123.5 C 379.5,123.5 398.5,123.5 417.5,123.5C 417.5,145.833 417.5,168.167 417.5,190.5C 398.5,190.5 379.5,190.5 360.5,190.5C 360.5,168.167 360.5,145.833 360.5,123.5 Z"/></g>
<g><path style="opacity:1" fill="#824942" d="M 362.5,125.5 C 380.167,125.5 397.833,125.5 415.5,125.5C 415.5,146.5 415.5,167.5 415.5,188.5C 397.833,188.5 380.167,188.5 362.5,188.5C 362.5,167.5 362.5,146.5 362.5,125.5 Z"/></g>
<g><path style="opacity:1" fill="#2a7676" d="M 423.5,123.5 C 431.413,126.156 439.413,126.156 447.5,123.5C 445.86,125.169 444.526,127.169 443.5,129.5C 444.441,129.489 445.108,129.989 445.5,131C 444.932,132.872 444.265,134.705 443.5,136.5C 444.32,138.111 445.654,138.778 447.5,138.5C 447.5,156.5 447.5,174.5 447.5,192.5C 445.167,192.5 442.833,192.5 440.5,192.5C 438.914,176.812 437.081,161.145 435,145.5C 433.122,160.781 431.955,176.114 431.5,191.5C 429.167,191.5 426.833,191.5 424.5,191.5C 422.526,168.697 422.193,146.031 423.5,123.5 Z"/></g>
<g><path style="opacity:1" fill="#96998f" d="M 265.5,146.5 C 265.167,146.5 264.833,146.5 264.5,146.5C 264.5,145.167 264.5,143.833 264.5,142.5C 252.5,142.167 252.5,141.833 264.5,141.5C 264.5,137.167 264.5,132.833 264.5,128.5C 250.833,128.5 237.167,128.5 223.5,128.5C 223.5,134.5 223.5,140.5 223.5,146.5C 221.265,146.795 219.265,146.461 217.5,145.5C 219.167,145.5 220.833,145.5 222.5,145.5C 222.5,139.5 222.5,133.5 222.5,127.5C 236.833,127.5 251.167,127.5 265.5,127.5C 265.5,133.833 265.5,140.167 265.5,146.5 Z"/></g>
<g><path style="opacity:1" fill="#d63630" d="M 81.5,139.5 C 63.5,139.5 45.5,139.5 27.5,139.5C 26.5386,137.735 26.2053,135.735 26.5,133.5C 45.1667,133.5 63.8333,133.5 82.5,133.5C 82.7947,135.735 82.4614,137.735 81.5,139.5 Z"/></g>
<g><path style="opacity:1" fill="#b97459" d="M 264.5,146.5 C 257.492,146.666 250.492,146.5 243.5,146C 244.672,145.581 245.672,144.915 246.5,144C 241.355,144.398 236.355,145.231 231.5,146.5C 228.833,146.5 226.167,146.5 223.5,146.5C 223.5,140.5 223.5,134.5 223.5,128.5C 237.167,128.5 250.833,128.5 264.5,128.5C 264.5,132.833 264.5,137.167 264.5,141.5C 252.5,141.833 252.5,142.167 264.5,142.5C 264.5,143.833 264.5,145.167 264.5,146.5 Z"/></g>
<g><path style="opacity:1" fill="#db2a26" d="M 143.5,137.5 C 143.938,139.126 144.272,140.793 144.5,142.5C 144.66,144.355 143.993,145.688 142.5,146.5C 141.185,143.373 141.518,140.373 143.5,137.5 Z"/></g>
<g><path style="opacity:1" fill="#f2f8fb" d="M 27.5,139.5 C 45.5,139.5 63.5,139.5 81.5,139.5C 81.5,152.167 81.5,164.833 81.5,177.5C 81.5,177.833 81.5,178.167 81.5,178.5C 63.5,178.5 45.5,178.5 27.5,178.5C 27.5,165.5 27.5,152.5 27.5,139.5 Z"/></g>
<g><path style="opacity:1" fill="#29838b" d="M 264.5,146.5 C 264.833,146.5 265.167,146.5 265.5,146.5C 254.536,147.463 243.536,149.129 232.5,151.5C 232.371,149.784 232.038,148.117 231.5,146.5C 236.355,145.231 241.355,144.398 246.5,144C 245.672,144.915 244.672,145.581 243.5,146C 250.492,146.5 257.492,146.666 264.5,146.5 Z"/></g>
<g><path style="opacity:1" fill="#e48865" d="M 211.5,135.5 C 212.498,139.505 214.498,142.839 217.5,145.5C 219.265,146.461 221.265,146.795 223.5,146.5C 226.167,146.5 228.833,146.5 231.5,146.5C 232.038,148.117 232.371,149.784 232.5,151.5C 226.828,153.376 220.994,154.709 215,155.5C 211.671,155.587 209.171,154.254 207.5,151.5C 207.445,147.224 206.112,143.39 203.5,140C 205.863,138.038 208.53,136.538 211.5,135.5 Z"/></g>
<g><path style="opacity:1" fill="#fdfcfa" d="M 262.5,152.5 C 262.5,154.833 262.5,157.167 262.5,159.5C 261.5,159.5 260.5,159.5 259.5,159.5C 253.5,159.5 247.5,159.5 241.5,159.5C 239.656,157.721 238.99,155.388 239.5,152.5C 247.167,152.5 254.833,152.5 262.5,152.5 Z"/></g>
<g><path style="opacity:1" fill="#bebcbb" d="M 262.5,152.5 C 284.5,152.5 306.5,152.5 328.5,152.5C 328.5,154.833 328.5,157.167 328.5,159.5C 306.5,159.5 284.5,159.5 262.5,159.5C 262.5,157.167 262.5,154.833 262.5,152.5 Z"/></g>
<g><path style="opacity:1" fill="#f0f3f4" d="M 152.5,151.5 C 153.376,151.369 154.043,151.702 154.5,152.5C 156.94,156.063 157.607,159.729 156.5,163.5C 152.813,160.159 151.479,156.159 152.5,151.5 Z"/></g>
<g><path style="opacity:1" fill="#febe4d" d="M 241.5,159.5 C 247.5,159.5 253.5,159.5 259.5,159.5C 259.5,190.167 259.5,220.833 259.5,251.5C 253.5,251.5 247.5,251.5 241.5,251.5C 241.5,220.833 241.5,190.167 241.5,159.5 Z"/></g>
<g><path style="opacity:1" fill="#183946" d="M 182.5,160.5 C 182.574,162.411 183.574,163.578 185.5,164C 190.949,166.279 196.616,167.446 202.5,167.5C 206.946,192.953 209.279,218.62 209.5,244.5C 207.05,244.298 204.717,244.631 202.5,245.5C 201.837,243.958 201.17,242.291 200.5,240.5C 197.289,245.387 192.956,248.721 187.5,250.5C 187.027,249.094 186.027,248.427 184.5,248.5C 191.534,245.131 196.534,239.798 199.5,232.5C 198.506,226.035 197.006,219.701 195,213.5C 193.887,211.671 192.387,210.837 190.5,211C 189.202,213.727 188.202,216.56 187.5,219.5C 186.766,220.708 186.433,222.041 186.5,223.5C 184.66,227.673 182.994,232.007 181.5,236.5C 180.545,238.746 179.878,241.079 179.5,243.5C 177.435,243.483 175.435,243.15 173.5,242.5C 172.659,240.621 172.325,238.621 172.5,236.5C 173.362,229.833 174.696,223.166 176.5,216.5C 176.325,214.379 176.659,212.379 177.5,210.5C 177.539,209.417 177.873,208.417 178.5,207.5C 175.172,206.785 172.005,207.452 169,209.5C 167.812,208.437 167.312,207.103 167.5,205.5C 171.168,203.279 175.168,202.279 179.5,202.5C 179.5,201.167 179.5,199.833 179.5,198.5C 178.167,198.5 176.833,198.5 175.5,198.5C 176.568,197.566 177.901,197.232 179.5,197.5C 179.5,194.833 179.5,192.167 179.5,189.5C 180.241,181.2 180.741,172.867 181,164.5C 181.21,162.942 181.71,161.609 182.5,160.5 Z"/></g>
<g><path style="opacity:1" fill="#e1971a" d="M 259.5,159.5 C 260.5,159.5 261.5,159.5 262.5,159.5C 284.5,159.5 306.5,159.5 328.5,159.5C 328.5,172.833 328.5,186.167 328.5,199.5C 327.167,199.5 325.833,199.5 324.5,199.5C 324.5,205.167 324.5,210.833 324.5,216.5C 317.5,216.5 310.5,216.5 303.5,216.5C 303.5,222.5 303.5,228.5 303.5,234.5C 296.833,234.5 290.167,234.5 283.5,234.5C 283.5,239.5 283.5,244.5 283.5,249.5C 283.5,250.167 283.5,250.833 283.5,251.5C 275.5,251.5 267.5,251.5 259.5,251.5C 259.5,220.833 259.5,190.167 259.5,159.5 Z"/></g>
<g><path style="opacity:1" fill="#d32f2c" d="M 152.5,151.5 C 151.479,156.159 152.813,160.159 156.5,163.5C 153.833,164.106 151.166,164.939 148.5,166C 151.525,166.133 154.192,167.133 156.5,169C 162.347,174.556 167.347,180.723 171.5,187.5C 161.007,196.149 154.34,207.149 151.5,220.5C 150.84,219.036 150.507,217.369 150.5,215.5C 152.233,204.21 153.067,192.877 153,181.5C 149.349,174.198 145.682,166.864 142,159.5C 142.083,156.881 142.25,154.214 142.5,151.5C 145.936,150.218 149.269,150.218 152.5,151.5 Z"/></g>
<g><path style="opacity:1" fill="#44595e" d="M 143.5,137.5 C 141.518,140.373 141.185,143.373 142.5,146.5C 142.5,148.167 142.5,149.833 142.5,151.5C 142.25,154.214 142.083,156.881 142,159.5C 145.682,166.864 149.349,174.198 153,181.5C 153.067,192.877 152.233,204.21 150.5,215.5C 150.507,217.369 150.84,219.036 151.5,220.5C 151.5,221.833 151.5,223.167 151.5,224.5C 145.974,224.821 140.64,224.488 135.5,223.5C 138.289,215.701 140.789,207.701 143,199.5C 144.03,190.313 143.197,181.313 140.5,172.5C 140.709,171.914 141.043,171.414 141.5,171C 139.131,168.43 137.131,165.596 135.5,162.5C 134.264,163.246 132.93,163.579 131.5,163.5C 131.5,162.5 131.5,161.5 131.5,160.5C 132.5,160.5 133.5,160.5 134.5,160.5C 134.662,157.331 136.328,155.331 139.5,154.5C 141.439,151.305 141.439,148.305 139.5,145.5C 140.108,142.855 140.608,140.188 141,137.5C 141.705,135.014 142.538,135.014 143.5,137.5 Z"/></g>
<g><path style="opacity:1" fill="#1f2a33" d="M 118.5,192.5 C 113.164,191.389 107.664,191.389 102,192.5C 94.6896,191.507 87.6896,189.507 81,186.5C 80.5065,184.866 80.3398,183.199 80.5,181.5C 74.8236,181.334 69.1569,181.501 63.5,182C 61.2769,182.652 60.1102,184.152 60,186.5C 59.7216,185.584 59.2216,184.918 58.5,184.5C 58.5858,183.504 58.2524,182.671 57.5,182C 47.1506,181.832 36.8173,181.332 26.5,180.5C 44.9955,179.833 63.3289,179.167 81.5,178.5C 81.5,178.167 81.5,177.833 81.5,177.5C 82.2646,177.077 83.0979,176.743 84,176.5C 95.8766,181.894 108.377,184.06 121.5,183C 122.435,185.381 122.768,187.881 122.5,190.5C 120.801,190.527 119.467,191.194 118.5,192.5 Z"/></g>
<g><path style="opacity:1" fill="#5a3735" d="M 440.5,192.5 C 440.5,192.833 440.5,193.167 440.5,193.5C 437.991,194.682 436.657,196.682 436.5,199.5C 434.833,199.5 433.167,199.5 431.5,199.5C 431.5,198.833 431.167,198.5 430.5,198.5C 431.369,196.283 431.702,193.95 431.5,191.5C 431.955,176.114 433.122,160.781 435,145.5C 437.081,161.145 438.914,176.812 440.5,192.5 Z"/></g>
<g><path style="opacity:1" fill="#d93f3b" d="M 123.5,224.5 C 109.339,225.661 95.0059,225.827 80.5,225C 73.5774,219.872 65.9107,216.372 57.5,214.5C 54.7131,213.523 51.7131,213.19 48.5,213.5C 47.0413,213.567 45.7079,213.234 44.5,212.5C 43.0937,212.027 42.427,211.027 42.5,209.5C 44.1274,204.698 46.7941,200.532 50.5,197C 49.2068,196.51 47.8734,196.343 46.5,196.5C 47.1667,194.833 47.8333,193.167 48.5,191.5C 49.2216,191.918 49.7216,192.584 50,193.5C 54.1841,193.228 58.3507,192.062 62.5,190C 70.9563,189.119 79.2896,189.786 87.5,192C 99.4729,201.306 110.14,211.973 119.5,224C 120.793,224.49 122.127,224.657 123.5,224.5 Z"/></g>
<g><path style="opacity:1" fill="#e59476" d="M 440.5,193.5 C 440.5,193.167 440.5,192.833 440.5,192.5C 442.833,192.5 445.167,192.5 447.5,192.5C 447.5,193.5 447.5,194.5 447.5,195.5C 445.521,193.832 443.188,193.166 440.5,193.5 Z"/></g>
<g><path style="opacity:1" fill="#e39274" d="M 424.5,191.5 C 426.833,191.5 429.167,191.5 431.5,191.5C 431.702,193.95 431.369,196.283 430.5,198.5C 429.167,198.5 427.833,198.5 426.5,198.5C 426.727,196.067 425.727,194.401 423.5,193.5C 423.833,192.833 424.167,192.167 424.5,191.5 Z"/></g>
<g><path style="opacity:1" fill="#153938" d="M 423.5,193.5 C 425.727,194.401 426.727,196.067 426.5,198.5C 427.833,198.5 429.167,198.5 430.5,198.5C 431.167,198.5 431.5,198.833 431.5,199.5C 426.167,199.5 420.833,199.5 415.5,199.5C 415.5,198.167 415.5,196.833 415.5,195.5C 418.221,195.037 420.888,194.371 423.5,193.5 Z"/></g>
<g><path style="opacity:1" fill="#143837" d="M 440.5,193.5 C 443.188,193.166 445.521,193.832 447.5,195.5C 447.5,196.833 447.5,198.167 447.5,199.5C 443.833,199.5 440.167,199.5 436.5,199.5C 436.657,196.682 437.991,194.682 440.5,193.5 Z"/></g>
<g><path style="opacity:1" fill="#d32f2c" d="M 118.5,192.5 C 115.524,203.591 117.19,213.925 123.5,223.5C 123.5,223.833 123.5,224.167 123.5,224.5C 122.127,224.657 120.793,224.49 119.5,224C 110.14,211.973 99.4729,201.306 87.5,192C 79.2896,189.786 70.9563,189.119 62.5,190C 58.3507,192.062 54.1841,193.228 50,193.5C 49.7216,192.584 49.2216,191.918 48.5,191.5C 48.2965,189.61 48.9632,188.11 50.5,187C 53.4823,186.903 56.1489,186.07 58.5,184.5C 59.2216,184.918 59.7216,185.584 60,186.5C 60.1102,184.152 61.2769,182.652 63.5,182C 69.1569,181.501 74.8236,181.334 80.5,181.5C 80.3398,183.199 80.5065,184.866 81,186.5C 87.6896,189.507 94.6896,191.507 102,192.5C 107.664,191.389 113.164,191.389 118.5,192.5 Z"/></g>
<g><path style="opacity:1" fill="#527325" d="M 556.5,207.5 C 554.832,209.34 553.332,211.34 552,213.5C 540.814,209.495 534.648,213.495 533.5,225.5C 530.261,225.413 527.261,226.08 524.5,227.5C 522.703,226.27 520.703,225.604 518.5,225.5C 520.134,214.523 515.801,207.523 505.5,204.5C 506.833,202.833 508.167,201.167 509.5,199.5C 515.429,197.572 520.762,198.572 525.5,202.5C 527.695,198.138 531.028,194.972 535.5,193C 547.79,190.462 554.79,195.295 556.5,207.5 Z"/></g>
<g><path style="opacity:1" fill="#64c7d3" d="M 175.5,198.5 C 176.833,198.5 178.167,198.5 179.5,198.5C 179.5,199.833 179.5,201.167 179.5,202.5C 175.168,202.279 171.168,203.279 167.5,205.5C 166.167,204.833 165.167,203.833 164.5,202.5C 167.491,199.611 171.158,198.278 175.5,198.5 Z"/></g>
<g><path style="opacity:1" fill="#bdbdbd" d="M 431.5,199.5 C 433.167,199.5 434.833,199.5 436.5,199.5C 440.167,199.5 443.833,199.5 447.5,199.5C 459.833,199.5 472.167,199.5 484.5,199.5C 484.833,199.5 485.167,199.5 485.5,199.5C 493.5,199.5 501.5,199.5 509.5,199.5C 508.167,201.167 506.833,202.833 505.5,204.5C 498.445,204.277 493.279,207.277 490,213.5C 479.03,209.748 472.863,213.748 471.5,225.5C 466.907,225.547 463.407,227.547 461,231.5C 460.322,235.221 460.489,238.888 461.5,242.5C 458.167,242.5 454.833,242.5 451.5,242.5C 451.5,245.5 451.5,248.5 451.5,251.5C 395.5,251.5 339.5,251.5 283.5,251.5C 283.5,250.833 283.5,250.167 283.5,249.5C 318.833,249.5 354.167,249.5 389.5,249.5C 389.5,244.5 389.5,239.5 389.5,234.5C 361.167,234.5 332.833,234.5 304.5,234.5C 304.5,233.833 304.5,233.167 304.5,232.5C 340.167,232.5 375.833,232.5 411.5,232.5C 411.5,227.167 411.5,221.833 411.5,216.5C 382.831,216.667 354.165,216.5 325.5,216C 360.832,215.5 396.165,215.333 431.5,215.5C 431.5,210.167 431.5,204.833 431.5,199.5 Z"/></g>
<g><path style="opacity:1" fill="#67cdd8" d="M 192.5,201.5 C 195.322,202.789 195.989,204.789 194.5,207.5C 193.354,206.855 192.354,206.022 191.5,205C 192.337,203.989 192.67,202.822 192.5,201.5 Z"/></g>
<g><path style="opacity:1" fill="#1c262e" d="M 46.5,196.5 C 47.8734,196.343 49.2068,196.51 50.5,197C 46.7941,200.532 44.1274,204.698 42.5,209.5C 39.8991,212.604 37.0657,215.604 34,218.5C 37.3554,210.799 41.5221,203.465 46.5,196.5 Z"/></g>
<g><path style="opacity:1" fill="#69923d" d="M 505.5,204.5 C 515.801,207.523 520.134,214.523 518.5,225.5C 520.703,225.604 522.703,226.27 524.5,227.5C 528.355,231.132 529.355,235.465 527.5,240.5C 547.822,241.5 568.156,241.833 588.5,241.5C 588.5,241.833 588.5,242.167 588.5,242.5C 546.167,242.5 503.833,242.5 461.5,242.5C 460.489,238.888 460.322,235.221 461,231.5C 463.407,227.547 466.907,225.547 471.5,225.5C 472.863,213.748 479.03,209.748 490,213.5C 493.279,207.277 498.445,204.277 505.5,204.5 Z"/></g>
<g><path style="opacity:1" fill="#5f832a" d="M 588.5,228.5 C 588.5,232.833 588.5,237.167 588.5,241.5C 568.156,241.833 547.822,241.5 527.5,240.5C 529.355,235.465 528.355,231.132 524.5,227.5C 527.261,226.08 530.261,225.413 533.5,225.5C 534.648,213.495 540.814,209.495 552,213.5C 553.332,211.34 554.832,209.34 556.5,207.5C 559.244,205.919 562.244,204.919 565.5,204.5C 577.587,206.318 582.587,213.318 580.5,225.5C 583.406,225.957 586.072,226.957 588.5,228.5 Z"/></g>
<g><path style="opacity:1" fill="#465c62" d="M 164.5,202.5 C 165.167,203.833 166.167,204.833 167.5,205.5C 167.312,207.103 167.812,208.437 169,209.5C 172.005,207.452 175.172,206.785 178.5,207.5C 177.873,208.417 177.539,209.417 177.5,210.5C 175.571,210.231 173.905,210.731 172.5,212C 173.733,213.667 175.067,215.167 176.5,216.5C 174.696,223.166 173.362,229.833 172.5,236.5C 172.565,236.062 172.399,235.728 172,235.5C 170.365,236.726 168.865,238.059 167.5,239.5C 169.288,240.283 170.288,241.616 170.5,243.5C 170.5,244.167 170.167,244.5 169.5,244.5C 164.089,241.903 160.589,237.569 159,231.5C 157.572,223.783 159.739,217.283 165.5,212C 164.837,210.482 163.837,209.315 162.5,208.5C 162.5,207.167 161.833,206.5 160.5,206.5C 161.5,204.833 162.833,203.5 164.5,202.5 Z"/></g>
<g><path style="opacity:1" fill="#66cbd5" d="M 177.5,210.5 C 176.659,212.379 176.325,214.379 176.5,216.5C 175.067,215.167 173.733,213.667 172.5,212C 173.905,210.731 175.571,210.231 177.5,210.5 Z"/></g>
<g><path style="opacity:1" fill="#fdfdfc" d="M 328.5,199.5 C 336.833,199.5 345.167,199.5 353.5,199.5C 353.833,199.5 354.167,199.5 354.5,199.5C 374.833,199.5 395.167,199.5 415.5,199.5C 420.833,199.5 426.167,199.5 431.5,199.5C 431.5,204.833 431.5,210.167 431.5,215.5C 396.165,215.333 360.832,215.5 325.5,216C 354.165,216.5 382.831,216.667 411.5,216.5C 411.5,221.833 411.5,227.167 411.5,232.5C 375.833,232.5 340.167,232.5 304.5,232.5C 304.5,227.5 304.5,222.5 304.5,217.5C 311.354,217.824 318.021,217.491 324.5,216.5C 324.5,210.833 324.5,205.167 324.5,199.5C 325.833,199.5 327.167,199.5 328.5,199.5 Z"/></g>
<g><path style="opacity:1" fill="#65cbd9" d="M 186.5,223.5 C 186.433,222.041 186.766,220.708 187.5,219.5C 189.129,218.375 190.629,217.041 192,215.5C 193.993,217.818 195.159,220.484 195.5,223.5C 192.5,223.5 189.5,223.5 186.5,223.5 Z"/></g>
<g><path style="opacity:1" fill="#65ccd7" d="M 163.5,220.5 C 172.653,223.275 172.653,225.942 163.5,228.5C 162.271,225.801 162.271,223.135 163.5,220.5 Z"/></g>
<g><path style="opacity:1" fill="#edc78b" d="M 324.5,216.5 C 318.021,217.491 311.354,217.824 304.5,217.5C 304.5,222.5 304.5,227.5 304.5,232.5C 304.5,233.167 304.5,233.833 304.5,234.5C 304.167,234.5 303.833,234.5 303.5,234.5C 303.5,228.5 303.5,222.5 303.5,216.5C 310.5,216.5 317.5,216.5 324.5,216.5 Z"/></g>
<g><path style="opacity:1" fill="#1c2933" d="M 171.5,187.5 C 174.267,187.858 176.933,188.525 179.5,189.5C 179.5,192.167 179.5,194.833 179.5,197.5C 177.901,197.232 176.568,197.566 175.5,198.5C 171.158,198.278 167.491,199.611 164.5,202.5C 162.833,203.5 161.5,204.833 160.5,206.5C 156.601,213.709 153.601,221.209 151.5,229C 140.889,230.097 130.222,230.931 119.5,231.5C 119.291,232.086 118.957,232.586 118.5,233C 108.483,233.168 98.4834,233.668 88.5,234.5C 85.4561,242.211 80.1228,247.544 72.5,250.5C 71.1667,250.833 69.8333,251.167 68.5,251.5C 64.7307,251.756 61.0641,251.423 57.5,250.5C 50.3949,248.568 45.2282,244.235 42,237.5C 39.3703,228.743 40.2036,220.409 44.5,212.5C 45.7079,213.234 47.0413,213.567 48.5,213.5C 42.1665,224.659 43.4998,234.826 52.5,244C 65.6736,250.896 76.0069,248.063 83.5,235.5C 82.4425,235.094 81.1092,235.094 79.5,235.5C 76.8333,234.5 74.1667,233.5 71.5,232.5C 67.4755,230.98 63.4755,229.146 59.5,227C 58.1387,225.416 57.472,223.582 57.5,221.5C 57.5,219.167 57.5,216.833 57.5,214.5C 65.9107,216.372 73.5774,219.872 80.5,225C 95.0059,225.827 109.339,225.661 123.5,224.5C 123.5,224.167 123.5,223.833 123.5,223.5C 127.5,223.5 131.5,223.5 135.5,223.5C 140.64,224.488 145.974,224.821 151.5,224.5C 151.5,223.167 151.5,221.833 151.5,220.5C 154.34,207.149 161.007,196.149 171.5,187.5 Z"/></g>
<g><path style="opacity:1" fill="#65ccd8" d="M 57.5,214.5 C 57.5,216.833 57.5,219.167 57.5,221.5C 48.2075,218.643 48.2075,216.31 57.5,214.5 Z"/></g>
<g><path style="opacity:1" fill="#1c2731" d="M 162.5,208.5 C 163.837,209.315 164.837,210.482 165.5,212C 159.739,217.283 157.572,223.783 159,231.5C 160.589,237.569 164.089,241.903 169.5,244.5C 168.194,247.247 169.194,248.913 172.5,249.5C 172.5,250.167 172.167,250.5 171.5,250.5C 159.079,245.334 153.579,236.001 155,222.5C 156.211,217.074 158.711,212.407 162.5,208.5 Z"/></g>
<g><path style="opacity:1" fill="#65cad6" d="M 160.5,206.5 C 161.833,206.5 162.5,207.167 162.5,208.5C 158.711,212.407 156.211,217.074 155,222.5C 153.579,236.001 159.079,245.334 171.5,250.5C 138.5,251.833 105.5,251.833 72.5,250.5C 80.1228,247.544 85.4561,242.211 88.5,234.5C 98.4834,233.668 108.483,233.168 118.5,233C 118.957,232.586 119.291,232.086 119.5,231.5C 130.222,230.931 140.889,230.097 151.5,229C 153.601,221.209 156.601,213.709 160.5,206.5 Z"/></g>
<g><path style="opacity:1" fill="#64c7d3" d="M 162.5,229.5 C 173.782,228.065 175.115,230.731 166.5,237.5C 164.113,235.393 162.78,232.727 162.5,229.5 Z"/></g>
<g><path style="opacity:1" fill="#fefefe" d="M 303.5,234.5 C 303.833,234.5 304.167,234.5 304.5,234.5C 332.833,234.5 361.167,234.5 389.5,234.5C 389.5,239.5 389.5,244.5 389.5,249.5C 354.167,249.5 318.833,249.5 283.5,249.5C 283.5,244.5 283.5,239.5 283.5,234.5C 290.167,234.5 296.833,234.5 303.5,234.5 Z"/></g>
<g><path style="opacity:1" fill="#65cad6" d="M 71.5,232.5 C 74.1667,233.5 76.8333,234.5 79.5,235.5C 77.5389,237.963 75.3722,240.297 73,242.5C 71.8333,239.667 70.6667,236.833 69.5,234C 69.8361,232.97 70.5028,232.47 71.5,232.5 Z"/></g>
<g><path style="opacity:1" fill="#455a60" d="M 184.5,248.5 C 182.227,248.043 180.894,246.71 180.5,244.5C 182.117,243.962 183.784,243.629 185.5,243.5C 185.445,240.386 184.112,238.052 181.5,236.5C 182.994,232.007 184.66,227.673 186.5,223.5C 189.5,223.5 192.5,223.5 195.5,223.5C 195.159,220.484 193.993,217.818 192,215.5C 190.629,217.041 189.129,218.375 187.5,219.5C 188.202,216.56 189.202,213.727 190.5,211C 192.387,210.837 193.887,211.671 195,213.5C 197.006,219.701 198.506,226.035 199.5,232.5C 196.534,239.798 191.534,245.131 184.5,248.5 Z"/></g>
<g><path style="opacity:1" fill="#65cad5" d="M 185.5,231.5 C 188.47,232.538 191.137,234.038 193.5,236C 190.596,242.76 187.763,242.926 185,236.5C 184.36,234.735 184.527,233.068 185.5,231.5 Z"/></g>
<g><path style="opacity:1" fill="#65cad5" d="M 194.5,224.5 C 195.693,224.97 196.36,225.97 196.5,227.5C 196.16,229.512 195.827,231.512 195.5,233.5C 191.126,232.998 188.459,230.664 187.5,226.5C 190.152,226.59 192.485,225.924 194.5,224.5 Z"/></g>
<g><path style="opacity:1" fill="#6bc4ce" d="M 172.5,236.5 C 172.325,238.621 172.659,240.621 173.5,242.5C 172.391,242.557 171.391,242.89 170.5,243.5C 170.288,241.616 169.288,240.283 167.5,239.5C 168.865,238.059 170.365,236.726 172,235.5C 172.399,235.728 172.565,236.062 172.5,236.5 Z"/></g>
<g><path style="opacity:1" fill="#45595e" d="M 48.5,213.5 C 51.7131,213.19 54.7131,213.523 57.5,214.5C 48.2075,216.31 48.2075,218.643 57.5,221.5C 57.472,223.582 58.1387,225.416 59.5,227C 63.4755,229.146 67.4755,230.98 71.5,232.5C 70.5028,232.47 69.8361,232.97 69.5,234C 70.6667,236.833 71.8333,239.667 73,242.5C 75.3722,240.297 77.5389,237.963 79.5,235.5C 81.1092,235.094 82.4425,235.094 83.5,235.5C 76.0069,248.063 65.6736,250.896 52.5,244C 43.4998,234.826 42.1665,224.659 48.5,213.5 Z"/></g>
<g><path style="opacity:1" fill="#64c5d3" d="M 64.5,234.5 C 67.7124,236.164 70.0457,238.83 71.5,242.5C 68.6626,244.474 65.6626,244.807 62.5,243.5C 63.6416,240.601 64.3083,237.601 64.5,234.5 Z"/></g>
<g><path style="opacity:1" fill="#65ccd7" d="M 58.5,233.5 C 59.5,233.5 60.5,233.5 61.5,233.5C 61.5,236.833 61.5,240.167 61.5,243.5C 58.2735,243.22 55.6068,241.887 53.5,239.5C 55.1897,237.481 56.8564,235.481 58.5,233.5 Z"/></g>
<g><path style="opacity:1" fill="#64c8d3" d="M 47.5,229.5 C 50.5184,229.335 53.5184,229.502 56.5,230C 56.9574,230.414 57.2907,230.914 57.5,231.5C 55.476,233.69 53.6427,236.023 52,238.5C 49.9617,235.757 48.4617,232.757 47.5,229.5 Z"/></g>
<g><path style="opacity:1" fill="#64c7d2" d="M 49.5,219.5 C 59.2043,224.324 58.5376,227.324 47.5,228.5C 47.2069,225.246 47.8736,222.246 49.5,219.5 Z"/></g>
<g><path style="opacity:1" fill="#62c4cf" d="M 181.5,236.5 C 184.112,238.052 185.445,240.386 185.5,243.5C 183.784,243.629 182.117,243.962 180.5,244.5C 179.833,244.5 179.5,244.167 179.5,243.5C 179.878,241.079 180.545,238.746 181.5,236.5 Z"/></g>
<g><path style="opacity:1" fill="#fefefe" d="M 461.5,242.5 C 503.833,242.5 546.167,242.5 588.5,242.5C 588.5,245.5 588.5,248.5 588.5,251.5C 542.833,251.5 497.167,251.5 451.5,251.5C 451.5,248.5 451.5,245.5 451.5,242.5C 454.833,242.5 458.167,242.5 461.5,242.5 Z"/></g>
<g><path style="opacity:1" fill="#f6f6f6" d="M 173.5,242.5 C 175.435,243.15 177.435,243.483 179.5,243.5C 179.5,244.167 179.833,244.5 180.5,244.5C 180.894,246.71 182.227,248.043 184.5,248.5C 186.027,248.427 187.027,249.094 187.5,250.5C 187.5,250.833 187.5,251.167 187.5,251.5C 182.786,251.647 178.119,251.314 173.5,250.5C 173.5,249.833 173.167,249.5 172.5,249.5C 169.194,248.913 168.194,247.247 169.5,244.5C 170.167,244.5 170.5,244.167 170.5,243.5C 171.391,242.89 172.391,242.557 173.5,242.5 Z"/></g>
<g><path style="opacity:1" fill="#f6f8f9" d="M 209.5,244.5 C 212.76,246.72 216.426,247.886 220.5,248C 221.823,248.816 222.489,249.983 222.5,251.5C 215.833,251.5 209.167,251.5 202.5,251.5C 202.5,249.5 202.5,247.5 202.5,245.5C 204.717,244.631 207.05,244.298 209.5,244.5 Z"/></g>
<g><path style="opacity:1" fill="#68ccd8" d="M 202.5,245.5 C 202.5,247.5 202.5,249.5 202.5,251.5C 197.5,251.5 192.5,251.5 187.5,251.5C 187.5,251.167 187.5,250.833 187.5,250.5C 192.956,248.721 197.289,245.387 200.5,240.5C 201.17,242.291 201.837,243.958 202.5,245.5 Z"/></g>
<g><path style="opacity:1" fill="#61767a" d="M 172.5,249.5 C 173.167,249.5 173.5,249.833 173.5,250.5C 173.918,251.222 174.584,251.722 175.5,252C 139.664,252.831 103.998,252.664 68.5,251.5C 69.8333,251.167 71.1667,250.833 72.5,250.5C 105.5,251.833 138.5,251.833 171.5,250.5C 172.167,250.5 172.5,250.167 172.5,249.5 Z"/></g>
<g><path style="opacity:1" fill="#5e5d5b" d="M 57.5,250.5 C 61.0641,251.423 64.7307,251.756 68.5,251.5C 103.998,252.664 139.664,252.831 175.5,252C 174.584,251.722 173.918,251.222 173.5,250.5C 178.119,251.314 182.786,251.647 187.5,251.5C 192.5,251.5 197.5,251.5 202.5,251.5C 209.167,251.5 215.833,251.5 222.5,251.5C 228.833,251.5 235.167,251.5 241.5,251.5C 247.5,251.5 253.5,251.5 259.5,251.5C 267.5,251.5 275.5,251.5 283.5,251.5C 339.5,251.5 395.5,251.5 451.5,251.5C 497.167,251.5 542.833,251.5 588.5,251.5C 588.5,265.833 588.5,280.167 588.5,294.5C 392.167,294.5 195.833,294.5 -0.5,294.5C -0.5,280.167 -0.5,265.833 -0.5,251.5C 19.0072,251.83 38.3405,251.497 57.5,250.5 Z"/></g>
</svg>
