<?xml version="1.0" encoding="UTF-8"?>
<!DOCTYPE svg PUBLIC "-//W3C//DTD SVG 1.1//EN" "http://www.w3.org/Graphics/SVG/1.1/DTD/svg11.dtd">
<svg xmlns="http://www.w3.org/2000/svg" version="1.1" width="1000px" height="1000px" style="shape-rendering:geometricPrecision; text-rendering:geometricPrecision; image-rendering:optimizeQuality; fill-rule:evenodd; clip-rule:evenodd" xmlns:xlink="http://www.w3.org/1999/xlink">
<g><path style="opacity:0.983" fill="#f3f3f3" d="M 532.5,157.5 C 544.995,156.723 556.328,159.89 566.5,167C 574.358,174.068 578.024,182.901 577.5,193.5C 587.788,191.65 596.288,194.65 603,202.5C 604.411,204.65 605.245,206.984 605.5,209.5C 547.496,209.833 489.496,209.5 431.5,208.5C 436.995,199.514 444.995,194.347 455.5,193C 461.188,192.446 466.855,192.613 472.5,193.5C 476.915,178.774 486.915,171.607 502.5,172C 511.147,164.175 521.147,159.342 532.5,157.5 Z"/></g>
<g><path style="opacity:0.977" fill="#f3f3f3" d="M 824.5,163.5 C 833.974,162.135 839.807,166.135 842,175.5C 842.499,180.489 842.666,185.489 842.5,190.5C 854.813,187.984 862.813,192.651 866.5,204.5C 821.828,204.833 777.162,204.5 732.5,203.5C 739.408,188.128 750.575,183.794 766,190.5C 775.063,171.478 789.23,166.311 808.5,175C 809.667,176.167 810.833,177.333 812,178.5C 814.302,171.866 818.469,166.866 824.5,163.5 Z"/></g>
<g><path style="opacity:0.967" fill="#fdc454" d="M 578.5,263.5 C 577.527,264.984 576.193,265.484 574.5,265C 568.947,262.392 563.613,259.559 558.5,256.5C 547.458,249.646 536.124,243.312 524.5,237.5C 526.147,235.674 528.147,234.34 530.5,233.5C 536.804,236.159 543.138,238.826 549.5,241.5C 551.226,239.772 552.559,237.772 553.5,235.5C 549.417,233.459 545.417,231.459 541.5,229.5C 554.696,226.62 565.862,230.287 575,240.5C 579.449,247.656 580.616,255.323 578.5,263.5 Z"/></g>
<g><path style="opacity:1" fill="#ffd584" d="M 541.5,229.5 C 545.417,231.459 549.417,233.459 553.5,235.5C 552.559,237.772 551.226,239.772 549.5,241.5C 543.138,238.826 536.804,236.159 530.5,233.5C 533.66,231 537.327,229.667 541.5,229.5 Z"/></g>
<g><path style="opacity:0.996" fill="#c79a42" d="M 524.5,237.5 C 536.124,243.312 547.458,249.646 558.5,256.5C 547.975,252.046 537.309,247.879 526.5,244C 519.967,241.891 513.3,241.224 506.5,242C 504.556,244.153 504.056,246.653 505,249.5C 506.667,251.833 508.667,253.833 511,255.5C 511.74,256.749 511.573,257.749 510.5,258.5C 504.675,255.855 499.509,252.188 495,247.5C 492.065,238.248 495.565,233.581 505.5,233.5C 512.01,234.045 518.344,235.378 524.5,237.5 Z"/></g>
<g><path style="opacity:0.999" fill="#2a3439" d="M 558.5,256.5 C 563.613,259.559 568.947,262.392 574.5,265C 576.193,265.484 577.527,264.984 578.5,263.5C 579.654,266.479 580.82,269.479 582,272.5C 584.057,282.39 580.39,289.057 571,292.5C 570.669,296.155 569.502,299.488 567.5,302.5C 566.191,298.649 566.191,294.649 567.5,290.5C 574.781,287.596 578.281,282.263 578,274.5C 575.928,269.857 572.428,268.357 567.5,270C 565.023,271.643 562.69,273.476 560.5,275.5C 556.859,273.693 554.026,271.026 552,267.5C 550.133,262.898 548.466,258.232 547,253.5C 542.674,255.314 538.174,255.814 533.5,255C 528.936,253.718 524.603,251.885 520.5,249.5C 518.207,252.364 516.874,255.698 516.5,259.5C 523.043,259.543 523.043,260.21 516.5,261.5C 515.482,263.594 514.482,265.594 513.5,267.5C 511.528,264.916 510.528,261.916 510.5,258.5C 511.573,257.749 511.74,256.749 511,255.5C 508.667,253.833 506.667,251.833 505,249.5C 504.056,246.653 504.556,244.153 506.5,242C 513.3,241.224 519.967,241.891 526.5,244C 537.309,247.879 547.975,252.046 558.5,256.5 Z"/></g>
<g><path style="opacity:0.992" fill="#fcbc9b" d="M 567.5,302.5 C 568.135,312.675 569.802,322.675 572.5,332.5C 573.059,334.679 573.726,336.846 574.5,339C 571.164,343.516 566.831,346.849 561.5,349C 553.585,353.018 545.252,354.352 536.5,353C 533.311,351.456 532.145,348.956 533,345.5C 534.332,343.34 535.832,341.34 537.5,339.5C 544.563,333.245 546.396,325.578 543,316.5C 542.612,315.572 541.945,314.905 541,314.5C 530.649,313.826 522.316,309.493 516,301.5C 514.803,298.911 513.803,296.244 513,293.5C 512.289,284.806 512.456,276.139 513.5,267.5C 514.482,265.594 515.482,263.594 516.5,261.5C 523.043,260.21 523.043,259.543 516.5,259.5C 516.874,255.698 518.207,252.364 520.5,249.5C 524.603,251.885 528.936,253.718 533.5,255C 538.174,255.814 542.674,255.314 547,253.5C 548.466,258.232 550.133,262.898 552,267.5C 554.026,271.026 556.859,273.693 560.5,275.5C 562.69,273.476 565.023,271.643 567.5,270C 572.428,268.357 575.928,269.857 578,274.5C 578.281,282.263 574.781,287.596 567.5,290.5C 566.191,294.649 566.191,298.649 567.5,302.5 Z"/></g>
<g><path style="opacity:1" fill="#494848" d="M 535.5,259.5 C 537.989,259.298 540.323,259.798 542.5,261C 544.211,262.133 544.711,263.633 544,265.5C 541.465,262.765 538.632,260.765 535.5,259.5 Z"/></g>
<g><path style="opacity:1" fill="#3e4143" d="M 515.5,268.5 C 516.5,268.5 517.5,268.5 518.5,268.5C 518.884,270.665 518.217,272.332 516.5,273.5C 514.296,272.218 513.962,270.551 515.5,268.5 Z"/></g>
<g><path style="opacity:1" fill="#32393d" d="M 533.5,267.5 C 534.5,267.5 535.5,267.5 536.5,267.5C 536.5,269.167 536.5,270.833 536.5,272.5C 535.5,272.5 534.5,272.5 533.5,272.5C 533.5,270.833 533.5,269.167 533.5,267.5 Z"/></g>
<g><path style="opacity:1" fill="#ed857f" d="M 523.5,271.5 C 524.483,275.298 524.817,279.298 524.5,283.5C 522.25,283.819 520.25,283.319 518.5,282C 520.579,278.676 522.246,275.176 523.5,271.5 Z"/></g>
<g><path style="opacity:1" fill="#3f4143" d="M 534.5,285.5 C 535.239,285.369 535.906,285.536 536.5,286C 533.07,290.393 528.736,291.893 523.5,290.5C 527.864,290.148 531.531,288.481 534.5,285.5 Z"/></g>
<g><path style="opacity:0.991" fill="#f0f0f0" d="M 501.5,297.5 C 479.167,297.5 456.833,297.5 434.5,297.5C 434.5,347.5 434.5,397.5 434.5,447.5C 417.592,449.881 400.592,451.214 383.5,451.5C 371.233,448.336 358.9,447.836 346.5,450C 352.747,450.1 358.747,450.933 364.5,452.5C 362.491,454.169 360.491,455.836 358.5,457.5C 360.521,458.855 362.188,460.521 363.5,462.5C 357.429,460.372 352.596,462.038 349,467.5C 341.56,480.321 340.56,493.654 346,507.5C 348.362,511.027 351.196,514.027 354.5,516.5C 350.836,517 347.836,515.833 345.5,513C 342.183,512.502 338.85,512.335 335.5,512.5C 333.292,511.106 331.792,509.106 331,506.5C 329.522,495.873 329.188,485.206 330,474.5C 333.926,467.323 337.26,459.989 340,452.5C 335.867,455.631 332.034,459.131 328.5,463C 320.035,463.212 311.702,462.378 303.5,460.5C 295.816,460.021 288.149,459.355 280.5,458.5C 280.136,463.247 281.802,467.081 285.5,470C 290.246,472.27 295.246,473.437 300.5,473.5C 308.66,474.473 316.993,475.14 325.5,475.5C 323.557,487.893 324.89,499.893 329.5,511.5C 307.618,508.571 292.451,517.238 284,537.5C 271.702,581.087 269.202,625.254 276.5,670C 276.167,670.833 275.833,671.667 275.5,672.5C 267.868,677.471 260.535,682.805 253.5,688.5C 253.5,606.833 253.5,525.167 253.5,443.5C 253.5,442.167 253.5,440.833 253.5,439.5C 254.833,437.167 254.833,434.833 253.5,432.5C 253.5,402.5 253.5,372.5 253.5,342.5C 215.833,342.5 178.167,342.5 140.5,342.5C 142.354,333.146 148.021,327.646 157.5,326C 161.091,325.211 164.591,325.378 168,326.5C 169.186,306.979 179.352,295.146 198.5,291C 215.445,287.9 230.111,292.233 242.5,304C 246.089,304.207 249.589,304.707 253,305.5C 253.497,302.854 253.664,300.187 253.5,297.5C 251.833,297.5 250.167,297.5 248.5,297.5C 248.5,293.5 248.5,289.5 248.5,285.5C 250.167,285.5 251.833,285.5 253.5,285.5C 253.5,282.833 253.5,280.167 253.5,277.5C 251.833,277.5 250.167,277.5 248.5,277.5C 248.5,273.167 248.5,268.833 248.5,264.5C 334.5,264.5 420.5,264.5 506.5,264.5C 506.5,268.833 506.5,273.167 506.5,277.5C 503.5,277.5 500.5,277.5 497.5,277.5C 497.5,280.167 497.5,282.833 497.5,285.5C 500.5,285.5 503.5,285.5 506.5,285.5C 506.5,289.5 506.5,293.5 506.5,297.5C 504.833,297.5 503.167,297.5 501.5,297.5 Z"/></g>
<g><path style="opacity:0.998" fill="#e4e3e3" d="M 501.5,297.5 C 501.5,315.167 501.5,332.833 501.5,350.5C 488.112,362.076 479.112,376.576 474.5,394C 476.207,395.509 477.873,397.009 479.5,398.5C 477.818,413.612 475.484,428.612 472.5,443.5C 459.855,444.997 447.188,446.331 434.5,447.5C 434.5,397.5 434.5,347.5 434.5,297.5C 456.833,297.5 479.167,297.5 501.5,297.5 Z"/></g>
<g><path style="opacity:1" fill="#f4f4f4" d="M 275.5,322.5 C 323.167,322.5 370.833,322.5 418.5,322.5C 418.5,330.167 418.5,337.833 418.5,345.5C 370.833,345.5 323.167,345.5 275.5,345.5C 275.5,337.833 275.5,330.167 275.5,322.5 Z"/></g>
<g><path style="opacity:0.998" fill="#263238" d="M 572.5,332.5 C 583.638,331.885 594.638,332.718 605.5,335C 614.814,338.48 620.814,344.98 623.5,354.5C 626.544,369.657 625.878,384.657 621.5,399.5C 619.929,400.309 618.262,400.643 616.5,400.5C 616.5,416.5 616.5,432.5 616.5,448.5C 615.503,467.326 615.17,486.326 615.5,505.5C 596.007,506.052 576.507,506.385 557,506.5C 542.151,506.499 527.651,505.833 513.5,504.5C 512.608,499.562 512.274,494.562 512.5,489.5C 528.479,490.589 544.479,490.755 560.5,490C 571.227,488.87 581.06,485.37 590,479.5C 601.918,454.903 605.751,429.236 601.5,402.5C 593.218,403.824 584.884,404.824 576.5,405.5C 575.462,424.266 572.795,442.766 568.5,461C 549.259,464.008 529.925,466.175 510.5,467.5C 509.921,451.823 509.088,436.157 508,420.5C 507.79,418.942 507.29,417.609 506.5,416.5C 498.024,409.759 489.024,403.759 479.5,398.5C 477.873,397.009 476.207,395.509 474.5,394C 479.112,376.576 488.112,362.076 501.5,350.5C 513.233,346.034 525.233,342.367 537.5,339.5C 535.832,341.34 534.332,343.34 533,345.5C 532.145,348.956 533.311,351.456 536.5,353C 545.252,354.352 553.585,353.018 561.5,349C 566.831,346.849 571.164,343.516 574.5,339C 573.726,336.846 573.059,334.679 572.5,332.5 Z"/></g>
<g><path style="opacity:0.996" fill="#fec454" d="M 755.5,365.5 C 755.5,369.833 755.5,374.167 755.5,378.5C 756.293,412.83 756.96,447.163 757.5,481.5C 757.5,482.833 757.5,484.167 757.5,485.5C 757.5,496.833 757.5,508.167 757.5,519.5C 749.479,519.442 741.479,519.776 733.5,520.5C 724.167,520.5 714.833,520.5 705.5,520.5C 692.5,520.5 679.5,520.5 666.5,520.5C 666.5,516.167 666.5,511.833 666.5,507.5C 666.5,507.167 666.5,506.833 666.5,506.5C 672.833,506.5 679.167,506.5 685.5,506.5C 685.5,502.833 685.5,499.167 685.5,495.5C 678.833,495.5 672.167,495.5 665.5,495.5C 664.973,456.169 664.64,416.835 664.5,377.5C 671.167,377.5 677.833,377.5 684.5,377.5C 684.5,373.833 684.5,370.167 684.5,366.5C 677.5,366.5 670.5,366.5 663.5,366.5C 663.5,362.5 663.5,358.5 663.5,354.5C 694.169,353.879 724.835,353.213 755.5,352.5C 755.5,356.833 755.5,361.167 755.5,365.5 Z"/></g>
<g><path style="opacity:0.998" fill="#fed586" d="M 623.5,354.5 C 636.833,354.5 650.167,354.5 663.5,354.5C 663.5,358.5 663.5,362.5 663.5,366.5C 670.5,366.5 677.5,366.5 684.5,366.5C 684.5,370.167 684.5,373.833 684.5,377.5C 677.833,377.5 671.167,377.5 664.5,377.5C 664.64,416.835 664.973,456.169 665.5,495.5C 658.833,495.5 652.167,495.5 645.5,495.5C 645.5,499.5 645.5,503.5 645.5,507.5C 652.5,507.5 659.5,507.5 666.5,507.5C 666.5,511.833 666.5,516.167 666.5,520.5C 679.5,520.5 692.5,520.5 705.5,520.5C 688.008,521.497 670.341,521.83 652.5,521.5C 640.62,518.559 628.62,517.892 616.5,519.5C 616.5,495.833 616.5,472.167 616.5,448.5C 616.5,432.5 616.5,416.5 616.5,400.5C 618.262,400.643 619.929,400.309 621.5,399.5C 625.878,384.657 626.544,369.657 623.5,354.5 Z"/></g>
<g><path style="opacity:1" fill="#f4f4f4" d="M 275.5,363.5 C 323.167,363.5 370.833,363.5 418.5,363.5C 418.5,371.167 418.5,378.833 418.5,386.5C 370.833,386.5 323.167,386.5 275.5,386.5C 275.5,378.833 275.5,371.167 275.5,363.5 Z"/></g>
<g><path style="opacity:0.976" fill="#dfdfdf" d="M 755.5,365.5 C 799.833,365.5 844.167,365.5 888.5,365.5C 888.5,498.167 888.5,630.833 888.5,763.5C 925.5,763.5 962.5,763.5 999.5,763.5C 999.5,764.167 999.5,764.833 999.5,765.5C 947.163,765.443 894.83,765.776 842.5,766.5C 842.5,724.167 842.5,681.833 842.5,639.5C 842.5,638.833 842.5,638.167 842.5,637.5C 851.004,637.967 859.337,637.467 867.5,636C 859.173,635.5 850.84,635.334 842.5,635.5C 842.5,619.167 842.5,602.833 842.5,586.5C 841.022,586.762 839.689,586.429 838.5,585.5C 839.32,583.889 840.654,583.222 842.5,583.5C 842.5,576.5 842.5,569.5 842.5,562.5C 842.5,561.167 842.5,559.833 842.5,558.5C 842.5,534.167 842.5,509.833 842.5,485.5C 814.167,485.5 785.833,485.5 757.5,485.5C 757.5,484.167 757.5,482.833 757.5,481.5C 785.833,481.5 814.167,481.5 842.5,481.5C 842.5,447.167 842.5,412.833 842.5,378.5C 813.5,378.5 784.5,378.5 755.5,378.5C 755.5,374.167 755.5,369.833 755.5,365.5 Z"/></g>
<g><path style="opacity:1" fill="#ffe1aa" d="M 663.5,366.5 C 663.5,370.167 663.5,373.833 663.5,377.5C 657.167,377.5 650.833,377.5 644.5,377.5C 644.5,373.833 644.5,370.167 644.5,366.5C 650.833,366.5 657.167,366.5 663.5,366.5 Z"/></g>
<g><path style="opacity:1" fill="#f1f1f1" d="M 755.5,378.5 C 784.5,378.5 813.5,378.5 842.5,378.5C 842.5,412.833 842.5,447.167 842.5,481.5C 814.167,481.5 785.833,481.5 757.5,481.5C 756.96,447.163 756.293,412.83 755.5,378.5 Z"/></g>
<g><path style="opacity:0.998" fill="#fdbd9c" d="M 479.5,398.5 C 489.024,403.759 498.024,409.759 506.5,416.5C 505.69,425.364 504.023,434.031 501.5,442.5C 499.002,449.127 496.002,455.627 492.5,462C 486.304,465.762 479.638,468.428 472.5,470C 482.343,470.23 492.01,469.73 501.5,468.5C 504.455,467.841 507.455,467.508 510.5,467.5C 529.925,466.175 549.259,464.008 568.5,461C 572.795,442.766 575.462,424.266 576.5,405.5C 584.884,404.824 593.218,403.824 601.5,402.5C 605.751,429.236 601.918,454.903 590,479.5C 581.06,485.37 571.227,488.87 560.5,490C 544.479,490.755 528.479,490.589 512.5,489.5C 508.846,489.058 505.179,488.724 501.5,488.5C 495.308,486.961 488.974,485.461 482.5,484C 480.5,483.333 478.5,483.333 476.5,484C 472.648,486.955 468.315,488.955 463.5,490C 461.933,493.525 460.267,497.025 458.5,500.5C 453.208,501.495 447.875,501.828 442.5,501.5C 442.5,499.167 442.5,496.833 442.5,494.5C 442.174,490.116 442.508,485.783 443.5,481.5C 444.901,480.479 446.235,479.479 447.5,478.5C 450.312,476.924 452.978,475.09 455.5,473C 438.756,472.716 422.089,471.549 405.5,469.5C 404.391,469.443 403.391,469.11 402.5,468.5C 398.727,464.552 395.061,460.386 391.5,456C 389.182,454.007 386.516,452.841 383.5,452.5C 383.5,452.167 383.5,451.833 383.5,451.5C 400.592,451.214 417.592,449.881 434.5,447.5C 447.188,446.331 459.855,444.997 472.5,443.5C 475.484,428.612 477.818,413.612 479.5,398.5 Z M 506.5,416.5 C 507.29,417.609 507.79,418.942 508,420.5C 509.088,436.157 509.921,451.823 510.5,467.5C 507.455,467.508 504.455,467.841 501.5,468.5C 501.5,459.833 501.5,451.167 501.5,442.5C 504.023,434.031 505.69,425.364 506.5,416.5 Z"/></g>
<g><path style="opacity:1" fill="#665532" d="M 705.5,399.5 C 732.616,399.704 745.116,413.371 743,440.5C 737.535,460.148 724.701,468.648 704.5,466C 687.022,458.223 679.522,444.723 682,425.5C 685.175,412.498 693.008,403.831 705.5,399.5 Z"/></g>
<g><path style="opacity:1" fill="#f4f4f4" d="M 275.5,404.5 C 323.167,404.5 370.833,404.5 418.5,404.5C 418.5,412.167 418.5,419.833 418.5,427.5C 370.833,427.5 323.167,427.5 275.5,427.5C 275.5,419.833 275.5,412.167 275.5,404.5 Z"/></g>
<g><path style="opacity:1" fill="#d8d4cb" d="M 707.5,405.5 C 721.691,404.866 731.191,411.199 736,424.5C 738.778,436.909 735.611,447.409 726.5,456C 708.73,464.964 696.23,460.13 689,441.5C 685.503,424.246 691.669,412.246 707.5,405.5 Z"/></g>
<g><path style="opacity:1" fill="#635230" d="M 707.5,407.5 C 724.036,407.037 733.036,415.037 734.5,431.5C 726.5,432.167 726.5,432.833 734.5,433.5C 733.57,451.969 723.903,460.136 705.5,458C 692.552,450.526 687.719,439.359 691,424.5C 694.045,416.29 699.545,410.623 707.5,407.5 Z"/></g>
<g><path style="opacity:1" fill="#d7d3cb" d="M 712.5,409.5 C 713.693,409.97 714.36,410.97 714.5,412.5C 714.167,413.5 713.833,414.5 713.5,415.5C 712.534,413.604 712.201,411.604 712.5,409.5 Z"/></g>
<g><path style="opacity:1" fill="#a09681" d="M 714.5,430.5 C 713.833,430.5 713.167,430.5 712.5,430.5C 713.167,414.5 713.833,414.5 714.5,430.5 Z"/></g>
<g><path style="opacity:1" fill="#eceae6" d="M 712.5,430.5 C 713.167,430.5 713.833,430.5 714.5,430.5C 715.434,431.568 715.768,432.901 715.5,434.5C 711.965,434.663 710.965,433.33 712.5,430.5 Z"/></g>
<g><path style="opacity:0.847" fill="#e0e0e0" d="M 253.5,432.5 C 254.833,434.833 254.833,437.167 253.5,439.5C 252.833,439.5 252.167,439.5 251.5,439.5C 197.931,438.17 144.264,438.17 90.5,439.5C 89.5,439.5 88.5,439.5 87.5,439.5C 87.5,437.167 87.5,434.833 87.5,432.5C 142.833,432.5 198.167,432.5 253.5,432.5 Z"/></g>
<g><path style="opacity:1" fill="#c6c0b3" d="M 691.5,431.5 C 693.604,431.201 695.604,431.534 697.5,432.5C 696.5,432.833 695.5,433.167 694.5,433.5C 692.97,433.36 691.97,432.693 691.5,431.5 Z"/></g>
<g><path style="opacity:1" fill="#b9b1a1" d="M 715.5,434.5 C 718.731,436.22 721.564,438.553 724,441.5C 724.667,442.167 724.667,442.833 724,443.5C 720.962,440.631 718.129,437.631 715.5,434.5 Z"/></g>
<g><path style="opacity:0.974" fill="#efefef" d="M 251.5,439.5 C 251.5,440.833 251.5,442.167 251.5,443.5C 197.833,443.5 144.167,443.5 90.5,443.5C 90.5,442.167 90.5,440.833 90.5,439.5C 144.264,438.17 197.931,438.17 251.5,439.5 Z"/></g>
<g><path style="opacity:1" fill="#e1dedd" d="M 501.5,442.5 C 501.5,451.167 501.5,459.833 501.5,468.5C 492.01,469.73 482.343,470.23 472.5,470C 479.638,468.428 486.304,465.762 492.5,462C 496.002,455.627 499.002,449.127 501.5,442.5 Z"/></g>
<g><path style="opacity:0.984" fill="#e5e5e5" d="M 90.5,443.5 C 144.167,443.5 197.833,443.5 251.5,443.5C 252.167,443.5 252.833,443.5 253.5,443.5C 253.5,525.167 253.5,606.833 253.5,688.5C 249.027,693.302 245.36,698.635 242.5,704.5C 239.412,716.315 243.745,724.315 255.5,728.5C 252.447,740.669 251.78,753.002 253.5,765.5C 168.833,765.5 84.1667,765.5 -0.5,765.5C -0.5,764.833 -0.5,764.167 -0.5,763.5C 29.8333,763.5 60.1667,763.5 90.5,763.5C 134.528,763.51 178.861,763.51 223.5,763.5C 223.5,729.5 223.5,695.5 223.5,661.5C 179.5,661.5 135.5,661.5 91.5,661.5C 91.5,660.5 91.5,659.5 91.5,658.5C 135.5,658.5 179.5,658.5 223.5,658.5C 223.5,620.833 223.5,583.167 223.5,545.5C 179.5,545.5 135.5,545.5 91.5,545.5C 91.5,544.5 91.5,543.5 91.5,542.5C 135.5,542.5 179.5,542.5 223.5,542.5C 223.5,511.5 223.5,480.5 223.5,449.5C 179.167,449.5 134.833,449.5 90.5,449.5C 89.5,449.5 88.5,449.5 87.5,449.5C 87.5,447.5 87.5,445.5 87.5,443.5C 88.5,443.5 89.5,443.5 90.5,443.5 Z"/></g>
<g><path style="opacity:1" fill="#c5c4c4" d="M 383.5,451.5 C 383.5,451.833 383.5,452.167 383.5,452.5C 377.833,452.5 372.167,452.5 366.5,452.5C 365.833,452.5 365.167,452.5 364.5,452.5C 358.747,450.933 352.747,450.1 346.5,450C 358.9,447.836 371.233,448.336 383.5,451.5 Z"/></g>
<g><path style="opacity:1" fill="#d8d4cc" d="M 713.5,450.5 C 714.693,450.97 715.36,451.97 715.5,453.5C 715.167,454.5 714.833,455.5 714.5,456.5C 713.534,454.604 713.201,452.604 713.5,450.5 Z"/></g>
<g><path style="opacity:1" fill="#cc997f" d="M 366.5,452.5 C 372.167,452.5 377.833,452.5 383.5,452.5C 386.516,452.841 389.182,454.007 391.5,456C 395.061,460.386 398.727,464.552 402.5,468.5C 396.146,467.329 389.813,465.995 383.5,464.5C 382.416,464.685 381.416,465.018 380.5,465.5C 377.525,459.346 372.859,455.012 366.5,452.5 Z"/></g>
<g><path style="opacity:1" fill="#c5c5c4" d="M 335.5,512.5 C 339.986,517.635 345.652,520.635 352.5,521.5C 351.432,522.434 350.099,522.768 348.5,522.5C 340.169,522.171 333.836,518.505 329.5,511.5C 324.89,499.893 323.557,487.893 325.5,475.5C 316.993,475.14 308.66,474.473 300.5,473.5C 301.552,473.649 302.552,473.483 303.5,473C 302.26,468.866 302.26,464.699 303.5,460.5C 311.702,462.378 320.035,463.212 328.5,463C 332.034,459.131 335.867,455.631 340,452.5C 337.26,459.989 333.926,467.323 330,474.5C 329.188,485.206 329.522,495.873 331,506.5C 331.792,509.106 333.292,511.106 335.5,512.5 Z"/></g>
<g><path style="opacity:1" fill="#febe9e" d="M 364.5,452.5 C 365.167,452.5 365.833,452.5 366.5,452.5C 372.859,455.012 377.525,459.346 380.5,465.5C 380.5,465.833 380.5,466.167 380.5,466.5C 376.965,469.055 372.965,470.388 368.5,470.5C 367.32,467.46 365.653,464.794 363.5,462.5C 362.188,460.521 360.521,458.855 358.5,457.5C 360.491,455.836 362.491,454.169 364.5,452.5 Z"/></g>
<g><path style="opacity:1" fill="#2a363c" d="M 303.5,460.5 C 302.26,464.699 302.26,468.866 303.5,473C 302.552,473.483 301.552,473.649 300.5,473.5C 295.246,473.437 290.246,472.27 285.5,470C 281.802,467.081 280.136,463.247 280.5,458.5C 288.149,459.355 295.816,460.021 303.5,460.5 Z"/></g>
<g><path style="opacity:1" fill="#fed584" d="M 363.5,462.5 C 365.653,464.794 367.32,467.46 368.5,470.5C 372.427,485.608 370.093,499.608 361.5,512.5C 359.664,514.588 357.331,515.921 354.5,516.5C 351.196,514.027 348.362,511.027 346,507.5C 340.56,493.654 341.56,480.321 349,467.5C 352.596,462.038 357.429,460.372 363.5,462.5 Z"/></g>
<g><path style="opacity:1" fill="#c1c1c1" d="M 402.5,468.5 C 403.391,469.11 404.391,469.443 405.5,469.5C 409.695,472.459 414.362,474.459 419.5,475.5C 417.119,480.198 416.119,485.198 416.5,490.5C 410.048,490.084 403.715,490.584 397.5,492C 394.295,499.143 390.629,505.976 386.5,512.5C 386.167,512.5 385.833,512.5 385.5,512.5C 382.946,511.612 380.279,511.279 377.5,511.5C 384.088,496.828 385.088,481.828 380.5,466.5C 380.5,466.167 380.5,465.833 380.5,465.5C 381.416,465.018 382.416,464.685 383.5,464.5C 389.813,465.995 396.146,467.329 402.5,468.5 Z"/></g>
<g><path style="opacity:1" fill="#e9e8e7" d="M 405.5,469.5 C 422.089,471.549 438.756,472.716 455.5,473C 452.978,475.09 450.312,476.924 447.5,478.5C 438.147,477.704 428.814,476.704 419.5,475.5C 414.362,474.459 409.695,472.459 405.5,469.5 Z"/></g>
<g><path style="opacity:1" fill="#2a353b" d="M 419.5,475.5 C 428.814,476.704 438.147,477.704 447.5,478.5C 446.235,479.479 444.901,480.479 443.5,481.5C 442.508,485.783 442.174,490.116 442.5,494.5C 439.14,494.384 435.807,494.051 432.5,493.5C 428.829,493.278 425.163,492.944 421.5,492.5C 419.36,492.444 417.694,491.777 416.5,490.5C 416.119,485.198 417.119,480.198 419.5,475.5 Z"/></g>
<g><path style="opacity:1" fill="#f1f1f1" d="M 757.5,485.5 C 785.833,485.5 814.167,485.5 842.5,485.5C 842.5,509.833 842.5,534.167 842.5,558.5C 806.167,558.5 769.833,558.5 733.5,558.5C 732.609,545.855 732.609,533.188 733.5,520.5C 741.479,519.776 749.479,519.442 757.5,519.5C 757.5,508.167 757.5,496.833 757.5,485.5 Z"/></g>
<g><path style="opacity:1" fill="#f3f2f1" d="M 380.5,466.5 C 385.088,481.828 384.088,496.828 377.5,511.5C 373.958,511.187 370.625,511.521 367.5,512.5C 365.5,512.5 363.5,512.5 361.5,512.5C 370.093,499.608 372.427,485.608 368.5,470.5C 372.965,470.388 376.965,469.055 380.5,466.5 Z"/></g>
<g><path style="opacity:1" fill="#e0dfde" d="M 501.5,488.5 C 501.5,494.167 501.5,499.833 501.5,505.5C 478.971,505.721 456.638,508.388 434.5,513.5C 435.066,506.549 434.399,499.882 432.5,493.5C 435.807,494.051 439.14,494.384 442.5,494.5C 442.5,496.833 442.5,499.167 442.5,501.5C 447.875,501.828 453.208,501.495 458.5,500.5C 460.267,497.025 461.933,493.525 463.5,490C 468.315,488.955 472.648,486.955 476.5,484C 478.5,483.333 480.5,483.333 482.5,484C 488.974,485.461 495.308,486.961 501.5,488.5 Z"/></g>
<g><path style="opacity:1" fill="#f0f0f0" d="M 416.5,490.5 C 417.694,491.777 419.36,492.444 421.5,492.5C 425.163,492.944 428.829,493.278 432.5,493.5C 434.399,499.882 435.066,506.549 434.5,513.5C 426.149,515.173 418.149,517.839 410.5,521.5C 406.143,518.655 401.477,516.322 396.5,514.5C 393.211,513.626 389.877,512.959 386.5,512.5C 390.629,505.976 394.295,499.143 397.5,492C 403.715,490.584 410.048,490.084 416.5,490.5 Z"/></g>
<g><path style="opacity:1" fill="#ffd586" d="M 665.5,495.5 C 672.167,495.5 678.833,495.5 685.5,495.5C 685.5,499.167 685.5,502.833 685.5,506.5C 679.167,506.5 672.833,506.5 666.5,506.5C 666.756,502.731 666.423,499.064 665.5,495.5 Z"/></g>
<g><path style="opacity:1" fill="#ffe1a8" d="M 665.5,495.5 C 666.423,499.064 666.756,502.731 666.5,506.5C 666.5,506.833 666.5,507.167 666.5,507.5C 659.5,507.5 652.5,507.5 645.5,507.5C 645.5,503.5 645.5,499.5 645.5,495.5C 652.167,495.5 658.833,495.5 665.5,495.5 Z"/></g>
<g><path style="opacity:1" fill="#50432a" d="M 616.5,448.5 C 616.5,472.167 616.5,495.833 616.5,519.5C 615.593,528.602 613.927,537.602 611.5,546.5C 595.006,550.362 578.673,554.862 562.5,560C 551.434,565.868 541.434,573.201 532.5,582C 521.817,582.646 511.15,582.479 500.5,581.5C 496.03,580.514 491.363,580.181 486.5,580.5C 490.707,618.108 494.373,655.774 497.5,693.5C 483.753,696.803 469.753,699.47 455.5,701.5C 448.313,673.086 441.313,644.753 434.5,616.5C 432.445,606.495 430.278,596.495 428,586.5C 425.581,592.607 423.081,598.607 420.5,604.5C 420.73,584.826 420.897,565.16 421,545.5C 419.374,536.591 415.874,528.591 410.5,521.5C 418.149,517.839 426.149,515.173 434.5,513.5C 456.638,508.388 478.971,505.721 501.5,505.5C 505.6,505.763 509.6,505.43 513.5,504.5C 527.651,505.833 542.151,506.499 557,506.5C 576.507,506.385 596.007,506.052 615.5,505.5C 615.17,486.326 615.503,467.326 616.5,448.5 Z"/></g>
<g><path style="opacity:1" fill="#feca66" d="M 300.5,506.5 C 301.873,506.343 303.207,506.51 304.5,507C 299.688,509.406 295.021,511.739 290.5,514C 293.365,510.749 296.699,508.249 300.5,506.5 Z"/></g>
<g><path style="opacity:0.999" fill="#fec454" d="M 329.5,511.5 C 333.836,518.505 340.169,522.171 348.5,522.5C 353.316,523.65 358.316,523.816 363.5,523C 359.748,522.76 356.081,522.26 352.5,521.5C 345.652,520.635 339.986,517.635 335.5,512.5C 338.85,512.335 342.183,512.502 345.5,513C 347.836,515.833 350.836,517 354.5,516.5C 357.331,515.921 359.664,514.588 361.5,512.5C 363.5,512.5 365.5,512.5 367.5,512.5C 370.518,512.335 373.518,512.502 376.5,513C 373.813,516.683 370.813,520.017 367.5,523C 374.823,521.836 380.823,518.336 385.5,512.5C 385.833,512.5 386.167,512.5 386.5,512.5C 389.877,512.959 393.211,513.626 396.5,514.5C 401.401,517.892 405.901,521.892 410,526.5C 412.908,531.551 415.242,536.884 417,542.5C 416.823,570.831 416.823,599.165 417,627.5C 417.968,650.957 422.635,673.624 431,695.5C 434.802,704.779 440.302,712.779 447.5,719.5C 449.833,721.5 452.167,723.5 454.5,725.5C 455.167,726.833 456.167,727.833 457.5,728.5C 468.384,736.191 480.384,738.524 493.5,735.5C 516.354,731.328 532.521,718.661 542,697.5C 549.159,677.776 551.492,657.443 549,636.5C 547.522,629.269 545.356,622.269 542.5,615.5C 567.746,608.145 593.079,600.645 618.5,593C 638.816,589.004 659.149,585.17 679.5,581.5C 686.782,601.861 691.282,622.861 693,644.5C 703.742,650.281 713.242,657.614 721.5,666.5C 697.679,656.224 673.013,653.724 647.5,659C 627.288,665.217 611.788,677.384 601,695.5C 591.985,711.376 586.485,728.376 584.5,746.5C 583.5,746.5 582.5,746.5 581.5,746.5C 569.419,744.695 558.086,740.695 547.5,734.5C 546.155,746.884 546.489,759.218 548.5,771.5C 506.882,775.94 465.215,776.607 423.5,773.5C 427.398,751.703 424.231,731.036 414,711.5C 409.884,705.544 404.717,700.878 398.5,697.5C 382.337,679.596 363.004,675.096 340.5,684C 329.206,692.958 318.206,702.291 307.5,712C 283.534,728.193 261.867,725.693 242.5,704.5C 245.36,698.635 249.027,693.302 253.5,688.5C 260.535,682.805 267.868,677.471 275.5,672.5C 275.833,671.667 276.167,670.833 276.5,670C 269.202,625.254 271.702,581.087 284,537.5C 292.451,517.238 307.618,508.571 329.5,511.5 Z M 501.5,605.5 C 503.543,608.543 506.21,610.876 509.5,612.5C 511.679,633.682 510.512,654.682 506,675.5C 504.962,679.468 503.462,683.135 501.5,686.5C 501.5,659.5 501.5,632.5 501.5,605.5 Z"/></g>
<g><path style="opacity:1" fill="#d1a54f" d="M 367.5,512.5 C 370.625,511.521 373.958,511.187 377.5,511.5C 380.279,511.279 382.946,511.612 385.5,512.5C 380.823,518.336 374.823,521.836 367.5,523C 370.813,520.017 373.813,516.683 376.5,513C 373.518,512.502 370.518,512.335 367.5,512.5 Z"/></g>
<g><path style="opacity:1" fill="#b68e40" d="M 396.5,514.5 C 401.477,516.322 406.143,518.655 410.5,521.5C 415.874,528.591 419.374,536.591 421,545.5C 420.897,565.16 420.73,584.826 420.5,604.5C 421.049,634.122 425.382,663.122 433.5,691.5C 437.126,701.418 441.792,710.751 447.5,719.5C 440.302,712.779 434.802,704.779 431,695.5C 422.635,673.624 417.968,650.957 417,627.5C 416.823,599.165 416.823,570.831 417,542.5C 415.242,536.884 412.908,531.551 410,526.5C 405.901,521.892 401.401,517.892 396.5,514.5 Z"/></g>
<g><path style="opacity:1" fill="#263238" d="M 652.5,521.5 C 664.908,525.032 676.908,529.865 688.5,536C 695.965,541.372 698.965,548.705 697.5,558C 698.491,565.355 696.825,572.021 692.5,578C 688.382,579.946 684.049,581.113 679.5,581.5C 659.149,585.17 638.816,589.004 618.5,593C 593.079,600.645 567.746,608.145 542.5,615.5C 531.227,617.2 520.227,616.2 509.5,612.5C 506.21,610.876 503.543,608.543 501.5,605.5C 499.714,600.685 498.714,595.685 498.5,590.5C 498.346,587.263 499.013,584.263 500.5,581.5C 511.15,582.479 521.817,582.646 532.5,582C 541.434,573.201 551.434,565.868 562.5,560C 578.673,554.862 595.006,550.362 611.5,546.5C 613.927,537.602 615.593,528.602 616.5,519.5C 628.62,517.892 640.62,518.559 652.5,521.5 Z"/></g>
<g><path style="opacity:1" fill="#e7e7e6" d="M 705.5,520.5 C 714.833,520.5 724.167,520.5 733.5,520.5C 732.609,533.188 732.609,545.855 733.5,558.5C 769.833,558.5 806.167,558.5 842.5,558.5C 842.5,559.833 842.5,561.167 842.5,562.5C 806.167,562.5 769.833,562.5 733.5,562.5C 733.282,576.503 732.949,590.503 732.5,604.5C 725.444,604.566 718.444,605.232 711.5,606.5C 718.465,607.112 725.465,607.112 732.5,606.5C 733.473,616.084 733.806,625.75 733.5,635.5C 766.833,635.5 800.167,635.5 833.5,635.5C 824.515,636.027 815.515,636.861 806.5,638C 818.513,638.611 830.513,638.444 842.5,637.5C 842.5,638.167 842.5,638.833 842.5,639.5C 827.5,639.5 812.5,639.5 797.5,639.5C 795.429,638.191 792.929,637.525 790,637.5C 787.31,637.503 784.81,637.836 782.5,638.5C 778.069,638.231 773.735,638.564 769.5,639.5C 757.167,639.5 744.833,639.5 732.5,639.5C 733.02,653.828 733.353,668.161 733.5,682.5C 729.987,676.809 725.987,671.476 721.5,666.5C 713.242,657.614 703.742,650.281 693,644.5C 691.282,622.861 686.782,601.861 679.5,581.5C 684.049,581.113 688.382,579.946 692.5,578C 696.825,572.021 698.491,565.355 697.5,558C 698.965,548.705 695.965,541.372 688.5,536C 676.908,529.865 664.908,525.032 652.5,521.5C 670.341,521.83 688.008,521.497 705.5,520.5 Z"/></g>
<g><path style="opacity:1" fill="#dcc496" d="M 352.5,521.5 C 356.081,522.26 359.748,522.76 363.5,523C 358.316,523.816 353.316,523.65 348.5,522.5C 350.099,522.768 351.432,522.434 352.5,521.5 Z"/></g>
<g><path style="opacity:0.992" fill="#f0f0f0" d="M 90.5,449.5 C 134.833,449.5 179.167,449.5 223.5,449.5C 223.5,480.5 223.5,511.5 223.5,542.5C 179.5,542.5 135.5,542.5 91.5,542.5C 91.5,543.5 91.5,544.5 91.5,545.5C 135.5,545.5 179.5,545.5 223.5,545.5C 223.5,583.167 223.5,620.833 223.5,658.5C 179.5,658.5 135.5,658.5 91.5,658.5C 91.5,659.5 91.5,660.5 91.5,661.5C 135.5,661.5 179.5,661.5 223.5,661.5C 223.5,695.5 223.5,729.5 223.5,763.5C 178.861,763.51 134.528,763.51 90.5,763.5C 90.5,658.833 90.5,554.167 90.5,449.5 Z"/></g>
<g><path style="opacity:1" fill="#fccc6f" d="M 281.5,524.5 C 282.097,524.735 282.43,525.235 282.5,526C 274.058,543.452 269.725,561.952 269.5,581.5C 267.654,561.225 271.654,542.225 281.5,524.5 Z"/></g>
<g><path style="opacity:1" fill="#f1f1f0" d="M 842.5,562.5 C 842.5,569.5 842.5,576.5 842.5,583.5C 840.654,583.222 839.32,583.889 838.5,585.5C 839.689,586.429 841.022,586.762 842.5,586.5C 842.5,602.833 842.5,619.167 842.5,635.5C 839.5,635.5 836.5,635.5 833.5,635.5C 800.167,635.5 766.833,635.5 733.5,635.5C 733.806,625.75 733.473,616.084 732.5,606.5C 756.165,605.691 779.831,604.857 803.5,604C 809.604,603.04 809.771,602.206 804,601.5C 780.196,603.178 756.363,604.178 732.5,604.5C 732.949,590.503 733.282,576.503 733.5,562.5C 769.833,562.5 806.167,562.5 842.5,562.5 Z"/></g>
<g><path style="opacity:1" fill="#fec964" d="M 791.5,585.5 C 804.171,585.333 816.838,585.5 829.5,586C 805.49,587.834 781.49,588.667 757.5,588.5C 768.992,587.57 780.325,586.57 791.5,585.5 Z"/></g>
<g><path style="opacity:1" fill="#eeedec" d="M 434.5,616.5 C 434.831,641.672 434.498,666.672 433.5,691.5C 425.382,663.122 421.049,634.122 420.5,604.5C 423.081,598.607 425.581,592.607 428,586.5C 430.278,596.495 432.445,606.495 434.5,616.5 Z"/></g>
<g><path style="opacity:0.957" fill="#e1e0e0" d="M 500.5,581.5 C 499.013,584.263 498.346,587.263 498.5,590.5C 498.714,595.685 499.714,600.685 501.5,605.5C 501.5,632.5 501.5,659.5 501.5,686.5C 501.606,689.079 500.939,691.412 499.5,693.5C 498.833,693.5 498.167,693.5 497.5,693.5C 494.373,655.774 490.707,618.108 486.5,580.5C 491.363,580.181 496.03,580.514 500.5,581.5 Z"/></g>
<g><path style="opacity:1" fill="#fdca6a" d="M 732.5,606.5 C 725.465,607.112 718.465,607.112 711.5,606.5C 718.444,605.232 725.444,604.566 732.5,604.5C 756.363,604.178 780.196,603.178 804,601.5C 809.771,602.206 809.604,603.04 803.5,604C 779.831,604.857 756.165,605.691 732.5,606.5 Z"/></g>
<g><path style="opacity:1" fill="#b38a3b" d="M 509.5,612.5 C 520.227,616.2 531.227,617.2 542.5,615.5C 545.356,622.269 547.522,629.269 549,636.5C 551.492,657.443 549.159,677.776 542,697.5C 532.521,718.661 516.354,731.328 493.5,735.5C 494.53,734.448 495.197,733.114 495.5,731.5C 494.838,728.532 494.505,725.532 494.5,722.5C 493.167,722.5 491.833,722.5 490.5,722.5C 490.435,719.572 489.768,716.905 488.5,714.5C 492.298,713.517 496.298,713.183 500.5,713.5C 500.824,706.646 500.491,699.979 499.5,693.5C 500.939,691.412 501.606,689.079 501.5,686.5C 503.462,683.135 504.962,679.468 506,675.5C 510.512,654.682 511.679,633.682 509.5,612.5 Z"/></g>
<g><path style="opacity:1" fill="#e4e3e2" d="M 434.5,616.5 C 441.313,644.753 448.313,673.086 455.5,701.5C 454.791,702.404 453.791,702.737 452.5,702.5C 453.506,706.858 454.673,711.191 456,715.5C 458.719,716.444 461.552,716.777 464.5,716.5C 465.833,716.5 467.167,716.5 468.5,716.5C 468.5,718.5 468.5,720.5 468.5,722.5C 464.888,721.924 461.888,722.924 459.5,725.5C 457.833,725.5 456.167,725.5 454.5,725.5C 452.167,723.5 449.833,721.5 447.5,719.5C 441.792,710.751 437.126,701.418 433.5,691.5C 434.498,666.672 434.831,641.672 434.5,616.5 Z"/></g>
<g><path style="opacity:1" fill="#f0d7a7" d="M 782.5,638.5 C 784.81,637.836 787.31,637.503 790,637.5C 792.929,637.525 795.429,638.191 797.5,639.5C 797.167,639.5 796.833,639.5 796.5,639.5C 792.03,638.514 787.363,638.181 782.5,638.5 Z"/></g>
<g><path style="opacity:1" fill="#fac96a" d="M 833.5,635.5 C 836.5,635.5 839.5,635.5 842.5,635.5C 850.84,635.334 859.173,635.5 867.5,636C 859.337,637.467 851.004,637.967 842.5,637.5C 830.513,638.444 818.513,638.611 806.5,638C 815.515,636.861 824.515,636.027 833.5,635.5 Z"/></g>
<g><path style="opacity:1" fill="#fdc75f" d="M 782.5,638.5 C 787.363,638.181 792.03,638.514 796.5,639.5C 787.331,640.323 778.331,640.323 769.5,639.5C 773.735,638.564 778.069,638.231 782.5,638.5 Z"/></g>
<g><path style="opacity:1" fill="#f0f0f0" d="M 769.5,639.5 C 778.331,640.323 787.331,640.323 796.5,639.5C 796.833,639.5 797.167,639.5 797.5,639.5C 812.5,639.5 827.5,639.5 842.5,639.5C 842.5,681.833 842.5,724.167 842.5,766.5C 806.833,766.5 771.167,766.5 735.5,766.5C 736.229,753.224 734.729,740.224 731,727.5C 729.663,723.493 727.83,719.827 725.5,716.5C 735.572,707.017 738.239,695.684 733.5,682.5C 733.353,668.161 733.02,653.828 732.5,639.5C 744.833,639.5 757.167,639.5 769.5,639.5 Z"/></g>
<g><path style="opacity:1" fill="#b2893b" d="M 721.5,666.5 C 725.987,671.476 729.987,676.809 733.5,682.5C 738.239,695.684 735.572,707.017 725.5,716.5C 717.058,723.056 707.724,728.056 697.5,731.5C 691.753,733.525 686.086,735.525 680.5,737.5C 664.829,741.366 649.162,744.699 633.5,747.5C 621.226,749.092 608.893,749.758 596.5,749.5C 591.463,748.718 586.463,747.718 581.5,746.5C 582.5,746.5 583.5,746.5 584.5,746.5C 586.485,728.376 591.985,711.376 601,695.5C 611.788,677.384 627.288,665.217 647.5,659C 673.013,653.724 697.679,656.224 721.5,666.5 Z"/></g>
<g><path style="opacity:1" fill="#b1893b" d="M 398.5,697.5 C 376.62,689.042 355.954,691.208 336.5,704C 328.463,711.705 320.13,719.039 311.5,726C 303.631,730.345 295.298,733.178 286.5,734.5C 275.601,735.185 265.268,733.185 255.5,728.5C 243.745,724.315 239.412,716.315 242.5,704.5C 261.867,725.693 283.534,728.193 307.5,712C 318.206,702.291 329.206,692.958 340.5,684C 363.004,675.096 382.337,679.596 398.5,697.5 Z"/></g>
<g><path style="opacity:1" fill="#1b2327" d="M 398.5,697.5 C 404.717,700.878 409.884,705.544 414,711.5C 424.231,731.036 427.398,751.703 423.5,773.5C 422.112,780.998 420.112,788.332 417.5,795.5C 416.5,795.833 415.833,796.5 415.5,797.5C 414.025,801.783 412.025,805.783 409.5,809.5C 402.327,817.839 394.327,825.339 385.5,832C 364.57,843.656 343.237,844.489 321.5,834.5C 292.897,813.603 280.397,785.269 284,749.5C 284.9,744.499 285.734,739.499 286.5,734.5C 295.298,733.178 303.631,730.345 311.5,726C 320.13,719.039 328.463,711.705 336.5,704C 355.954,691.208 376.62,689.042 398.5,697.5 Z"/></g>
<g><path style="opacity:1" fill="#fcc253" d="M 497.5,693.5 C 498.167,693.5 498.833,693.5 499.5,693.5C 500.491,699.979 500.824,706.646 500.5,713.5C 496.298,713.183 492.298,713.517 488.5,714.5C 480.34,714.995 472.34,715.662 464.5,716.5C 461.552,716.777 458.719,716.444 456,715.5C 454.673,711.191 453.506,706.858 452.5,702.5C 453.791,702.737 454.791,702.404 455.5,701.5C 469.753,699.47 483.753,696.803 497.5,693.5 Z"/></g>
<g><path style="opacity:1" fill="#474d50" d="M 355.5,713.5 C 373.725,711.9 386.225,719.567 393,736.5C 398.376,753.235 397.376,769.569 390,785.5C 382.066,799.051 370.233,805.051 354.5,803.5C 371.163,792.512 379.163,776.846 378.5,756.5C 378.632,745.657 375.798,735.657 370,726.5C 365.522,721.509 360.689,717.176 355.5,713.5 Z"/></g>
<g><path style="opacity:1" fill="#263238" d="M 355.5,713.5 C 360.689,717.176 365.522,721.509 370,726.5C 375.798,735.657 378.632,745.657 378.5,756.5C 379.163,776.846 371.163,792.512 354.5,803.5C 339.127,798.285 329.96,787.619 327,771.5C 322.705,750.828 328.205,733.328 343.5,719C 347.133,716.35 351.133,714.517 355.5,713.5 Z"/></g>
<g><path style="opacity:1" fill="#fdbd99" d="M 488.5,714.5 C 489.768,716.905 490.435,719.572 490.5,722.5C 483.167,722.5 475.833,722.5 468.5,722.5C 468.5,720.5 468.5,718.5 468.5,716.5C 467.167,716.5 465.833,716.5 464.5,716.5C 472.34,715.662 480.34,714.995 488.5,714.5 Z"/></g>
<g><path style="opacity:0.999" fill="#1b2327" d="M 725.5,716.5 C 727.83,719.827 729.663,723.493 731,727.5C 734.729,740.224 736.229,753.224 735.5,766.5C 735.648,771.322 734.981,775.988 733.5,780.5C 733.5,781.167 733.5,781.833 733.5,782.5C 730.711,793.212 726.377,803.212 720.5,812.5C 714.364,819.468 707.698,825.968 700.5,832C 680.452,845.65 659.119,848.15 636.5,839.5C 603.636,818.259 590.302,788.259 596.5,749.5C 608.893,749.758 621.226,749.092 633.5,747.5C 634.376,747.369 635.043,747.702 635.5,748.5C 630.795,768.517 635.795,785.684 650.5,800C 654.133,802.65 658.133,804.483 662.5,805.5C 680.253,807.043 692.753,799.709 700,783.5C 704.321,771.88 705.654,759.88 704,747.5C 702.653,741.811 700.487,736.477 697.5,731.5C 707.724,728.056 717.058,723.056 725.5,716.5 Z"/></g>
<g><path style="opacity:1" fill="#2d3639" d="M 468.5,722.5 C 475.833,722.5 483.167,722.5 490.5,722.5C 491.833,722.5 493.167,722.5 494.5,722.5C 494.505,725.532 494.838,728.532 495.5,731.5C 495.197,733.114 494.53,734.448 493.5,735.5C 480.384,738.524 468.384,736.191 457.5,728.5C 457.782,727.222 458.449,726.222 459.5,725.5C 461.888,722.924 464.888,721.924 468.5,722.5 Z"/></g>
<g><path style="opacity:1" fill="#b59f73" d="M 454.5,725.5 C 456.167,725.5 457.833,725.5 459.5,725.5C 458.449,726.222 457.782,727.222 457.5,728.5C 456.167,727.833 455.167,726.833 454.5,725.5 Z"/></g>
<g><path style="opacity:0.998" fill="#29353b" d="M 255.5,728.5 C 265.268,733.185 275.601,735.185 286.5,734.5C 285.734,739.499 284.9,744.499 284,749.5C 280.397,785.269 292.897,813.603 321.5,834.5C 305.09,829.625 289.757,822.625 275.5,813.5C 266.153,803.65 259.486,792.15 255.5,779C 192.833,778.333 192.833,777.667 255.5,777C 254.136,773.317 253.469,769.484 253.5,765.5C 251.78,753.002 252.447,740.669 255.5,728.5 Z"/></g>
<g><path style="opacity:1" fill="#474d50" d="M 697.5,731.5 C 700.487,736.477 702.653,741.811 704,747.5C 705.654,759.88 704.321,771.88 700,783.5C 692.753,799.709 680.253,807.043 662.5,805.5C 678.983,794.709 686.983,779.209 686.5,759C 686.727,751.643 685.727,744.476 683.5,737.5C 682.5,737.5 681.5,737.5 680.5,737.5C 686.086,735.525 691.753,733.525 697.5,731.5 Z"/></g>
<g><path style="opacity:0.998" fill="#263238" d="M 581.5,746.5 C 586.463,747.718 591.463,748.718 596.5,749.5C 590.302,788.259 603.636,818.259 636.5,839.5C 618.454,834.429 600.787,828.262 583.5,821C 578.27,816.923 572.936,813.09 567.5,809.5C 562.963,802.933 558.296,796.433 553.5,790C 553.833,789.667 554.167,789.333 554.5,789C 551.803,783.409 549.803,777.576 548.5,771.5C 546.489,759.218 546.155,746.884 547.5,734.5C 558.086,740.695 569.419,744.695 581.5,746.5 Z"/></g>
<g><path style="opacity:1" fill="#263238" d="M 680.5,737.5 C 681.5,737.5 682.5,737.5 683.5,737.5C 685.727,744.476 686.727,751.643 686.5,759C 686.983,779.209 678.983,794.709 662.5,805.5C 658.133,804.483 654.133,802.65 650.5,800C 635.795,785.684 630.795,768.517 635.5,748.5C 635.043,747.702 634.376,747.369 633.5,747.5C 649.162,744.699 664.829,741.366 680.5,737.5 Z"/></g>
<g><path style="opacity:1" fill="#fad58e" d="M 773.5,757.5 C 775.199,757.34 776.866,757.506 778.5,758C 775.143,759.011 771.809,759.677 768.5,760C 770.175,759.015 771.842,758.181 773.5,757.5 Z"/></g>
<g><path style="opacity:0.492" fill="#ffc950" d="M 755.5,767.5 C 756.552,767.351 757.552,767.517 758.5,768C 755.333,771.833 752.167,775.667 749,779.5C 748.48,777.711 748.813,776.044 750,774.5C 751.842,772.136 753.675,769.803 755.5,767.5 Z"/></g>
<g><path style="opacity:0.459" fill="#ffc453" d="M 797.5,768.5 C 800.572,768.183 803.572,768.516 806.5,769.5C 802.857,770.312 799.191,770.979 795.5,771.5C 794.833,771.167 794.167,770.833 793.5,770.5C 794.949,769.828 796.282,769.161 797.5,768.5 Z"/></g>
<g><path style="opacity:0.501" fill="#fec857" d="M 777.5,780.5 C 775.62,780.229 774.287,780.896 773.5,782.5C 772.193,783.153 770.86,783.82 769.5,784.5C 768.702,784.043 768.369,783.376 768.5,782.5C 770.153,782.34 771.486,781.674 772.5,780.5C 775.102,778.858 777.769,777.192 780.5,775.5C 781.521,776.002 781.688,776.668 781,777.5C 779.482,778.163 778.315,779.163 777.5,780.5 Z"/></g>
<g><path style="opacity:0.251" fill="#ebebea" d="M 733.5,780.5 C 746.5,780.5 759.5,780.5 772.5,780.5C 771.486,781.674 770.153,782.34 768.5,782.5C 756.833,782.5 745.167,782.5 733.5,782.5C 733.5,781.833 733.5,781.167 733.5,780.5 Z"/></g>
<g><path style="opacity:0.251" fill="#ebebeb" d="M 777.5,780.5 C 818.172,780.167 858.839,780.5 899.5,781.5C 857.505,782.5 815.505,782.833 773.5,782.5C 774.287,780.896 775.62,780.229 777.5,780.5 Z"/></g>
<g><path style="opacity:0.502" fill="#eaeaea" d="M 103.5,790.5 C 137.998,789.336 172.664,789.169 207.5,790C 172.835,790.5 138.168,790.667 103.5,790.5 Z"/></g>
<g><path style="opacity:0.492" fill="#ffc751" d="M 741.5,790.5 C 742.497,790.47 743.164,790.97 743.5,792C 741.996,796.511 740.496,801.011 739,805.5C 738.308,804.975 737.808,804.308 737.5,803.5C 738.838,799.154 740.171,794.821 741.5,790.5 Z"/></g>
<g><path style="opacity:0.475" fill="#ffc452" d="M 757.5,791.5 C 758.776,792.386 758.776,793.386 757.5,794.5C 754.5,797.167 751.5,799.833 748.5,802.5C 747.479,801.998 747.312,801.332 748,800.5C 751.062,797.268 754.229,794.268 757.5,791.5 Z"/></g>
<g><path style="opacity:0.243" fill="#e4e4e4" d="M 417.5,795.5 C 419.604,795.201 421.604,795.534 423.5,796.5C 420.914,797.48 418.247,797.813 415.5,797.5C 415.833,796.5 416.5,795.833 417.5,795.5 Z"/></g>
<g><path style="opacity:0.979" fill="#f4f4f3" d="M 567.5,809.5 C 572.936,813.09 578.27,816.923 583.5,821C 600.787,828.262 618.454,834.429 636.5,839.5C 659.119,848.15 680.452,845.65 700.5,832C 707.698,825.968 714.364,819.468 720.5,812.5C 766.932,814.34 813.265,817.84 859.5,823C 867.638,824.028 875.638,825.694 883.5,828C 888.833,830.667 888.833,833.333 883.5,836C 867.05,839.969 850.384,842.636 833.5,844C 787.242,847.959 740.909,850.625 694.5,852C 564.5,856.667 434.5,856.667 304.5,852C 261.778,850.664 219.111,848.331 176.5,845C 160.094,843.574 143.761,841.574 127.5,839C 121.791,838.042 116.457,836.209 111.5,833.5C 115.647,832.675 119.981,832.175 124.5,832C 119.981,831.825 115.647,831.325 111.5,830.5C 114.752,828.134 118.419,826.634 122.5,826C 173.211,818.445 224.211,814.279 275.5,813.5C 289.757,822.625 305.09,829.625 321.5,834.5C 343.237,844.489 364.57,843.656 385.5,832C 394.327,825.339 402.327,817.839 409.5,809.5C 462.169,808.341 514.835,808.341 567.5,809.5 Z"/></g>
<g><path style="opacity:0.555" fill="#ffc553" d="M 34.5,830.5 C 38.1667,830.5 41.8333,830.5 45.5,830.5C 45.5,831.5 45.5,832.5 45.5,833.5C 41.8333,833.5 38.1667,833.5 34.5,833.5C 34.5,832.5 34.5,831.5 34.5,830.5 Z"/></g>
<g><path style="opacity:0.557" fill="#ffc554" d="M 56.5,830.5 C 61.8333,830.5 67.1667,830.5 72.5,830.5C 72.5,831.5 72.5,832.5 72.5,833.5C 67.1667,833.5 61.8333,833.5 56.5,833.5C 56.5,832.5 56.5,831.5 56.5,830.5 Z"/></g>
<g><path style="opacity:0.559" fill="#ffc554" d="M 83.5,830.5 C 88.5,830.5 93.5,830.5 98.5,830.5C 98.5,831.5 98.5,832.5 98.5,833.5C 93.5,833.5 88.5,833.5 83.5,833.5C 83.5,832.5 83.5,831.5 83.5,830.5 Z"/></g>
<g><path style="opacity:0.852" fill="#ffc554" d="M 111.5,830.5 C 115.647,831.325 119.981,831.825 124.5,832C 119.981,832.175 115.647,832.675 111.5,833.5C 108.833,832.5 108.833,831.5 111.5,830.5 Z"/></g>
</svg>
