<?xml version="1.0" encoding="UTF-8"?>
<!DOCTYPE svg PUBLIC "-//W3C//DTD SVG 1.1//EN" "http://www.w3.org/Graphics/SVG/1.1/DTD/svg11.dtd">
<svg xmlns="http://www.w3.org/2000/svg" version="1.1" width="664px" height="638px" style="shape-rendering:geometricPrecision; text-rendering:geometricPrecision; image-rendering:optimizeQuality; fill-rule:evenodd; clip-rule:evenodd" xmlns:xlink="http://www.w3.org/1999/xlink">
<g><path style="opacity:1" fill="#f3f3f3" d="M -0.5,-0.5 C 220.833,-0.5 442.167,-0.5 663.5,-0.5C 663.5,212.167 663.5,424.833 663.5,637.5C 442.167,637.5 220.833,637.5 -0.5,637.5C -0.5,424.833 -0.5,212.167 -0.5,-0.5 Z"/></g>
<g><path style="opacity:1" fill="#eccaa8" d="M 306.5,117.5 C 305.761,117.369 305.094,117.536 304.5,118C 317.135,131.041 321.468,146.208 317.5,163.5C 308.825,163.033 300.158,162.366 291.5,161.5C 290.636,159.803 289.303,158.637 287.5,158C 264.45,156.645 242.45,160.478 221.5,169.5C 220.853,168.726 220.52,167.726 220.5,166.5C 221.03,156.46 221.863,146.46 223,136.5C 226.763,130.401 231.597,125.234 237.5,121C 243.206,117.44 249.206,114.607 255.5,112.5C 268.154,111.334 280.82,111.167 293.5,112C 297.923,113.885 302.256,115.719 306.5,117.5 Z"/></g>
<g><path style="opacity:1" fill="#f5e2cd" d="M 247.5,119.5 C 250.167,119.5 252.833,119.5 255.5,119.5C 255.799,121.604 255.466,123.604 254.5,125.5C 248.902,130.813 242.236,133.813 234.5,134.5C 233.53,130.069 235.197,127.735 239.5,127.5C 239.238,126.022 239.571,124.689 240.5,123.5C 242.765,121.873 245.099,120.539 247.5,119.5 Z"/></g>
<g><path style="opacity:1" fill="#c6a78a" d="M 306.5,117.5 C 316.177,124.488 322.677,133.821 326,145.5C 327.586,152.438 328.753,159.438 329.5,166.5C 325.431,165.311 321.431,164.311 317.5,163.5C 321.468,146.208 317.135,131.041 304.5,118C 305.094,117.536 305.761,117.369 306.5,117.5 Z"/></g>
<g><path style="opacity:1" fill="#f8e0c9" d="M 255.5,151.5 C 260.844,151.334 266.177,151.501 271.5,152C 276.103,152.111 280.436,153.111 284.5,155C 263.027,153.498 242.527,156.998 223,165.5C 222.612,163.924 223.112,162.591 224.5,161.5C 234.3,156.141 244.633,152.808 255.5,151.5 Z"/></g>
<g><path style="opacity:1" fill="#736458" d="M 317.5,163.5 C 321.431,164.311 325.431,165.311 329.5,166.5C 329.5,169.167 329.5,171.833 329.5,174.5C 325.215,173.705 320.881,173.372 316.5,173.5C 308.098,172.172 299.598,172.172 291,173.5C 288.635,181.002 287.968,188.669 289,196.5C 291.005,201.251 294.505,204.251 299.5,205.5C 308.221,207.656 316.221,205.989 323.5,200.5C 323.238,202.564 322.071,203.897 320,204.5C 319.517,205.448 319.351,206.448 319.5,207.5C 318.167,207.5 316.833,207.5 315.5,207.5C 313.284,208.044 311.284,209.044 309.5,210.5C 292.468,213.798 283.802,206.798 283.5,189.5C 273.915,191.407 264.248,192.24 254.5,192C 253.944,191.617 253.611,191.117 253.5,190.5C 259.195,190.236 265.195,189.736 271.5,189C 275.764,188.519 279.764,187.353 283.5,185.5C 286.122,177.854 286.122,170.187 283.5,162.5C 279.541,161.34 275.541,161.173 271.5,162C 255.351,164.538 239.351,167.705 223.5,171.5C 222.5,171.167 221.833,170.5 221.5,169.5C 242.45,160.478 264.45,156.645 287.5,158C 289.303,158.637 290.636,159.803 291.5,161.5C 300.158,162.366 308.825,163.033 317.5,163.5 Z"/></g>
<g><path style="opacity:1" fill="#9b928b" d="M 253.5,190.5 C 252.5,190.167 251.833,189.5 251.5,188.5C 251.213,186.879 250.213,185.879 248.5,185.5C 248.002,188.535 246.668,191.035 244.5,193C 238.101,194.562 231.768,195.729 225.5,196.5C 221.644,189.392 220.144,181.725 221,173.5C 221.995,172.934 222.828,172.267 223.5,171.5C 239.351,167.705 255.351,164.538 271.5,162C 275.541,161.173 279.541,161.34 283.5,162.5C 286.122,170.187 286.122,177.854 283.5,185.5C 279.764,187.353 275.764,188.519 271.5,189C 265.195,189.736 259.195,190.236 253.5,190.5 Z"/></g>
<g><path style="opacity:1" fill="#796559" d="M 271.5,168.5 C 269.498,169.755 266.831,170.422 263.5,170.5C 260.77,169.183 257.937,169.183 255,170.5C 253.597,175.476 253.764,180.476 255.5,185.5C 255.19,186.738 254.69,186.738 254,185.5C 251.748,180.409 250.582,175.075 250.5,169.5C 258.018,167.414 265.684,166.08 273.5,165.5C 276.037,165.397 278.371,165.897 280.5,167C 277.305,167.181 274.305,167.681 271.5,168.5 Z"/></g>
<g><path style="opacity:1" fill="#7b675a" d="M 233.5,175.5 C 232.5,175.5 231.5,175.5 230.5,175.5C 229.737,174.732 228.737,174.232 227.5,174C 232.187,173.274 236.854,172.441 241.5,171.5C 243.569,171.824 243.902,172.658 242.5,174C 239.305,174.181 236.305,174.681 233.5,175.5 Z"/></g>
<g><path style="opacity:1" fill="#eccbaa" d="M 316.5,173.5 C 313.731,184.704 309.064,195.037 302.5,204.5C 301.675,205.386 300.675,205.719 299.5,205.5C 294.505,204.251 291.005,201.251 289,196.5C 287.968,188.669 288.635,181.002 291,173.5C 299.598,172.172 308.098,172.172 316.5,173.5 Z"/></g>
<g><path style="opacity:1" fill="#f2ac8a" d="M 271.5,168.5 C 274.609,168.264 277.609,168.597 280.5,169.5C 280.5,173.833 280.5,178.167 280.5,182.5C 278.833,182.5 277.167,182.5 275.5,182.5C 275.785,180.712 275.452,179.045 274.5,177.5C 274.08,179.353 273.747,181.187 273.5,183C 269.16,184.268 264.826,184.435 260.5,183.5C 261.193,182.482 261.859,181.482 262.5,180.5C 262.833,180.5 263.167,180.5 263.5,180.5C 265.89,180.315 266.89,178.982 266.5,176.5C 265.727,174.32 264.727,172.32 263.5,170.5C 266.831,170.422 269.498,169.755 271.5,168.5 Z"/></g>
<g><path style="opacity:1" fill="#e3d2c5" d="M 228.5,178.5 C 228.687,182.913 229.354,187.246 230.5,191.5C 230.167,191.5 229.833,191.5 229.5,191.5C 227.926,188.093 226.926,184.427 226.5,180.5C 226.215,178.712 226.548,177.045 227.5,175.5C 228.386,176.325 228.719,177.325 228.5,178.5 Z"/></g>
<g><path style="opacity:1" fill="#e6b79f" d="M 263.5,170.5 C 264.727,172.32 265.727,174.32 266.5,176.5C 266.89,178.982 265.89,180.315 263.5,180.5C 265.24,177.196 264.574,174.529 261.5,172.5C 256.072,176.095 256.406,178.762 262.5,180.5C 261.859,181.482 261.193,182.482 260.5,183.5C 264.826,184.435 269.16,184.268 273.5,183C 273.747,181.187 274.08,179.353 274.5,177.5C 275.452,179.045 275.785,180.712 275.5,182.5C 277.167,182.5 278.833,182.5 280.5,182.5C 280.5,178.167 280.5,173.833 280.5,169.5C 281.812,174.015 281.812,178.682 280.5,183.5C 272.247,186.048 263.913,186.715 255.5,185.5C 253.764,180.476 253.597,175.476 255,170.5C 257.937,169.183 260.77,169.183 263.5,170.5 Z"/></g>
<g><path style="opacity:1" fill="#7a6757" d="M 263.5,180.5 C 263.167,180.5 262.833,180.5 262.5,180.5C 256.406,178.762 256.072,176.095 261.5,172.5C 264.574,174.529 265.24,177.196 263.5,180.5 Z"/></g>
<g><path style="opacity:1" fill="#e9ac8c" d="M 230.5,175.5 C 231.5,175.5 232.5,175.5 233.5,175.5C 237.167,175.5 240.833,175.5 244.5,175.5C 244.676,180.88 244.342,186.213 243.5,191.5C 239.167,191.5 234.833,191.5 230.5,191.5C 229.354,187.246 228.687,182.913 228.5,178.5C 229.167,177.5 229.833,176.5 230.5,175.5 Z"/></g>
<g><path style="opacity:1" fill="#7d6253" d="M 231.5,178.5 C 236.328,178.385 237.661,180.552 235.5,185C 230.82,185.163 229.486,182.996 231.5,178.5 Z"/></g>
<g><path style="opacity:1" fill="#6e6765" d="M 226.5,180.5 C 226.926,184.427 227.926,188.093 229.5,191.5C 228.458,192.791 227.292,192.791 226,191.5C 224.107,186.233 223.607,180.9 224.5,175.5C 225.17,177.291 225.837,178.958 226.5,180.5 Z"/></g>
<g><path style="opacity:1" fill="#c7a688" d="M 316.5,173.5 C 320.881,173.372 325.215,173.705 329.5,174.5C 329.666,180.176 329.499,185.843 329,191.5C 327.795,194.562 326.628,197.562 325.5,200.5C 324.604,199.494 323.938,199.494 323.5,200.5C 316.221,205.989 308.221,207.656 299.5,205.5C 300.675,205.719 301.675,205.386 302.5,204.5C 309.064,195.037 313.731,184.704 316.5,173.5 Z"/></g>
<g><path style="opacity:1" fill="#766455" d="M 251.5,188.5 C 250.603,187.402 249.77,187.402 249,188.5C 248.749,190.433 248.249,192.266 247.5,194C 242.429,195.313 237.429,196.813 232.5,198.5C 234.739,205.566 237.739,212.232 241.5,218.5C 237.584,218.975 234.251,217.975 231.5,215.5C 228.802,210.249 227.802,204.582 228.5,198.5C 227.5,198.5 226.5,198.5 225.5,198.5C 225.5,197.833 225.5,197.167 225.5,196.5C 231.768,195.729 238.101,194.562 244.5,193C 246.668,191.035 248.002,188.535 248.5,185.5C 250.213,185.879 251.213,186.879 251.5,188.5 Z"/></g>
<g><path style="opacity:1" fill="#dfc7af" d="M 225.5,198.5 C 226.5,198.5 227.5,198.5 228.5,198.5C 227.802,204.582 228.802,210.249 231.5,215.5C 229.856,215.714 228.356,215.38 227,214.5C 226.023,209.207 225.523,203.874 225.5,198.5 Z"/></g>
<g><path style="opacity:1" fill="#857c15" d="M 329.5,209.5 C 330.556,213.89 333.223,216.556 337.5,217.5C 331.78,221.652 326.114,225.985 320.5,230.5C 319.479,229.998 319.312,229.332 320,228.5C 325.562,223.284 328.729,216.95 329.5,209.5 Z"/></g>
<g><path style="opacity:1" fill="#b2b01f" d="M 325.5,200.5 C 327.782,203.104 329.116,206.104 329.5,209.5C 328.729,216.95 325.562,223.284 320,228.5C 319.312,229.332 319.479,229.998 320.5,230.5C 326.114,225.985 331.78,221.652 337.5,217.5C 341.941,217.925 346.108,219.258 350,221.5C 364.983,230.036 379.483,239.036 393.5,248.5C 393.5,250.167 393.5,251.833 393.5,253.5C 392.392,260.543 389.059,266.376 383.5,271C 362.509,286.15 340.842,300.317 318.5,313.5C 318.272,309.413 316.605,306.08 313.5,303.5C 308.652,300.737 303.652,298.57 298.5,297C 304.822,299.659 309.489,303.992 312.5,310C 311.588,313.816 310.754,317.649 310,321.5C 307.397,324.278 304.23,325.944 300.5,326.5C 302.104,323.019 303.104,319.352 303.5,315.5C 303.415,313.667 302.748,312.334 301.5,311.5C 300.596,310.791 300.263,309.791 300.5,308.5C 298.784,308.371 297.117,308.038 295.5,307.5C 294.322,306.001 292.655,305.001 290.5,304.5C 284.012,303.833 277.679,303.167 271.5,302.5C 275.182,302.665 278.848,302.499 282.5,302C 291.333,295.833 300.167,289.667 309,283.5C 309.122,281.831 308.788,280.165 308,278.5C 304.251,273.338 300.751,268.004 297.5,262.5C 296.833,261.167 296.167,261.167 295.5,262.5C 298.105,267.914 299.272,273.58 299,279.5C 289.6,287.08 280.1,294.413 270.5,301.5C 264.41,301.516 258.41,302.183 252.5,303.5C 252.167,303.5 251.833,303.5 251.5,303.5C 250.942,302.21 249.942,301.377 248.5,301C 246.19,300.503 243.857,300.337 241.5,300.5C 256.403,290.266 270.737,279.266 284.5,267.5C 288.618,261.921 288.284,256.421 283.5,251C 280.12,250.661 276.787,250.161 273.5,249.5C 270.524,246.698 267.358,244.031 264,241.5C 263.36,239.735 263.527,238.068 264.5,236.5C 266.713,235.227 269.046,234.227 271.5,233.5C 274.841,232.995 278.174,232.828 281.5,233C 286.792,239.96 292.458,246.627 298.5,253C 303.833,256.667 309.167,260.333 314.5,264C 316.071,268.351 317.071,272.851 317.5,277.5C 318.5,277.5 319.5,277.5 320.5,277.5C 319.869,273.196 319.369,268.863 319,264.5C 312.361,260.027 305.861,255.361 299.5,250.5C 294.295,244.135 288.962,237.969 283.5,232C 292.31,227.87 300.643,222.87 308.5,217C 311.45,214.257 313.784,211.09 315.5,207.5C 316.833,207.5 318.167,207.5 319.5,207.5C 319.351,206.448 319.517,205.448 320,204.5C 322.071,203.897 323.238,202.564 323.5,200.5C 323.938,199.494 324.604,199.494 325.5,200.5 Z"/></g>
<g><path style="opacity:1" fill="#eeac8a" d="M 251.5,188.5 C 251.833,189.5 252.5,190.167 253.5,190.5C 253.611,191.117 253.944,191.617 254.5,192C 264.248,192.24 273.915,191.407 283.5,189.5C 283.802,206.798 292.468,213.798 309.5,210.5C 304.982,215.179 299.982,219.346 294.5,223C 286.655,226.433 278.988,229.933 271.5,233.5C 269.046,234.227 266.713,235.227 264.5,236.5C 255.112,232.788 247.445,226.788 241.5,218.5C 237.739,212.232 234.739,205.566 232.5,198.5C 237.429,196.813 242.429,195.313 247.5,194C 248.249,192.266 248.749,190.433 249,188.5C 249.77,187.402 250.603,187.402 251.5,188.5 Z"/></g>
<g><path style="opacity:1" fill="#f5f0ed" d="M 266.5,207.5 C 268.857,207.337 271.19,207.503 273.5,208C 269.681,217.413 262.681,221.413 252.5,220C 249.143,218.488 247.143,215.988 246.5,212.5C 253.493,211.603 260.159,209.937 266.5,207.5 Z"/></g>
<g><path style="opacity:1" fill="#af8a63" d="M 247.5,198.5 C 250.898,198.18 254.232,198.513 257.5,199.5C 256.975,200.192 256.308,200.692 255.5,201C 252.854,201.497 250.187,201.664 247.5,201.5C 247.5,200.5 247.5,199.5 247.5,198.5 Z"/></g>
<g><path style="opacity:1" fill="#867b11" d="M 315.5,207.5 C 313.784,211.09 311.45,214.257 308.5,217C 300.643,222.87 292.31,227.87 283.5,232C 288.962,237.969 294.295,244.135 299.5,250.5C 305.861,255.361 312.361,260.027 319,264.5C 319.369,268.863 319.869,273.196 320.5,277.5C 319.5,277.5 318.5,277.5 317.5,277.5C 317.071,272.851 316.071,268.351 314.5,264C 309.167,260.333 303.833,256.667 298.5,253C 292.458,246.627 286.792,239.96 281.5,233C 278.174,232.828 274.841,232.995 271.5,233.5C 278.988,229.933 286.655,226.433 294.5,223C 299.982,219.346 304.982,215.179 309.5,210.5C 311.284,209.044 313.284,208.044 315.5,207.5 Z"/></g>
<g><path style="opacity:1" fill="#f0f0d3" d="M 273.5,249.5 C 276.787,250.161 280.12,250.661 283.5,251C 288.284,256.421 288.618,261.921 284.5,267.5C 284.679,265.046 284.013,262.879 282.5,261C 284.278,258.775 284.778,256.275 284,253.5C 280.871,252.87 277.704,252.204 274.5,251.5C 274.137,250.817 273.804,250.15 273.5,249.5 Z"/></g>
<g><path style="opacity:1" fill="#857b10" d="M 318.5,245.5 C 320.845,247.331 323.512,248.498 326.5,249C 328.647,251.237 330.98,253.237 333.5,255C 337.961,257.064 342.294,259.398 346.5,262C 340.416,265.879 334.083,268.879 327.5,271C 330.167,268.333 332.833,265.667 335.5,263C 330.328,257.495 324.828,252.328 319,247.5C 318.536,246.906 318.369,246.239 318.5,245.5 Z"/></g>
<g><path style="opacity:1" fill="#ede6cb" d="M 393.5,248.5 C 394.117,248.611 394.617,248.944 395,249.5C 394.964,259.973 395.797,270.306 397.5,280.5C 395.806,278.284 394.473,275.784 393.5,273C 394.794,266.358 394.794,259.858 393.5,253.5C 393.5,251.833 393.5,250.167 393.5,248.5 Z"/></g>
<g><path style="opacity:1" fill="#847915" d="M 393.5,253.5 C 394.794,259.858 394.794,266.358 393.5,273C 394.473,275.784 395.806,278.284 397.5,280.5C 399.035,284.438 400.368,288.438 401.5,292.5C 401.5,293.5 401.5,294.5 401.5,295.5C 400.284,303.072 402.117,309.739 407,315.5C 410.093,327.315 411.926,339.315 412.5,351.5C 411.5,351.5 410.5,351.5 409.5,351.5C 407.024,348.443 403.691,347.11 399.5,347.5C 397.012,345.612 394.012,344.945 390.5,345.5C 385.934,344.024 381.267,343.024 376.5,342.5C 377.675,342.719 378.675,342.386 379.5,341.5C 381.75,339.199 383.917,336.865 386,334.5C 387.15,332.246 387.484,329.913 387,327.5C 378.918,322.208 370.751,317.042 362.5,312C 363.609,311.362 364.775,310.862 366,310.5C 371.044,314.437 376.544,317.437 382.5,319.5C 382.336,316.813 382.503,314.146 383,311.5C 385.49,305.54 387.656,299.54 389.5,293.5C 388.563,288.296 386.063,283.963 382,280.5C 366.69,290.978 351.524,301.645 336.5,312.5C 335.553,317.896 333.886,323.062 331.5,328C 332.869,331.012 333.536,334.179 333.5,337.5C 332.167,337.5 330.833,337.5 329.5,337.5C 327.782,330.136 328.782,323.136 332.5,316.5C 331.998,315.479 331.332,315.312 330.5,316C 327.598,318.417 324.598,320.584 321.5,322.5C 316.728,324.72 312.062,327.22 307.5,330C 302.682,330.779 298.015,330.279 293.5,328.5C 293.5,327.833 293.833,327.5 294.5,327.5C 296.565,327.483 298.565,327.15 300.5,326.5C 304.23,325.944 307.397,324.278 310,321.5C 310.754,317.649 311.588,313.816 312.5,310C 309.489,303.992 304.822,299.659 298.5,297C 303.652,298.57 308.652,300.737 313.5,303.5C 316.605,306.08 318.272,309.413 318.5,313.5C 340.842,300.317 362.509,286.15 383.5,271C 389.059,266.376 392.392,260.543 393.5,253.5 Z"/></g>
<g><path style="opacity:1" fill="#eccaa8" d="M 552.5,312.5 C 535.341,311.503 518.008,311.17 500.5,311.5C 500.5,307.5 500.5,303.5 500.5,299.5C 500.5,295.5 500.5,291.5 500.5,287.5C 500.5,287.167 500.5,286.833 500.5,286.5C 502.41,287.094 504.41,287.427 506.5,287.5C 524.779,285.398 543.113,284.064 561.5,283.5C 560.549,293.012 558.882,302.346 556.5,311.5C 555.041,311.433 553.708,311.766 552.5,312.5 Z"/></g>
<g><path style="opacity:1" fill="#857a12" d="M 271.5,302.5 C 270.833,302.5 270.5,302.167 270.5,301.5C 280.1,294.413 289.6,287.08 299,279.5C 299.272,273.58 298.105,267.914 295.5,262.5C 296.167,261.167 296.833,261.167 297.5,262.5C 300.751,268.004 304.251,273.338 308,278.5C 308.788,280.165 309.122,281.831 309,283.5C 300.167,289.667 291.333,295.833 282.5,302C 278.848,302.499 275.182,302.665 271.5,302.5 Z"/></g>
<g><path style="opacity:1" fill="#ebcaa7" d="M 471.5,290.5 C 477.093,290.193 482.593,290.527 488,291.5C 488.5,298.492 488.666,305.492 488.5,312.5C 464.163,313.486 439.83,313.486 415.5,312.5C 414.5,306.503 413.5,300.503 412.5,294.5C 432.407,294.53 452.074,293.197 471.5,290.5 Z"/></g>
<g><path style="opacity:1" fill="#c08d23" d="M 241.5,300.5 C 243.857,300.337 246.19,300.503 248.5,301C 249.942,301.377 250.942,302.21 251.5,303.5C 248.125,302.496 244.792,301.496 241.5,300.5 Z"/></g>
<g><path style="opacity:1" fill="#b2b01f" d="M 376.5,342.5 C 376.167,342.5 375.833,342.5 375.5,342.5C 370.75,340.969 365.75,340.302 360.5,340.5C 353.841,340.046 347.174,339.713 340.5,339.5C 338.167,338.833 335.833,338.167 333.5,337.5C 333.536,334.179 332.869,331.012 331.5,328C 333.886,323.062 335.553,317.896 336.5,312.5C 351.524,301.645 366.69,290.978 382,280.5C 386.063,283.963 388.563,288.296 389.5,293.5C 387.656,299.54 385.49,305.54 383,311.5C 382.503,314.146 382.336,316.813 382.5,319.5C 376.544,317.437 371.044,314.437 366,310.5C 364.775,310.862 363.609,311.362 362.5,312C 370.751,317.042 378.918,322.208 387,327.5C 387.484,329.913 387.15,332.246 386,334.5C 383.917,336.865 381.75,339.199 379.5,341.5C 378.675,342.386 377.675,342.719 376.5,342.5 Z"/></g>
<g><path style="opacity:1" fill="#efac8a" d="M 270.5,301.5 C 270.5,302.167 270.833,302.5 271.5,302.5C 277.679,303.167 284.012,303.833 290.5,304.5C 292.655,305.001 294.322,306.001 295.5,307.5C 295.139,312.639 294.139,317.639 292.5,322.5C 292.34,324.355 293.007,325.688 294.5,326.5C 294.5,326.833 294.5,327.167 294.5,327.5C 293.833,327.5 293.5,327.833 293.5,328.5C 291.5,328.5 289.5,328.5 287.5,328.5C 288.657,322.614 286.99,317.781 282.5,314C 275.68,313.311 272.013,316.477 271.5,323.5C 271.658,327.646 272.992,331.312 275.5,334.5C 266.251,335.244 256.918,335.577 247.5,335.5C 249.042,334.837 250.709,334.17 252.5,333.5C 251.298,331.22 250.298,328.886 249.5,326.5C 249.5,321.167 249.5,315.833 249.5,310.5C 250.043,307.962 251.043,305.628 252.5,303.5C 258.41,302.183 264.41,301.516 270.5,301.5 Z"/></g>
<g><path style="opacity:1" fill="#e2483a" d="M 191.5,293.5 C 193.045,294.23 193.878,295.563 194,297.5C 193.62,306.76 195.12,315.593 198.5,324C 198.164,325.03 197.497,325.53 196.5,325.5C 191.906,316.092 190.239,306.092 191.5,295.5C 191.5,294.833 191.5,294.167 191.5,293.5 Z"/></g>
<g><path style="opacity:1" fill="#b18e6c" d="M 500.5,299.5 C 500.5,303.5 500.5,307.5 500.5,311.5C 518.008,311.17 535.341,311.503 552.5,312.5C 551.609,313.11 550.609,313.443 549.5,313.5C 532.833,313.5 516.167,313.5 499.5,313.5C 499.181,308.637 499.514,303.97 500.5,299.5 Z"/></g>
<g><path style="opacity:1" fill="#eccaa7" d="M 487.5,318.5 C 487.5,322.833 487.5,327.167 487.5,331.5C 486.549,332.919 486.216,334.585 486.5,336.5C 466.497,336.667 446.497,336.5 426.5,336C 425.521,329.256 425.188,322.422 425.5,315.5C 446.159,314.773 466.825,314.44 487.5,314.5C 487.5,315.833 487.5,317.167 487.5,318.5 Z"/></g>
<g><path style="opacity:1" fill="#73493e" d="M 249.5,310.5 C 249.5,315.833 249.5,321.167 249.5,326.5C 245.958,326.813 242.625,326.479 239.5,325.5C 242.249,325.726 244.916,325.393 247.5,324.5C 248.491,320.555 248.824,316.555 248.5,312.5C 245.518,312.963 242.518,313.296 239.5,313.5C 239.62,312.414 240.287,311.747 241.5,311.5C 244.115,310.731 246.781,310.397 249.5,310.5 Z"/></g>
<g><path style="opacity:1" fill="#b18d69" d="M 412.5,294.5 C 413.5,300.503 414.5,306.503 415.5,312.5C 439.83,313.486 464.163,313.486 488.5,312.5C 488.795,314.735 488.461,316.735 487.5,318.5C 487.5,317.167 487.5,315.833 487.5,314.5C 466.825,314.44 446.159,314.773 425.5,315.5C 425.188,322.422 425.521,329.256 426.5,336C 446.497,336.5 466.497,336.667 486.5,336.5C 486.216,334.585 486.549,332.919 487.5,331.5C 487.702,333.95 487.369,336.283 486.5,338.5C 465.162,338.406 443.829,338.073 422.5,337.5C 423.54,345.955 425.207,354.288 427.5,362.5C 420.978,362.823 414.645,362.49 408.5,361.5C 409.324,358.236 409.658,354.902 409.5,351.5C 410.5,351.5 411.5,351.5 412.5,351.5C 411.926,339.315 410.093,327.315 407,315.5C 402.117,309.739 400.284,303.072 401.5,295.5C 405.154,295.058 408.821,294.724 412.5,294.5 Z"/></g>
<g><path style="opacity:1" fill="#564e4d" d="M 239.5,325.5 C 239.5,325.167 239.5,324.833 239.5,324.5C 239.5,321.167 239.5,317.833 239.5,314.5C 239.5,314.167 239.5,313.833 239.5,313.5C 242.518,313.296 245.518,312.963 248.5,312.5C 248.824,316.555 248.491,320.555 247.5,324.5C 244.916,325.393 242.249,325.726 239.5,325.5 Z"/></g>
<g><path style="opacity:1" fill="#ebc9a6" d="M 499.5,313.5 C 516.167,313.5 532.833,313.5 549.5,313.5C 549.666,321.507 549.5,329.507 549,337.5C 548.617,338.056 548.117,338.389 547.5,338.5C 531.342,337.504 515.009,337.17 498.5,337.5C 498.39,329.475 498.724,321.475 499.5,313.5 Z"/></g>
<g><path style="opacity:1" fill="#864735" d="M 239.5,314.5 C 239.5,317.833 239.5,321.167 239.5,324.5C 238.06,323.054 237.393,321.221 237.5,319C 237.307,316.992 237.974,315.492 239.5,314.5 Z"/></g>
<g><path style="opacity:1" fill="#efae85" d="M 295.5,307.5 C 297.117,308.038 298.784,308.371 300.5,308.5C 300.263,309.791 300.596,310.791 301.5,311.5C 301.328,315.534 300.828,319.534 300,323.5C 298.417,324.971 296.583,325.971 294.5,326.5C 293.007,325.688 292.34,324.355 292.5,322.5C 294.139,317.639 295.139,312.639 295.5,307.5 Z"/></g>
<g><path style="opacity:1" fill="#d0ac50" d="M 301.5,311.5 C 302.748,312.334 303.415,313.667 303.5,315.5C 303.104,319.352 302.104,323.019 300.5,326.5C 298.565,327.15 296.565,327.483 294.5,327.5C 294.5,327.167 294.5,326.833 294.5,326.5C 296.583,325.971 298.417,324.971 300,323.5C 300.828,319.534 301.328,315.534 301.5,311.5 Z"/></g>
<g><path style="opacity:1" fill="#b3b126" d="M 329.5,337.5 C 326.167,337.5 322.833,337.5 319.5,337.5C 319.739,332.43 320.405,327.43 321.5,322.5C 324.598,320.584 327.598,318.417 330.5,316C 331.332,315.312 331.998,315.479 332.5,316.5C 328.782,323.136 327.782,330.136 329.5,337.5 Z"/></g>
<g><path style="opacity:1" fill="#eead8d" d="M 191.5,295.5 C 190.239,306.092 191.906,316.092 196.5,325.5C 197.833,327.5 199.167,329.5 200.5,331.5C 194.401,333.652 189.068,332.485 184.5,328C 175.319,317.998 176.985,310.165 189.5,304.5C 190.167,301.358 190.834,298.358 191.5,295.5 Z"/></g>
<g><path style="opacity:1" fill="#5e504d" d="M 287.5,328.5 C 285.352,334.241 281.352,336.241 275.5,334.5C 272.992,331.312 271.658,327.646 271.5,323.5C 272.013,316.477 275.68,313.311 282.5,314C 286.99,317.781 288.657,322.614 287.5,328.5 Z"/></g>
<g><path style="opacity:1" fill="#746356" d="M 500.5,287.5 C 500.5,291.5 500.5,295.5 500.5,299.5C 499.514,303.97 499.181,308.637 499.5,313.5C 498.724,321.475 498.39,329.475 498.5,337.5C 498.5,338.167 498.5,338.833 498.5,339.5C 498.432,347.514 498.099,355.514 497.5,363.5C 497.5,364.5 497.5,365.5 497.5,366.5C 478.213,367.475 458.88,367.809 439.5,367.5C 437.833,367.5 436.167,367.5 434.5,367.5C 433.833,367.5 433.5,367.167 433.5,366.5C 450.866,367.152 467.866,366.486 484.5,364.5C 485.167,355.833 485.833,347.167 486.5,338.5C 487.369,336.283 487.702,333.95 487.5,331.5C 487.5,327.167 487.5,322.833 487.5,318.5C 488.461,316.735 488.795,314.735 488.5,312.5C 488.666,305.492 488.5,298.492 488,291.5C 482.593,290.527 477.093,290.193 471.5,290.5C 475.717,289.986 479.884,288.986 484,287.5C 485.726,287.946 487.226,288.779 488.5,290C 490.441,290.743 492.274,290.576 494,289.5C 495.269,290.905 495.769,292.571 495.5,294.5C 494.07,294.421 492.736,294.754 491.5,295.5C 490.794,301.522 490.128,307.522 489.5,313.5C 489.396,321.01 489.73,328.51 490.5,336C 487.702,344.266 487.869,352.433 491,360.5C 492.129,357.735 493.629,355.235 495.5,353C 493.944,347.97 492.944,342.803 492.5,337.5C 493.167,336.167 493.833,334.833 494.5,333.5C 493.277,328.831 493.277,324.164 494.5,319.5C 495.33,325.472 495.83,331.472 496,337.5C 497.42,320.807 497.92,304.14 497.5,287.5C 498.5,287.5 499.5,287.5 500.5,287.5 Z"/></g>
<g><path style="opacity:1" fill="#5c5c3c" d="M 314.5,338.5 C 315.919,337.549 317.585,337.216 319.5,337.5C 322.833,337.5 326.167,337.5 329.5,337.5C 330.833,337.5 332.167,337.5 333.5,337.5C 335.833,338.167 338.167,338.833 340.5,339.5C 337.5,339.5 334.5,339.5 331.5,339.5C 325.912,338.763 320.245,338.43 314.5,338.5 Z"/></g>
<g><path style="opacity:1" fill="#eccaa7" d="M 486.5,338.5 C 485.833,347.167 485.167,355.833 484.5,364.5C 467.167,364.5 449.833,364.5 432.5,364.5C 430.95,363.559 429.284,362.893 427.5,362.5C 425.207,354.288 423.54,345.955 422.5,337.5C 443.829,338.073 465.162,338.406 486.5,338.5 Z"/></g>
<g><path style="opacity:1" fill="#70655c" d="M 500.5,286.5 C 500.5,286.833 500.5,287.167 500.5,287.5C 499.5,287.5 498.5,287.5 497.5,287.5C 497.92,304.14 497.42,320.807 496,337.5C 495.83,331.472 495.33,325.472 494.5,319.5C 493.277,324.164 493.277,328.831 494.5,333.5C 493.833,334.833 493.167,336.167 492.5,337.5C 492.944,342.803 493.944,347.97 495.5,353C 493.629,355.235 492.129,357.735 491,360.5C 487.869,352.433 487.702,344.266 490.5,336C 489.73,328.51 489.396,321.01 489.5,313.5C 490.128,307.522 490.794,301.522 491.5,295.5C 492.736,294.754 494.07,294.421 495.5,294.5C 495.769,292.571 495.269,290.905 494,289.5C 492.274,290.576 490.441,290.743 488.5,290C 487.226,288.779 485.726,287.946 484,287.5C 479.884,288.986 475.717,289.986 471.5,290.5C 452.074,293.197 432.407,294.53 412.5,294.5C 408.821,294.724 405.154,295.058 401.5,295.5C 401.5,294.5 401.5,293.5 401.5,292.5C 412.172,292.667 422.839,292.5 433.5,292C 453.502,289.433 473.502,286.933 493.5,284.5C 495.5,284.667 497.5,284.833 499.5,285C 500.056,285.383 500.389,285.883 500.5,286.5 Z"/></g>
<g><path style="opacity:1" fill="#b18e6b" d="M 498.5,337.5 C 515.009,337.17 531.342,337.504 547.5,338.5C 544.99,338.927 542.657,339.593 540.5,340.5C 526.5,340.167 512.5,339.833 498.5,339.5C 498.5,338.833 498.5,338.167 498.5,337.5 Z"/></g>
<g><path style="opacity:1" fill="#eccaa7" d="M 498.5,339.5 C 512.5,339.833 526.5,340.167 540.5,340.5C 540.833,347.833 541.167,355.167 541.5,362.5C 526.804,362.234 512.138,362.567 497.5,363.5C 498.099,355.514 498.432,347.514 498.5,339.5 Z"/></g>
<g><path style="opacity:1" fill="#f3f1f1" d="M 321.5,322.5 C 320.405,327.43 319.739,332.43 319.5,337.5C 317.585,337.216 315.919,337.549 314.5,338.5C 293.239,340.715 273.239,346.881 254.5,357C 252.291,358.873 250.458,361.04 249,363.5C 248.723,370.236 249.39,376.902 251,383.5C 258.113,407.171 266.613,430.338 276.5,453C 275.944,454.011 275.278,454.844 274.5,455.5C 264.774,457.116 255.941,460.783 248,466.5C 247.517,467.448 247.351,468.448 247.5,469.5C 247.167,469.5 246.833,469.5 246.5,469.5C 242.074,457.345 240.074,444.678 240.5,431.5C 241.495,420.979 242.495,410.313 243.5,399.5C 245.132,381.534 245.632,363.534 245,345.5C 242.865,342.233 241.031,338.899 239.5,335.5C 242.167,335.5 244.833,335.5 247.5,335.5C 256.918,335.577 266.251,335.244 275.5,334.5C 281.352,336.241 285.352,334.241 287.5,328.5C 289.5,328.5 291.5,328.5 293.5,328.5C 298.015,330.279 302.682,330.779 307.5,330C 312.062,327.22 316.728,324.72 321.5,322.5 Z"/></g>
<g><path style="opacity:1" fill="#90923f" d="M 360.5,340.5 C 365.75,340.302 370.75,340.969 375.5,342.5C 374.5,342.5 373.5,342.5 372.5,342.5C 368.295,342.283 364.295,341.617 360.5,340.5 Z"/></g>
<g><path style="opacity:1" fill="#535033" d="M 372.5,342.5 C 373.5,342.5 374.5,342.5 375.5,342.5C 375.833,342.5 376.167,342.5 376.5,342.5C 381.267,343.024 385.934,344.024 390.5,345.5C 384.237,345.214 378.237,344.214 372.5,342.5 Z"/></g>
<g><path style="opacity:1" fill="#4e5065" d="M 331.5,339.5 C 334.5,339.5 337.5,339.5 340.5,339.5C 347.174,339.713 353.841,340.046 360.5,340.5C 364.295,341.617 368.295,342.283 372.5,342.5C 378.237,344.214 384.237,345.214 390.5,345.5C 394.012,344.945 397.012,345.612 399.5,347.5C 400.463,348.363 400.463,349.03 399.5,349.5C 398.232,348.572 396.899,348.405 395.5,349C 400.303,350.527 400.637,352.693 396.5,355.5C 390.996,358.751 385.662,362.251 380.5,366C 361.341,371.238 342.007,375.904 322.5,380C 319.653,380.944 317.153,380.444 315,378.5C 313.812,379.563 313.312,380.897 313.5,382.5C 311.143,382.337 308.81,382.503 306.5,383C 308.127,385.754 309.627,388.588 311,391.5C 314.566,414.637 318.733,437.637 323.5,460.5C 323.167,461.5 322.833,462.5 322.5,463.5C 320.253,462.626 317.92,462.292 315.5,462.5C 309.523,461.859 303.523,461.359 297.5,461C 296.584,460.722 295.918,460.222 295.5,459.5C 284.28,430.943 274.446,401.943 266,372.5C 264.48,366.531 266.313,362.031 271.5,359C 289.231,350.3 307.897,344.8 327.5,342.5C 327.5,341.5 327.5,340.5 327.5,339.5C 328.833,339.5 330.167,339.5 331.5,339.5 Z"/></g>
<g><path style="opacity:1" fill="#dc9069" d="M 190.5,356.5 C 190.782,357.778 191.449,358.778 192.5,359.5C 191.5,359.5 190.5,359.5 189.5,359.5C 189.396,361.703 188.73,363.703 187.5,365.5C 187.167,365.5 186.833,365.5 186.5,365.5C 187.075,362.088 188.408,359.088 190.5,356.5 Z"/></g>
<g><path style="opacity:1" fill="#f7c368" d="M 192.5,359.5 C 193.139,360.097 193.472,360.93 193.5,362C 192.191,365.019 191.191,368.185 190.5,371.5C 189.833,372.833 189.167,372.833 188.5,371.5C 187.652,369.591 187.318,367.591 187.5,365.5C 188.73,363.703 189.396,361.703 189.5,359.5C 190.5,359.5 191.5,359.5 192.5,359.5 Z"/></g>
<g><path style="opacity:1" fill="#b18e71" d="M 432.5,364.5 C 449.833,364.5 467.167,364.5 484.5,364.5C 467.866,366.486 450.866,367.152 433.5,366.5C 433.167,365.833 432.833,365.167 432.5,364.5 Z"/></g>
<g><path style="opacity:1" fill="#a98669" d="M 541.5,362.5 C 541.366,364.292 541.699,365.958 542.5,367.5C 527.324,367.829 512.324,367.496 497.5,366.5C 497.5,365.5 497.5,364.5 497.5,363.5C 512.138,362.567 526.804,362.234 541.5,362.5 Z"/></g>
<g><path style="opacity:1" fill="#623e3f" d="M 408.5,361.5 C 414.645,362.49 420.978,362.823 427.5,362.5C 429.284,362.893 430.95,363.559 432.5,364.5C 432.833,365.167 433.167,365.833 433.5,366.5C 433.5,367.167 433.833,367.5 434.5,367.5C 435.77,373.963 435.77,380.296 434.5,386.5C 427.263,385.143 419.93,384.143 412.5,383.5C 410.42,383.314 408.92,382.314 408,380.5C 403.274,382.539 403.441,383.706 408.5,384C 400.238,385.454 391.904,386.288 383.5,386.5C 377.532,386.432 371.699,385.766 366,384.5C 357.94,386.136 349.773,386.969 341.5,387C 340.541,388.464 339.208,389.297 337.5,389.5C 334.203,388.504 330.869,388.337 327.5,389C 326.833,390 326.167,391 325.5,392C 344.849,392.254 364.183,392.921 383.5,394C 364.662,394.168 345.996,394.668 327.5,395.5C 327.167,395.5 326.833,395.5 326.5,395.5C 325.542,395.047 324.708,394.381 324,393.5C 323.802,391.618 323.302,389.952 322.5,388.5C 345.049,385.513 367.715,382.346 390.5,379C 393.997,376.417 397.664,374.084 401.5,372C 403.037,370.89 403.703,369.39 403.5,367.5C 404.833,367.5 406.167,367.5 407.5,367.5C 407.205,365.265 407.539,363.265 408.5,361.5 Z"/></g>
<g><path style="opacity:1" fill="#382928" d="M 434.5,367.5 C 436.167,367.5 437.833,367.5 439.5,367.5C 438.082,376.767 437.415,386.101 437.5,395.5C 435.833,394.5 434.5,393.167 433.5,391.5C 434.038,389.883 434.371,388.216 434.5,386.5C 435.77,380.296 435.77,373.963 434.5,367.5 Z"/></g>
<g><path style="opacity:1" fill="#766161" d="M 497.5,366.5 C 512.324,367.496 527.324,367.829 542.5,367.5C 543.634,369.966 543.801,372.633 543,375.5C 542.78,378.516 541.613,381.016 539.5,383C 528.867,385.186 518.2,387.186 507.5,389C 489.62,390.61 471.954,392.777 454.5,395.5C 448.833,395.5 443.167,395.5 437.5,395.5C 437.415,386.101 438.082,376.767 439.5,367.5C 458.88,367.809 478.213,367.475 497.5,366.5 Z"/></g>
<g><path style="opacity:1" fill="#3f4355" d="M 399.5,347.5 C 403.691,347.11 407.024,348.443 409.5,351.5C 409.658,354.902 409.324,358.236 408.5,361.5C 407.539,363.265 407.205,365.265 407.5,367.5C 406.167,367.5 404.833,367.5 403.5,367.5C 403.703,369.39 403.037,370.89 401.5,372C 397.664,374.084 393.997,376.417 390.5,379C 367.715,382.346 345.049,385.513 322.5,388.5C 321.401,394.364 321.568,400.364 323,406.5C 325.234,421.513 328.4,436.18 332.5,450.5C 331.839,455.356 332.839,459.69 335.5,463.5C 335.5,464.167 335.5,464.833 335.5,465.5C 328.488,465.931 321.822,464.931 315.5,462.5C 317.92,462.292 320.253,462.626 322.5,463.5C 322.833,462.5 323.167,461.5 323.5,460.5C 318.733,437.637 314.566,414.637 311,391.5C 309.627,388.588 308.127,385.754 306.5,383C 308.81,382.503 311.143,382.337 313.5,382.5C 313.312,380.897 313.812,379.563 315,378.5C 317.153,380.444 319.653,380.944 322.5,380C 342.007,375.904 361.341,371.238 380.5,366C 385.662,362.251 390.996,358.751 396.5,355.5C 400.637,352.693 400.303,350.527 395.5,349C 396.899,348.405 398.232,348.572 399.5,349.5C 400.463,349.03 400.463,348.363 399.5,347.5 Z"/></g>
<g><path style="opacity:1" fill="#653c3d" d="M 434.5,386.5 C 434.371,388.216 434.038,389.883 433.5,391.5C 416.876,393.217 400.209,394.551 383.5,395.5C 364.833,395.5 346.167,395.5 327.5,395.5C 345.996,394.668 364.662,394.168 383.5,394C 364.183,392.921 344.849,392.254 325.5,392C 326.167,391 326.833,390 327.5,389C 330.869,388.337 334.203,388.504 337.5,389.5C 339.208,389.297 340.541,388.464 341.5,387C 349.773,386.969 357.94,386.136 366,384.5C 371.699,385.766 377.532,386.432 383.5,386.5C 391.904,386.288 400.238,385.454 408.5,384C 403.441,383.706 403.274,382.539 408,380.5C 408.92,382.314 410.42,383.314 412.5,383.5C 419.93,384.143 427.263,385.143 434.5,386.5 Z"/></g>
<g><path style="opacity:1" fill="#cd5f58" d="M 182.5,376.5 C 181.157,382.873 179.657,389.206 178,395.5C 177.23,394.402 176.397,394.402 175.5,395.5C 177.662,389.004 179.996,382.67 182.5,376.5 Z"/></g>
<g><path style="opacity:1" fill="#c44b45" d="M 433.5,391.5 C 434.5,393.167 435.833,394.5 437.5,395.5C 443.167,395.5 448.833,395.5 454.5,395.5C 454.5,395.833 454.5,396.167 454.5,396.5C 447.822,396.881 441.156,397.048 434.5,397C 433.663,395.989 433.33,394.822 433.5,393.5C 416.924,395.744 400.258,396.744 383.5,396.5C 383.5,396.167 383.5,395.833 383.5,395.5C 400.209,394.551 416.876,393.217 433.5,391.5 Z"/></g>
<g><path style="opacity:1" fill="#dc493b" d="M 241.5,300.5 C 244.792,301.496 248.125,302.496 251.5,303.5C 251.833,303.5 252.167,303.5 252.5,303.5C 251.043,305.628 250.043,307.962 249.5,310.5C 246.781,310.397 244.115,310.731 241.5,311.5C 240.287,311.747 239.62,312.414 239.5,313.5C 239.5,313.833 239.5,314.167 239.5,314.5C 237.974,315.492 237.307,316.992 237.5,319C 237.393,321.221 238.06,323.054 239.5,324.5C 239.5,324.833 239.5,325.167 239.5,325.5C 242.625,326.479 245.958,326.813 249.5,326.5C 250.298,328.886 251.298,331.22 252.5,333.5C 250.709,334.17 249.042,334.837 247.5,335.5C 244.833,335.5 242.167,335.5 239.5,335.5C 241.031,338.899 242.865,342.233 245,345.5C 245.632,363.534 245.132,381.534 243.5,399.5C 242.835,401.369 242.169,403.369 241.5,405.5C 240.502,414.141 240.169,422.808 240.5,431.5C 240.074,444.678 242.074,457.345 246.5,469.5C 247.29,470.794 248.29,471.961 249.5,473C 252.5,473.333 255.5,473.667 258.5,474C 259.567,478.041 262.234,479.875 266.5,479.5C 268.167,479.5 269.833,479.5 271.5,479.5C 283.148,480.832 295.148,481.499 307.5,481.5C 319.5,481.167 331.5,480.833 343.5,480.5C 342.758,479.713 341.925,479.047 341,478.5C 340.667,475.5 340.333,472.5 340,469.5C 339.124,467.365 337.624,466.031 335.5,465.5C 335.5,464.833 335.5,464.167 335.5,463.5C 333.815,452.926 333.149,442.259 333.5,431.5C 333.666,424.159 333.5,416.826 333,409.5C 331.672,406.688 330.172,404.022 328.5,401.5C 328.5,399.833 328.5,398.167 328.5,396.5C 346.833,396.5 365.167,396.5 383.5,396.5C 400.258,396.744 416.924,395.744 433.5,393.5C 433.33,394.822 433.663,395.989 434.5,397C 441.156,397.048 447.822,396.881 454.5,396.5C 455.404,397.209 455.737,398.209 455.5,399.5C 455.923,406.5 456.423,413.5 457,420.5C 457.383,421.056 457.883,421.389 458.5,421.5C 458.335,424.85 458.502,428.183 459,431.5C 463.106,436.116 467.606,440.116 472.5,443.5C 476.309,446.809 479.142,450.809 481,455.5C 481.167,456.833 481.333,458.167 481.5,459.5C 480.979,461.924 480.312,464.257 479.5,466.5C 478.5,466.5 477.5,466.5 476.5,466.5C 474.051,467.042 471.551,467.375 469,467.5C 445.864,465.633 422.698,465.133 399.5,466C 391.906,466.101 385.073,468.267 379,472.5C 373.788,481.974 369.622,491.64 366.5,501.5C 358.962,503.148 351.296,504.148 343.5,504.5C 314.183,504.25 284.849,504.25 255.5,504.5C 250.156,504.666 244.823,504.499 239.5,504C 236.642,502.306 234.309,500.139 232.5,497.5C 232.827,487.652 232.494,477.986 231.5,468.5C 231.774,463.608 231.107,458.941 229.5,454.5C 229.11,451.161 228.61,447.827 228,444.5C 226.636,445.258 225.469,444.758 224.5,443C 222.846,442.392 221.179,441.892 219.5,441.5C 216.167,439.833 212.833,438.167 209.5,436.5C 209.082,435.778 208.416,435.278 207.5,435C 193.877,433.156 180.211,431.989 166.5,431.5C 165.366,429.034 165.199,426.367 166,423.5C 169.063,414.144 172.23,404.811 175.5,395.5C 176.397,394.402 177.23,394.402 178,395.5C 179.657,389.206 181.157,382.873 182.5,376.5C 183.065,372.463 184.399,368.797 186.5,365.5C 186.833,365.5 187.167,365.5 187.5,365.5C 187.318,367.591 187.652,369.591 188.5,371.5C 189.167,372.833 189.833,372.833 190.5,371.5C 191.191,368.185 192.191,365.019 193.5,362C 193.472,360.93 193.139,360.097 192.5,359.5C 191.449,358.778 190.782,357.778 190.5,356.5C 193.944,348.715 198.944,342.049 205.5,336.5C 204.145,334.479 202.479,332.812 200.5,331.5C 199.167,329.5 197.833,327.5 196.5,325.5C 197.497,325.53 198.164,325.03 198.5,324C 195.12,315.593 193.62,306.76 194,297.5C 193.878,295.563 193.045,294.23 191.5,293.5C 196.04,270.407 208.04,265.907 227.5,280C 231.998,285.827 235.331,292.327 237.5,299.5C 238.689,300.429 240.022,300.762 241.5,300.5 Z"/></g>
<g><path style="opacity:1" fill="#963d36" d="M 326.5,395.5 C 326.833,395.5 327.167,395.5 327.5,395.5C 346.167,395.5 364.833,395.5 383.5,395.5C 383.5,395.833 383.5,396.167 383.5,396.5C 365.167,396.5 346.833,396.5 328.5,396.5C 328.5,398.167 328.5,399.833 328.5,401.5C 326.926,399.898 326.259,397.898 326.5,395.5 Z"/></g>
<g><path style="opacity:1" fill="#a73226" d="M 219.5,345.5 C 220.586,345.62 221.253,346.287 221.5,347.5C 216.303,368.649 211.803,389.982 208,411.5C 207.333,417.167 207.333,422.833 208,428.5C 209.022,429.354 209.855,430.354 210.5,431.5C 204.964,431.662 199.298,431.662 193.5,431.5C 193.084,428.64 194.084,426.474 196.5,425C 204.25,398.497 211.916,371.997 219.5,345.5 Z"/></g>
<g><path style="opacity:1" fill="#fbbd6c" d="M 221.5,364.5 C 222.636,360.287 224.803,359.62 228,362.5C 230.42,368.044 229.92,373.211 226.5,378C 224.024,378.68 222.191,377.847 221,375.5C 220.19,371.642 220.357,367.976 221.5,364.5 Z"/></g>
<g><path style="opacity:1" fill="#eecf5d" d="M 221.5,364.5 C 222.789,362.752 224.289,362.419 226,363.5C 227.508,367.346 227.675,371.179 226.5,375C 224.112,375.865 222.612,375.032 222,372.5C 221.503,369.854 221.336,367.187 221.5,364.5 Z"/></g>
<g><path style="opacity:1" fill="#a53326" d="M 228.5,305.5 C 229.376,305.369 230.043,305.702 230.5,306.5C 228.417,315.613 226.75,324.779 225.5,334C 224.556,335.477 223.223,336.477 221.5,337C 218.5,337.667 215.5,337.667 212.5,337C 215.905,335.597 218.738,333.431 221,330.5C 223.052,321.942 225.552,313.609 228.5,305.5 Z"/></g>
<g><path style="opacity:1" fill="#af8374" d="M 199.5,287.5 C 198.032,292.714 197.365,298.047 197.5,303.5C 197.5,306.833 197.5,310.167 197.5,313.5C 196.778,313.082 196.278,312.416 196,311.5C 194.669,303.007 195.836,295.007 199.5,287.5 Z"/></g>
<g><path style="opacity:1" fill="#d4cfcb" d="M 217.5,290.5 C 220.981,299.919 221.481,309.586 219,319.5C 217.045,323.72 214.545,327.553 211.5,331C 209.167,331.667 206.833,331.667 204.5,331C 199.968,326.029 197.634,320.196 197.5,313.5C 197.5,310.167 197.5,306.833 197.5,303.5C 198.347,297.485 200.68,291.985 204.5,287C 206.034,286.077 207.701,285.577 209.5,285.5C 211.841,286.182 214.174,286.849 216.5,287.5C 216.263,288.791 216.596,289.791 217.5,290.5 Z"/></g>
<g><path style="opacity:1" fill="#9c928a" d="M 217.5,290.5 C 216.596,289.791 216.263,288.791 216.5,287.5C 214.174,286.849 211.841,286.182 209.5,285.5C 207.701,285.577 206.034,286.077 204.5,287C 200.68,291.985 198.347,297.485 197.5,303.5C 197.365,298.047 198.032,292.714 199.5,287.5C 204.588,278.515 210.422,278.182 217,286.5C 217.49,287.793 217.657,289.127 217.5,290.5 Z"/></g>
<g><path style="opacity:1" fill="#3f4356" d="M 314.5,338.5 C 320.245,338.43 325.912,338.763 331.5,339.5C 330.167,339.5 328.833,339.5 327.5,339.5C 327.5,340.5 327.5,341.5 327.5,342.5C 307.897,344.8 289.231,350.3 271.5,359C 266.313,362.031 264.48,366.531 266,372.5C 274.446,401.943 284.28,430.943 295.5,459.5C 294.341,458.544 293.174,457.544 292,456.5C 287.539,455.753 283.039,455.253 278.5,455C 279.696,454.346 279.696,453.846 278.5,453.5C 277.476,454.853 276.143,455.52 274.5,455.5C 275.278,454.844 275.944,454.011 276.5,453C 266.613,430.338 258.113,407.171 251,383.5C 249.39,376.902 248.723,370.236 249,363.5C 250.458,361.04 252.291,358.873 254.5,357C 273.239,346.881 293.239,340.715 314.5,338.5 Z"/></g>
<g><path style="opacity:1" fill="#bd493e" d="M 431.5,404.5 C 430.527,405.791 429.527,405.791 428.5,404.5C 427.571,405.689 427.238,407.022 427.5,408.5C 427.5,414.833 427.5,421.167 427.5,427.5C 426.344,419.677 426.177,411.677 427,403.5C 429.045,401.957 430.545,402.29 431.5,404.5 Z"/></g>
<g><path style="opacity:1" fill="#d05f59" d="M 455.5,399.5 C 457.548,406.378 458.881,413.378 459.5,420.5C 459.5,421.167 459.167,421.5 458.5,421.5C 457.883,421.389 457.383,421.056 457,420.5C 456.423,413.5 455.923,406.5 455.5,399.5 Z"/></g>
<g><path style="opacity:1" fill="#d46155" d="M 243.5,399.5 C 242.495,410.313 241.495,420.979 240.5,431.5C 240.169,422.808 240.502,414.141 241.5,405.5C 242.169,403.369 242.835,401.369 243.5,399.5 Z"/></g>
<g><path style="opacity:1" fill="#853f3c" d="M 431.5,404.5 C 431.825,412.019 431.492,419.352 430.5,426.5C 430.666,420.158 430.5,413.825 430,407.5C 429.667,407.167 429.333,406.833 429,406.5C 428.722,407.416 428.222,408.082 427.5,408.5C 427.238,407.022 427.571,405.689 428.5,404.5C 429.527,405.791 430.527,405.791 431.5,404.5 Z"/></g>
<g><path style="opacity:1" fill="#4e3128" d="M 418.5,407.5 C 417.004,413.605 416.337,419.938 416.5,426.5C 416.167,426.5 415.833,426.5 415.5,426.5C 415.334,420.491 415.501,414.491 416,408.5C 416.919,405.598 417.752,405.265 418.5,407.5 Z"/></g>
<g><path style="opacity:1" fill="#3b2625" d="M 430.5,426.5 C 430.5,428.167 430.5,429.833 430.5,431.5C 429.5,431.5 428.5,431.5 427.5,431.5C 427.5,430.167 427.5,428.833 427.5,427.5C 427.5,421.167 427.5,414.833 427.5,408.5C 428.222,408.082 428.722,407.416 429,406.5C 429.333,406.833 429.667,407.167 430,407.5C 430.5,413.825 430.666,420.158 430.5,426.5 Z"/></g>
<g><path style="opacity:1" fill="#8a4540" d="M 474.5,439.5 C 474.666,434.489 474.499,429.489 474,424.5C 472.833,423.333 471.667,422.167 470.5,421C 466.957,420.856 463.624,420.689 460.5,420.5C 466.048,417.275 470.881,418.275 475,423.5C 476.047,426.039 476.547,428.705 476.5,431.5C 476.713,434.527 476.047,437.193 474.5,439.5 Z"/></g>
<g><path style="opacity:1" fill="#f1eef0" d="M 322.5,388.5 C 323.302,389.952 323.802,391.618 324,393.5C 324.708,394.381 325.542,395.047 326.5,395.5C 326.259,397.898 326.926,399.898 328.5,401.5C 330.172,404.022 331.672,406.688 333,409.5C 333.5,416.826 333.666,424.159 333.5,431.5C 332.51,437.645 332.177,443.978 332.5,450.5C 328.4,436.18 325.234,421.513 323,406.5C 321.568,400.364 321.401,394.364 322.5,388.5 Z"/></g>
<g><path style="opacity:1" fill="#2d282c" d="M 418.5,407.5 C 418.666,414.175 418.5,420.842 418,427.5C 417.617,426.944 417.117,426.611 416.5,426.5C 416.337,419.938 417.004,413.605 418.5,407.5 Z"/></g>
<g><path style="opacity:1" fill="#4d2925" d="M 405.5,404.5 C 406.15,404.804 406.817,405.137 407.5,405.5C 408.633,414.165 408.633,422.832 407.5,431.5C 406.5,431.5 405.5,431.5 404.5,431.5C 404.222,422.447 404.556,413.447 405.5,404.5 Z"/></g>
<g><path style="opacity:1" fill="#93332c" d="M 459.5,420.5 C 459.833,420.5 460.167,420.5 460.5,420.5C 463.624,420.689 466.957,420.856 470.5,421C 471.667,422.167 472.833,423.333 474,424.5C 474.499,429.489 474.666,434.489 474.5,439.5C 474.267,441.062 473.6,442.395 472.5,443.5C 467.606,440.116 463.106,436.116 459,431.5C 458.502,428.183 458.335,424.85 458.5,421.5C 459.167,421.5 459.5,421.167 459.5,420.5 Z"/></g>
<g><path style="opacity:1" fill="#692f2c" d="M 418.5,407.5 C 419.492,415.316 419.826,423.316 419.5,431.5C 418.167,431.5 416.833,431.5 415.5,431.5C 415.5,429.833 415.5,428.167 415.5,426.5C 415.833,426.5 416.167,426.5 416.5,426.5C 417.117,426.611 417.617,426.944 418,427.5C 418.5,420.842 418.666,414.175 418.5,407.5 Z"/></g>
<g><path style="opacity:1" fill="#be5145" d="M 166.5,431.5 C 180.211,431.989 193.877,433.156 207.5,435C 208.416,435.278 209.082,435.778 209.5,436.5C 203.419,436.274 197.419,435.441 191.5,434C 184.174,433.5 176.841,433.334 169.5,433.5C 167.973,433.573 166.973,432.906 166.5,431.5 Z"/></g>
<g><path style="opacity:1" fill="#a9a4ae" d="M 198.5,443.5 C 196.139,443.326 193.806,442.993 191.5,442.5C 190.432,441.566 189.099,441.232 187.5,441.5C 187.132,438.944 187.966,436.944 190,435.5C 192.071,436.787 194.238,437.953 196.5,439C 197.582,440.33 198.249,441.83 198.5,443.5 Z"/></g>
<g><path style="opacity:1" fill="#e0897f" d="M 185.5,441.5 C 186.167,441.5 186.833,441.5 187.5,441.5C 189.099,441.232 190.432,441.566 191.5,442.5C 185.464,442.36 179.464,442.693 173.5,443.5C 173.918,442.778 174.584,442.278 175.5,442C 178.817,441.502 182.15,441.335 185.5,441.5 Z"/></g>
<g><path style="opacity:1" fill="#a5a9b8" d="M 218.5,455.5 C 217.203,457.371 216.203,459.371 215.5,461.5C 212.14,459.82 208.807,458.153 205.5,456.5C 206.167,453.5 206.833,450.5 207.5,447.5C 208.612,445.401 209.279,443.067 209.5,440.5C 219.487,441.486 222.487,446.486 218.5,455.5 Z"/></g>
<g><path style="opacity:1" fill="#c44d44" d="M 219.5,441.5 C 221.179,441.892 222.846,442.392 224.5,443C 225.469,444.758 226.636,445.258 228,444.5C 228.61,447.827 229.11,451.161 229.5,454.5C 227.707,452.574 226.707,450.241 226.5,447.5C 225.5,447.5 224.5,447.5 223.5,447.5C 223.5,446.167 223.5,444.833 223.5,443.5C 221.62,443.771 220.287,443.104 219.5,441.5 Z"/></g>
<g><path style="opacity:1" fill="#d54f43" d="M 191.5,442.5 C 193.806,442.993 196.139,443.326 198.5,443.5C 199.167,443.5 199.5,443.833 199.5,444.5C 192.841,443.778 186.175,443.611 179.5,444C 179.957,444.414 180.291,444.914 180.5,445.5C 175.15,446.438 170.483,448.605 166.5,452C 163.106,452.752 159.773,452.585 156.5,451.5C 153.853,451.929 151.853,453.262 150.5,455.5C 151.724,457.839 151.724,460.172 150.5,462.5C 149.833,461.833 149.167,461.167 148.5,460.5C 147.289,461.274 147.289,462.107 148.5,463C 150.473,463.495 152.473,463.662 154.5,463.5C 154.5,464.167 154.167,464.5 153.5,464.5C 147.301,465.847 144.801,463.513 146,457.5C 153.506,449.503 162.672,444.836 173.5,443.5C 179.464,442.693 185.464,442.36 191.5,442.5 Z"/></g>
<g><path style="opacity:1" fill="#dc493b" d="M 199.5,444.5 C 202.355,445.117 205.022,446.117 207.5,447.5C 206.833,450.5 206.167,453.5 205.5,456.5C 204.065,457.913 203.065,459.58 202.5,461.5C 199.5,461.5 196.5,461.5 193.5,461.5C 193.5,461.167 193.5,460.833 193.5,460.5C 191.952,459.206 189.952,458.539 187.5,458.5C 183.26,458.54 179.26,459.206 175.5,460.5C 172.695,461.319 169.695,461.819 166.5,462C 165.944,462.383 165.611,462.883 165.5,463.5C 161.833,463.5 158.167,463.5 154.5,463.5C 152.473,463.662 150.473,463.495 148.5,463C 147.289,462.107 147.289,461.274 148.5,460.5C 149.167,461.167 149.833,461.833 150.5,462.5C 151.724,460.172 151.724,457.839 150.5,455.5C 151.853,453.262 153.853,451.929 156.5,451.5C 159.773,452.585 163.106,452.752 166.5,452C 170.483,448.605 175.15,446.438 180.5,445.5C 180.291,444.914 179.957,444.414 179.5,444C 186.175,443.611 192.841,443.778 199.5,444.5 Z"/></g>
<g><path style="opacity:1" fill="#b36560" d="M 333.5,431.5 C 333.149,442.259 333.815,452.926 335.5,463.5C 332.839,459.69 331.839,455.356 332.5,450.5C 332.177,443.978 332.51,437.645 333.5,431.5 Z"/></g>
<g><path style="opacity:1" fill="#3a3d4c" d="M 295.5,459.5 C 295.918,460.222 296.584,460.722 297.5,461C 303.523,461.359 309.523,461.859 315.5,462.5C 321.822,464.931 328.488,465.931 335.5,465.5C 336.752,467.001 337.752,468.668 338.5,470.5C 337.131,472.068 336.131,473.901 335.5,476C 331.5,476.5 327.5,477 323.5,477.5C 321.667,477.585 320.334,478.252 319.5,479.5C 303.5,479.5 287.5,479.5 271.5,479.5C 269.833,479.5 268.167,479.5 266.5,479.5C 265.653,478.034 264.32,477.2 262.5,477C 261.929,475.795 261.262,474.628 260.5,473.5C 255.976,472.48 251.642,471.147 247.5,469.5C 247.351,468.448 247.517,467.448 248,466.5C 255.941,460.783 264.774,457.116 274.5,455.5C 276.143,455.52 277.476,454.853 278.5,453.5C 279.696,453.846 279.696,454.346 278.5,455C 283.039,455.253 287.539,455.753 292,456.5C 293.174,457.544 294.341,458.544 295.5,459.5 Z"/></g>
<g><path style="opacity:1" fill="#c8524c" d="M 193.5,460.5 C 187.5,460.5 181.5,460.5 175.5,460.5C 179.26,459.206 183.26,458.54 187.5,458.5C 189.952,458.539 191.952,459.206 193.5,460.5 Z"/></g>
<g><path style="opacity:1" fill="#7c454c" d="M 175.5,460.5 C 181.5,460.5 187.5,460.5 193.5,460.5C 193.5,460.833 193.5,461.167 193.5,461.5C 187.464,461.36 181.464,461.693 175.5,462.5C 172.098,462.342 168.764,462.676 165.5,463.5C 165.611,462.883 165.944,462.383 166.5,462C 169.695,461.819 172.695,461.319 175.5,460.5 Z"/></g>
<g><path style="opacity:1" fill="#3b3e4e" d="M 205.5,456.5 C 208.807,458.153 212.14,459.82 215.5,461.5C 215.5,462.167 215.5,462.833 215.5,463.5C 214.5,463.5 213.5,463.5 212.5,463.5C 212.132,466.533 212.798,469.2 214.5,471.5C 212.235,476.535 210.568,481.869 209.5,487.5C 205.854,496.45 203.188,505.784 201.5,515.5C 195.956,514.932 190.956,513.099 186.5,510C 189.27,501.858 191.936,493.691 194.5,485.5C 195.309,483.972 195.976,482.306 196.5,480.5C 196.5,480.167 196.5,479.833 196.5,479.5C 198.269,473.527 200.269,467.527 202.5,461.5C 203.065,459.58 204.065,457.913 205.5,456.5 Z"/></g>
<g><path style="opacity:1" fill="#be4e4d" d="M 218.5,455.5 C 219.906,455.973 220.573,456.973 220.5,458.5C 219.504,458.414 218.671,458.748 218,459.5C 217.608,462.188 217.108,464.855 216.5,467.5C 217.444,471.11 219.777,472.777 223.5,472.5C 219.946,474.202 217.113,473.202 215,469.5C 214.51,467.455 214.677,465.455 215.5,463.5C 215.5,462.833 215.5,462.167 215.5,461.5C 216.203,459.371 217.203,457.371 218.5,455.5 Z"/></g>
<g><path style="opacity:1" fill="#dd493a" d="M 220.5,458.5 C 222.677,462.799 223.677,467.465 223.5,472.5C 219.777,472.777 217.444,471.11 216.5,467.5C 217.108,464.855 217.608,462.188 218,459.5C 218.671,458.748 219.504,458.414 220.5,458.5 Z"/></g>
<g><path style="opacity:1" fill="#843a3b" d="M 447.5,470.5 C 443.167,470.5 438.833,470.5 434.5,470.5C 431.833,470.5 429.167,470.5 426.5,470.5C 421.073,470.218 415.74,470.551 410.5,471.5C 405.167,471.5 399.833,471.5 394.5,471.5C 395.952,470.698 397.618,470.198 399.5,470C 415.672,469.172 431.672,469.339 447.5,470.5 Z"/></g>
<g><path style="opacity:1" fill="#924a43" d="M 476.5,466.5 C 477.5,466.5 478.5,466.5 479.5,466.5C 476.86,471.898 472.527,473.898 466.5,472.5C 460.066,471.87 453.733,471.203 447.5,470.5C 456.506,470.666 465.506,470.5 474.5,470C 475.305,468.887 475.972,467.721 476.5,466.5 Z"/></g>
<g><path style="opacity:1" fill="#5b4c4b" d="M 169.5,433.5 C 176.841,433.334 184.174,433.5 191.5,434C 197.419,435.441 203.419,436.274 209.5,436.5C 212.833,438.167 216.167,439.833 219.5,441.5C 220.287,443.104 221.62,443.771 223.5,443.5C 223.5,444.833 223.5,446.167 223.5,447.5C 224.5,447.5 225.5,447.5 226.5,447.5C 226.707,450.241 227.707,452.574 229.5,454.5C 231.107,458.941 231.774,463.608 231.5,468.5C 231.5,481.833 231.5,495.167 231.5,508.5C 231.167,508.5 230.833,508.5 230.5,508.5C 229.371,498.316 226.538,488.649 222,479.5C 219.715,476.568 217.215,473.902 214.5,471.5C 212.798,469.2 212.132,466.533 212.5,463.5C 213.5,463.5 214.5,463.5 215.5,463.5C 214.677,465.455 214.51,467.455 215,469.5C 217.113,473.202 219.946,474.202 223.5,472.5C 223.677,467.465 222.677,462.799 220.5,458.5C 220.573,456.973 219.906,455.973 218.5,455.5C 222.487,446.486 219.487,441.486 209.5,440.5C 209.279,443.067 208.612,445.401 207.5,447.5C 205.022,446.117 202.355,445.117 199.5,444.5C 199.5,443.833 199.167,443.5 198.5,443.5C 198.249,441.83 197.582,440.33 196.5,439C 194.238,437.953 192.071,436.787 190,435.5C 187.966,436.944 187.132,438.944 187.5,441.5C 186.833,441.5 186.167,441.5 185.5,441.5C 180.414,438.29 175.081,435.624 169.5,433.5 Z"/></g>
<g><path style="opacity:1" fill="#893639" d="M 246.5,469.5 C 246.833,469.5 247.167,469.5 247.5,469.5C 251.642,471.147 255.976,472.48 260.5,473.5C 261.262,474.628 261.929,475.795 262.5,477C 264.32,477.2 265.653,478.034 266.5,479.5C 262.234,479.875 259.567,478.041 258.5,474C 255.5,473.667 252.5,473.333 249.5,473C 248.29,471.961 247.29,470.794 246.5,469.5 Z"/></g>
<g><path style="opacity:1" fill="#3d3c49" d="M 394.5,471.5 C 399.833,471.5 405.167,471.5 410.5,471.5C 409.5,472.833 408.5,474.167 407.5,475.5C 402.243,475.355 397.41,476.689 393,479.5C 389.943,478.549 386.777,478.216 383.5,478.5C 383.5,478.167 383.5,477.833 383.5,477.5C 388.431,478.688 391.764,477.022 393.5,472.5C 394.167,472.5 394.5,472.167 394.5,471.5 Z"/></g>
<g><path style="opacity:1" fill="#66687a" d="M 426.5,470.5 C 427.038,472.117 427.371,473.784 427.5,475.5C 420.833,475.5 414.167,475.5 407.5,475.5C 408.5,474.167 409.5,472.833 410.5,471.5C 415.74,470.551 421.073,470.218 426.5,470.5 Z"/></g>
<g><path style="opacity:1" fill="#f1e7e7" d="M 393.5,472.5 C 391.764,477.022 388.431,478.688 383.5,477.5C 385.983,474.259 389.316,472.592 393.5,472.5 Z"/></g>
<g><path style="opacity:1" fill="#5b3a39" d="M 338.5,470.5 C 339.468,472.607 339.802,474.941 339.5,477.5C 332.742,477.387 326.075,478.054 319.5,479.5C 320.334,478.252 321.667,477.585 323.5,477.5C 327.5,477 331.5,476.5 335.5,476C 336.131,473.901 337.131,472.068 338.5,470.5 Z"/></g>
<g><path style="opacity:1" fill="#3a3d4c" d="M 175.5,462.5 C 155.04,476.108 147.207,495.108 152,519.5C 157.868,541.487 172.035,553.154 194.5,554.5C 163.024,558.2 143.857,544.534 137,513.5C 134.437,494.355 139.937,478.022 153.5,464.5C 154.167,464.5 154.5,464.167 154.5,463.5C 158.167,463.5 161.833,463.5 165.5,463.5C 168.764,462.676 172.098,462.342 175.5,462.5 Z"/></g>
<g><path style="opacity:1" fill="#322a2c" d="M 407.5,475.5 C 415.99,476.33 424.657,476.83 433.5,477C 431.122,477.974 431.456,478.641 434.5,479C 425.324,479.17 416.324,479.67 407.5,480.5C 400.159,480.334 392.826,480.5 385.5,481C 383.984,482.897 383.317,485.064 383.5,487.5C 400.577,487.818 417.577,487.485 434.5,486.5C 433.52,488.118 433.52,490.118 434.5,492.5C 433.833,492.5 433.5,492.833 433.5,493.5C 427.256,494.458 420.923,494.791 414.5,494.5C 412.167,494.5 409.833,494.5 407.5,494.5C 400.018,493.508 392.352,493.175 384.5,493.5C 381.833,493.5 379.167,493.5 376.5,493.5C 377.124,487.596 379.457,482.596 383.5,478.5C 386.777,478.216 389.943,478.549 393,479.5C 397.41,476.689 402.243,475.355 407.5,475.5 Z"/></g>
<g><path style="opacity:1" fill="#9f352d" d="M 335.5,465.5 C 337.624,466.031 339.124,467.365 340,469.5C 340.333,472.5 340.667,475.5 341,478.5C 341.925,479.047 342.758,479.713 343.5,480.5C 331.5,480.833 319.5,481.167 307.5,481.5C 295.148,481.499 283.148,480.832 271.5,479.5C 287.5,479.5 303.5,479.5 319.5,479.5C 326.075,478.054 332.742,477.387 339.5,477.5C 339.802,474.941 339.468,472.607 338.5,470.5C 337.752,468.668 336.752,467.001 335.5,465.5 Z"/></g>
<g><path style="opacity:1" fill="#5a4f4f" d="M 407.5,480.5 C 416.5,480.5 425.5,480.5 434.5,480.5C 434.5,482.5 434.5,484.5 434.5,486.5C 417.577,487.485 400.577,487.818 383.5,487.5C 383.317,485.064 383.984,482.897 385.5,481C 392.826,480.5 400.159,480.334 407.5,480.5 Z"/></g>
<g><path style="opacity:1" fill="#3d383f" d="M 426.5,470.5 C 429.167,470.5 431.833,470.5 434.5,470.5C 434.971,472.579 435.637,474.579 436.5,476.5C 436.869,480.597 439.202,482.764 443.5,483C 447.36,485.516 448.36,488.849 446.5,493C 444.718,493.122 443.052,492.622 441.5,491.5C 441.238,489.436 440.071,488.103 438,487.5C 437.098,489.431 435.931,491.097 434.5,492.5C 433.52,490.118 433.52,488.118 434.5,486.5C 434.5,484.5 434.5,482.5 434.5,480.5C 425.5,480.5 416.5,480.5 407.5,480.5C 416.324,479.67 425.324,479.17 434.5,479C 431.456,478.641 431.122,477.974 433.5,477C 424.657,476.83 415.99,476.33 407.5,475.5C 414.167,475.5 420.833,475.5 427.5,475.5C 427.371,473.784 427.038,472.117 426.5,470.5 Z"/></g>
<g><path style="opacity:1" fill="#dbd8d9" d="M 376.5,493.5 C 379.167,493.5 381.833,493.5 384.5,493.5C 382.012,495.388 379.012,496.055 375.5,495.5C 375.328,494.508 375.662,493.842 376.5,493.5 Z"/></g>
<g><path style="opacity:1" fill="#a3a9b9" d="M 436.5,476.5 C 451.235,477.732 459.735,485.732 462,500.5C 463.865,512.572 460.365,522.739 451.5,531C 431.247,540.042 418.247,533.709 412.5,512C 414.134,511.506 415.801,511.34 417.5,511.5C 426.857,512.17 436.19,512.17 445.5,511.5C 446.593,507.892 446.76,504.225 446,500.5C 443.082,498.266 441.582,495.266 441.5,491.5C 443.052,492.622 444.718,493.122 446.5,493C 448.36,488.849 447.36,485.516 443.5,483C 439.202,482.764 436.869,480.597 436.5,476.5 Z"/></g>
<g><path style="opacity:1" fill="#944544" d="M 231.5,468.5 C 232.494,477.986 232.827,487.652 232.5,497.5C 232.5,501.167 232.5,504.833 232.5,508.5C 235.059,508.198 237.393,508.532 239.5,509.5C 236.615,509.806 233.948,509.473 231.5,508.5C 231.5,495.167 231.5,481.833 231.5,468.5 Z"/></g>
<g><path style="opacity:1" fill="#a4362b" d="M 476.5,466.5 C 475.972,467.721 475.305,468.887 474.5,470C 465.506,470.5 456.506,470.666 447.5,470.5C 431.672,469.339 415.672,469.172 399.5,470C 397.618,470.198 395.952,470.698 394.5,471.5C 394.5,472.167 394.167,472.5 393.5,472.5C 389.316,472.592 385.983,474.259 383.5,477.5C 383.5,477.833 383.5,478.167 383.5,478.5C 379.457,482.596 377.124,487.596 376.5,493.5C 375.662,493.842 375.328,494.508 375.5,495.5C 372.964,499.909 370.964,504.575 369.5,509.5C 367.974,511.13 365.974,511.963 363.5,512C 322.058,512.95 280.725,512.116 239.5,509.5C 237.393,508.532 235.059,508.198 232.5,508.5C 232.5,504.833 232.5,501.167 232.5,497.5C 234.309,500.139 236.642,502.306 239.5,504C 244.823,504.499 250.156,504.666 255.5,504.5C 260.651,505.327 265.984,505.827 271.5,506C 300.5,506.667 329.5,506.667 358.5,506C 361.801,505.513 364.467,504.013 366.5,501.5C 369.622,491.64 373.788,481.974 379,472.5C 385.073,468.267 391.906,466.101 399.5,466C 422.698,465.133 445.864,465.633 469,467.5C 471.551,467.375 474.051,467.042 476.5,466.5 Z"/></g>
<g><path style="opacity:1" fill="#d1493b" d="M 366.5,501.5 C 364.467,504.013 361.801,505.513 358.5,506C 329.5,506.667 300.5,506.667 271.5,506C 265.984,505.827 260.651,505.327 255.5,504.5C 284.849,504.25 314.183,504.25 343.5,504.5C 351.296,504.148 358.962,503.148 366.5,501.5 Z"/></g>
<g><path style="opacity:1" fill="#64697d" d="M 193.5,461.5 C 196.5,461.5 199.5,461.5 202.5,461.5C 200.269,467.527 198.269,473.527 196.5,479.5C 196.5,478.5 196.5,477.5 196.5,476.5C 180.657,475.177 170.49,482.177 166,497.5C 163.479,511.271 167.312,522.771 177.5,532C 192.748,539.151 204.248,535.317 212,520.5C 217.112,508.968 216.279,497.968 209.5,487.5C 210.568,481.869 212.235,476.535 214.5,471.5C 217.215,473.902 219.715,476.568 222,479.5C 226.538,488.649 229.371,498.316 230.5,508.5C 229.1,524.776 221.767,537.943 208.5,548C 203.886,550.476 199.22,552.643 194.5,554.5C 172.035,553.154 157.868,541.487 152,519.5C 147.207,495.108 155.04,476.108 175.5,462.5C 181.464,461.693 187.464,461.36 193.5,461.5 Z"/></g>
<g><path style="opacity:1" fill="#717785" d="M 196.5,480.5 C 195.976,482.306 195.309,483.972 194.5,485.5C 187.445,483.233 181.278,485.233 176,491.5C 174.667,494.167 173.333,496.833 172,499.5C 171.169,506.684 171.502,513.684 173,520.5C 166.718,508.966 167.051,497.633 174,486.5C 180.258,479.96 187.758,477.96 196.5,480.5 Z"/></g>
<g><path style="opacity:1" fill="#a4a9ba" d="M 196.5,479.5 C 196.5,479.833 196.5,480.167 196.5,480.5C 187.758,477.96 180.258,479.96 174,486.5C 167.051,497.633 166.718,508.966 173,520.5C 171.502,513.684 171.169,506.684 172,499.5C 173.333,496.833 174.667,494.167 176,491.5C 181.278,485.233 187.445,483.233 194.5,485.5C 191.936,493.691 189.27,501.858 186.5,510C 190.956,513.099 195.956,514.932 201.5,515.5C 203.188,505.784 205.854,496.45 209.5,487.5C 216.279,497.968 217.112,508.968 212,520.5C 204.248,535.317 192.748,539.151 177.5,532C 167.312,522.771 163.479,511.271 166,497.5C 170.49,482.177 180.657,475.177 196.5,476.5C 196.5,477.5 196.5,478.5 196.5,479.5 Z"/></g>
<g><path style="opacity:1" fill="#a2a5b5" d="M 197.5,500.5 C 202.537,501.242 203.704,503.909 201,508.5C 199.667,509.833 198.333,509.833 197,508.5C 196.278,505.739 196.445,503.073 197.5,500.5 Z"/></g>
<g><path style="opacity:1" fill="#65697d" d="M 434.5,470.5 C 438.833,470.5 443.167,470.5 447.5,470.5C 453.733,471.203 460.066,471.87 466.5,472.5C 478.892,492.587 479.726,513.254 469,534.5C 462.456,544.696 453.29,551.363 441.5,554.5C 422.7,554.51 409.534,545.843 402,528.5C 399.566,522.705 398.066,516.705 397.5,510.5C 404.354,510.176 411.021,510.509 417.5,511.5C 415.801,511.34 414.134,511.506 412.5,512C 418.247,533.709 431.247,540.042 451.5,531C 460.365,522.739 463.865,512.572 462,500.5C 459.735,485.732 451.235,477.732 436.5,476.5C 435.637,474.579 434.971,472.579 434.5,470.5 Z"/></g>
<g><path style="opacity:1" fill="#3b3e4c" d="M 441.5,491.5 C 441.582,495.266 443.082,498.266 446,500.5C 446.76,504.225 446.593,507.892 445.5,511.5C 436.19,512.17 426.857,512.17 417.5,511.5C 411.021,510.509 404.354,510.176 397.5,510.5C 398.066,516.705 399.566,522.705 402,528.5C 409.534,545.843 422.7,554.51 441.5,554.5C 416.841,558.92 399.007,549.92 388,527.5C 385.869,521.644 384.369,515.644 383.5,509.5C 378.833,509.5 374.167,509.5 369.5,509.5C 370.964,504.575 372.964,499.909 375.5,495.5C 379.012,496.055 382.012,495.388 384.5,493.5C 392.352,493.175 400.018,493.508 407.5,494.5C 404.5,494.5 401.5,494.5 398.5,494.5C 398.5,495.5 398.5,496.5 398.5,497.5C 403.5,497.5 408.5,497.5 413.5,497.5C 420.969,498.762 428.635,499.429 436.5,499.5C 436.539,496.911 435.539,494.911 433.5,493.5C 433.5,492.833 433.833,492.5 434.5,492.5C 435.931,491.097 437.098,489.431 438,487.5C 440.071,488.103 441.238,489.436 441.5,491.5 Z"/></g>
<g><path style="opacity:1" fill="#a2a5b6" d="M 440.5,501.5 C 443.734,501.237 445.068,502.737 444.5,506C 444.825,510.157 443.158,511.324 439.5,509.5C 438.025,506.557 438.358,503.891 440.5,501.5 Z"/></g>
<g><path style="opacity:1" fill="#9698a5" d="M 433.5,493.5 C 435.539,494.911 436.539,496.911 436.5,499.5C 428.635,499.429 420.969,498.762 413.5,497.5C 413.557,496.391 413.89,495.391 414.5,494.5C 420.923,494.791 427.256,494.458 433.5,493.5 Z"/></g>
<g><path style="opacity:1" fill="#606270" d="M 407.5,494.5 C 409.833,494.5 412.167,494.5 414.5,494.5C 413.89,495.391 413.557,496.391 413.5,497.5C 408.5,497.5 403.5,497.5 398.5,497.5C 398.5,496.5 398.5,495.5 398.5,494.5C 401.5,494.5 404.5,494.5 407.5,494.5 Z"/></g>
</svg>
