<?xml version="1.0" encoding="UTF-8"?>
<!DOCTYPE svg PUBLIC "-//W3C//DTD SVG 1.1//EN" "http://www.w3.org/Graphics/SVG/1.1/DTD/svg11.dtd">
<svg xmlns="http://www.w3.org/2000/svg" version="1.1" width="275px" height="549px" style="shape-rendering:geometricPrecision; text-rendering:geometricPrecision; image-rendering:optimizeQuality; fill-rule:evenodd; clip-rule:evenodd" xmlns:xlink="http://www.w3.org/1999/xlink">
<g><path style="opacity:1" fill="#838383" d="M 34.5,1.5 C 100.168,1.33334 165.834,1.5 231.5,2C 167.332,2.16711 103.332,2.66711 39.5,3.5C 36.5049,3.29379 33.8383,3.96046 31.5,5.5C 29.7839,5.62867 28.1172,5.962 26.5,6.5C 25.7611,6.63101 25.0944,6.46434 24.5,6C 25.8584,5.06564 27.1917,4.2323 28.5,3.5C 30.1016,1.92606 32.1016,1.25939 34.5,1.5 Z"/></g>
<g><path style="opacity:1" fill="#5f5f5f" d="M 34.5,1.5 C 100.665,0.500847 166.998,0.167514 233.5,0.5C 241.048,0.233303 247.715,2.39997 253.5,7C 247.191,6.34511 240.858,5.51178 234.5,4.5C 169.669,3.50086 104.669,3.16753 39.5,3.5C 103.332,2.66711 167.332,2.16711 231.5,2C 165.834,1.5 100.168,1.33334 34.5,1.5 Z"/></g>
<g><path style="opacity:1" fill="#222222" d="M 39.5,3.5 C 104.669,3.16753 169.669,3.50086 234.5,4.5C 166.811,4.18018 99.1441,4.51352 31.5,5.5C 33.8383,3.96046 36.5049,3.29379 39.5,3.5 Z"/></g>
<g><path style="opacity:0.997" fill="#0c0c0c" d="M 233.5,0.5 C 233.5,0.166667 233.5,-0.166667 233.5,-0.5C 236.833,-0.5 240.167,-0.5 243.5,-0.5C 260.325,4.32708 270.658,15.3271 274.5,32.5C 274.5,64.8333 274.5,97.1667 274.5,129.5C 273.883,129.611 273.383,129.944 273,130.5C 272.832,98.664 272.332,66.9974 271.5,35.5C 271.436,28.2053 268.769,22.0386 263.5,17C 262.668,16.3123 262.002,16.479 261.5,17.5C 262.803,19.9676 264.303,22.301 266,24.5C 266.687,28.5796 267.687,32.5796 269,36.5C 269.667,193.833 269.667,351.167 269,508.5C 268.068,513.393 266.902,518.227 265.5,523C 265.833,523.833 266.167,524.667 266.5,525.5C 268.135,522.3 269.468,518.967 270.5,515.5C 271.302,514.048 271.802,512.382 272,510.5C 271.835,401.829 272.668,293.495 274.5,185.5C 274.5,295.167 274.5,404.833 274.5,514.5C 272.03,526.489 265.696,535.989 255.5,543C 251.152,544.379 247.152,546.213 243.5,548.5C 240.833,548.5 238.167,548.5 235.5,548.5C 235.5,547.833 235.5,547.167 235.5,546.5C 243.02,546.202 249.687,543.702 255.5,539C 246.995,540.932 238.329,542.432 229.5,543.5C 164.499,543.667 99.4991,543.5 34.5,543C 30.3154,541.057 25.982,540.057 21.5,540C 27.012,544.449 33.3454,546.615 40.5,546.5C 40.5,547.167 40.5,547.833 40.5,548.5C 37.8333,548.5 35.1667,548.5 32.5,548.5C 28.5003,546.228 24.167,544.395 19.5,543C 13.6507,538.816 8.8174,533.65 5,527.5C 2.73635,521.168 0.903013,514.835 -0.5,508.5C -0.5,406.5 -0.5,304.5 -0.5,202.5C 0.117425,202.389 0.617425,202.056 1,201.5C 1.16694,303.334 1.66694,405.001 2.5,506.5C 2.33537,509.518 2.50204,512.518 3,515.5C 4.94427,518.274 6.44427,521.274 7.5,524.5C 7.83333,523.667 8.16667,522.833 8.5,522C 7.13317,517.599 6.46651,513.099 6.5,508.5C 6.16953,348.126 6.50287,187.793 7.5,27.5C 11.4171,18.2525 17.7505,11.2525 26.5,6.5C 28.1172,5.962 29.7839,5.62867 31.5,5.5C 99.1441,4.51352 166.811,4.18018 234.5,4.5C 240.858,5.51178 247.191,6.34511 253.5,7C 247.715,2.39997 241.048,0.233303 233.5,0.5 Z"/></g>
<g><path style="opacity:1" fill="#202020" d="M 79.5,6.5 C 78.7375,7.26791 77.7375,7.76791 76.5,8C 76.8333,8.33333 77.1667,8.66667 77.5,9C 116.833,9.66667 156.167,9.66667 195.5,9C 195.833,8.66667 196.167,8.33333 196.5,8C 195.263,7.76791 194.263,7.26791 193.5,6.5C 200.615,6.07532 207.615,6.57532 214.5,8C 209.679,9.27886 204.679,9.94553 199.5,10C 156.833,10.6667 114.167,10.6667 71.5,10C 68.4465,9.82145 65.4465,9.32145 62.5,8.5C 63,8.16667 63.5,7.83333 64,7.5C 69.1159,6.57514 74.2825,6.24181 79.5,6.5 Z"/></g>
<g><path style="opacity:1" fill="#323232" d="M 79.5,6.5 C 117.5,6.5 155.5,6.5 193.5,6.5C 194.263,7.26791 195.263,7.76791 196.5,8C 196.167,8.33333 195.833,8.66667 195.5,9C 156.167,9.66667 116.833,9.66667 77.5,9C 77.1667,8.66667 76.8333,8.33333 76.5,8C 77.7375,7.76791 78.7375,7.26791 79.5,6.5 Z"/></g>
<g><path style="opacity:1" fill="#a7a7a7" d="M 68.5,16.5 C 57.8281,16.3335 47.1615,16.5002 36.5,17C 34.257,18.1362 31.9237,18.9695 29.5,19.5C 30.9746,17.5905 32.9746,16.4238 35.5,16C 46.6745,15.1743 57.6745,15.341 68.5,16.5 Z"/></g>
<g><path style="opacity:1" fill="#b8b8b8" d="M 234.5,15.5 C 234.5,15.8333 234.5,16.1667 234.5,16.5C 224.448,16.2162 214.448,16.5496 204.5,17.5C 204.5,17.1667 204.5,16.8333 204.5,16.5C 214.418,15.5259 224.418,15.1926 234.5,15.5 Z"/></g>
<g><path style="opacity:1" fill="#595959" d="M 234.5,16.5 C 234.5,16.1667 234.5,15.8333 234.5,15.5C 238.708,15.677 242.374,17.0103 245.5,19.5C 241.89,18.2967 238.223,17.2967 234.5,16.5 Z"/></g>
<g><path style="opacity:1" fill="#fefefd" d="M 68.5,16.5 C 69.1174,16.6107 69.6174,16.944 70,17.5C 70.1829,20.3647 70.6829,23.0314 71.5,25.5C 71.0246,28.3126 72.0246,30.3126 74.5,31.5C 76.5475,33.0745 78.8808,34.0745 81.5,34.5C 81.6107,35.1174 81.944,35.6174 82.5,36C 119.167,36.6667 155.833,36.6667 192.5,36C 194.32,35.7996 195.653,34.9663 196.5,33.5C 199.2,31.7656 201.2,29.4323 202.5,26.5C 203.913,23.7814 204.58,20.7814 204.5,17.5C 214.448,16.5496 224.448,16.2162 234.5,16.5C 238.223,17.2967 241.89,18.2967 245.5,19.5C 249.574,22.2452 252.574,25.9119 254.5,30.5C 254.372,32.6547 254.872,34.6547 256,36.5C 256.5,194.166 256.667,351.833 256.5,509.5C 255.249,517.062 251.582,523.062 245.5,527.5C 241.89,528.703 238.223,529.703 234.5,530.5C 167.144,530.82 99.8108,530.486 32.5,529.5C 32.0269,528.094 31.0269,527.427 29.5,527.5C 22.9347,523.397 19.1014,517.397 18,509.5C 17.1672,351.666 17.3339,193.999 18.5,36.5C 19.4067,34.3432 20.0733,32.0098 20.5,29.5C 23.0795,26.5776 25.7461,23.5776 28.5,20.5C 28.5,19.8333 28.8333,19.5 29.5,19.5C 31.9237,18.9695 34.257,18.1362 36.5,17C 47.1615,16.5002 57.8281,16.3335 68.5,16.5 Z"/></g>
<g><path style="opacity:1" fill="#4a4a4a" d="M 204.5,16.5 C 204.5,16.8333 204.5,17.1667 204.5,17.5C 204.58,20.7814 203.913,23.7814 202.5,26.5C 202.335,23.4816 202.502,20.4816 203,17.5C 203.383,16.944 203.883,16.6107 204.5,16.5 Z"/></g>
<g><path style="opacity:1" fill="#2e2e2e" d="M 28.5,3.5 C 27.1917,4.2323 25.8584,5.06564 24.5,6C 25.0944,6.46434 25.7611,6.63101 26.5,6.5C 17.7505,11.2525 11.4171,18.2525 7.5,27.5C 6.38705,26.0536 6.22039,24.3869 7,22.5C 11.5998,13.0557 18.7664,6.7224 28.5,3.5 Z"/></g>
<g><path style="opacity:1" fill="#bcbcbc" d="M 28.5,20.5 C 25.7461,23.5776 23.0795,26.5776 20.5,29.5C 21.7684,25.2329 24.4351,22.2329 28.5,20.5 Z"/></g>
<g><path style="opacity:1" fill="#a4a4a4" d="M 71.5,25.5 C 72.4918,27.4561 73.4918,29.4561 74.5,31.5C 72.0246,30.3126 71.0246,28.3126 71.5,25.5 Z"/></g>
<g><path style="opacity:1" fill="#9f9f9f" d="M 20.5,29.5 C 20.0733,32.0098 19.4067,34.3432 18.5,36.5C 18.3379,34.4727 18.5045,32.4727 19,30.5C 19.3826,29.944 19.8826,29.6107 20.5,29.5 Z"/></g>
<g><path style="opacity:1" fill="#bababa" d="M 196.5,33.5 C 195.653,34.9663 194.32,35.7996 192.5,36C 155.833,36.6667 119.167,36.6667 82.5,36C 81.944,35.6174 81.6107,35.1174 81.5,34.5C 119.876,34.8211 158.21,34.4878 196.5,33.5 Z"/></g>
<g><path style="opacity:1" fill="#131313" d="M 12.5,33.5 C 12.3333,190.834 12.5,348.167 13,505.5C 13.1206,511.307 13.9539,516.974 15.5,522.5C 13.6885,520.615 12.5218,518.281 12,515.5C 11.1672,354.666 11.3339,193.999 12.5,33.5 Z"/></g>
<g><path style="opacity:1" fill="#333333" d="M 261.5,516.5 C 262.309,514.708 262.809,512.708 263,510.5C 263.667,352.5 263.667,194.5 263,36.5C 262.768,35.2625 262.268,34.2625 261.5,33.5C 260.245,29.5628 259.078,25.5628 258,21.5C 255.688,18.0205 252.854,15.0205 249.5,12.5C 250.002,11.479 250.668,11.3123 251.5,12C 258.964,17.7514 263.798,25.2514 266,34.5C 266.667,193.5 266.667,352.5 266,511.5C 263.996,522.184 258.496,530.517 249.5,536.5C 249.167,536.167 248.833,535.833 248.5,535.5C 254.061,529.951 258.394,523.617 261.5,516.5 Z"/></g>
<g><path style="opacity:1" fill="#303031" d="M 12.5,33.5 C 11.3339,193.999 11.1672,354.666 12,515.5C 12.5218,518.281 13.6885,520.615 15.5,522.5C 17.8929,527.396 21.2262,531.562 25.5,535C 23.212,535.418 21.212,534.751 19.5,533C 13.1707,525.7 9.33738,517.2 8,507.5C 7.33333,351.5 7.33333,195.5 8,39.5C 8.74554,28.1755 13.5789,19.0088 22.5,12C 23.5,11.3333 24.5,11.3333 25.5,12C 21.6667,14.5 18.5,17.6667 16,21.5C 14.928,25.5472 13.7613,29.5472 12.5,33.5 Z"/></g>
<g><path style="opacity:1" fill="#1e1e1e" d="M 261.5,33.5 C 262.268,34.2625 262.768,35.2625 263,36.5C 263.667,194.5 263.667,352.5 263,510.5C 262.809,512.708 262.309,514.708 261.5,516.5C 262.829,355.491 262.829,194.491 261.5,33.5 Z"/></g>
<g><path style="opacity:1" fill="#6d6d6d" d="M 254.5,30.5 C 255.793,31.842 256.626,33.5087 257,35.5C 257.833,193.667 257.666,351.667 256.5,509.5C 256.667,351.833 256.5,194.166 256,36.5C 254.872,34.6547 254.372,32.6547 254.5,30.5 Z"/></g>
<g><path style="opacity:1" fill="#7b7b7b" d="M 271.5,35.5 C 271.5,85.1667 271.5,134.833 271.5,184.5C 271.821,294.848 271.488,405.182 270.5,515.5C 269.468,518.967 268.135,522.3 266.5,525.5C 266.167,524.667 265.833,523.833 265.5,523C 266.902,518.227 268.068,513.393 269,508.5C 269.667,351.167 269.667,193.833 269,36.5C 267.687,32.5796 266.687,28.5796 266,24.5C 264.303,22.301 262.803,19.9676 261.5,17.5C 262.002,16.479 262.668,16.3123 263.5,17C 268.769,22.0386 271.436,28.2053 271.5,35.5 Z"/></g>
<g><path style="opacity:1" fill="#101010" d="M 31.5,-0.5 C 98.8333,-0.5 166.167,-0.5 233.5,-0.5C 233.5,-0.166667 233.5,0.166667 233.5,0.5C 166.998,0.167514 100.665,0.500847 34.5,1.5C 32.1016,1.25939 30.1016,1.92606 28.5,3.5C 18.7664,6.7224 11.5998,13.0557 7,22.5C 6.22039,24.3869 6.38705,26.0536 7.5,27.5C 6.50287,187.793 6.16953,348.126 6.5,508.5C 5.50038,363.334 5.16705,218.001 5.5,72.5C 5.83231,60.4815 5.49897,48.4815 4.5,36.5C 3.33115,42.4421 1.99782,48.2754 0.5,54C 1.1125,57.6276 1.44583,61.2943 1.5,65C 1.48484,68.5758 0.818177,71.7425 -0.5,74.5C -0.5,62.5 -0.5,50.5 -0.5,38.5C 0.568087,28.9387 4.06809,20.2721 10,12.5C 13.4903,10.0087 16.657,7.17536 19.5,4C 23.6096,2.48522 27.6096,0.985224 31.5,-0.5 Z"/></g>
<g><path style="opacity:1" fill="#404040" d="M 5.5,72.5 C 4.83472,70.3021 4.16805,67.9688 3.5,65.5C 2.50053,82.1533 2.1672,98.82 2.5,115.5C 1.5,115.5 0.5,115.5 -0.5,115.5C -0.5,114.5 -0.5,113.5 -0.5,112.5C 0.221579,112.918 0.721579,113.584 1,114.5C 1.16667,111 1.33333,107.5 1.5,104C 1.48771,100.098 0.821038,96.5982 -0.5,93.5C -0.5,87.1667 -0.5,80.8333 -0.5,74.5C 0.818177,71.7425 1.48484,68.5758 1.5,65C 1.44583,61.2943 1.1125,57.6276 0.5,54C 1.99782,48.2754 3.33115,42.4421 4.5,36.5C 5.49897,48.4815 5.83231,60.4815 5.5,72.5 Z"/></g>
<g><path style="opacity:0.222" fill="#010101" d="M -0.5,93.5 C 0.821038,96.5982 1.48771,100.098 1.5,104C 1.33333,107.5 1.16667,111 1,114.5C 0.721579,113.584 0.221579,112.918 -0.5,112.5C -0.5,106.167 -0.5,99.8333 -0.5,93.5 Z"/></g>
<g><path style="opacity:0.996" fill="#5b5b5b" d="M 271.5,35.5 C 272.332,66.9974 272.832,98.664 273,130.5C 273.383,129.944 273.883,129.611 274.5,129.5C 274.5,147.5 274.5,165.5 274.5,183.5C 273.391,183.557 272.391,183.89 271.5,184.5C 271.5,134.833 271.5,85.1667 271.5,35.5 Z"/></g>
<g><path style="opacity:0.847" fill="#1f1f1f" d="M -0.5,149.5 C 0.5,149.5 1.5,149.5 2.5,149.5C 2.5,155.167 2.5,160.833 2.5,166.5C 1.5,166.5 0.5,166.5 -0.5,166.5C -0.5,160.833 -0.5,155.167 -0.5,149.5 Z"/></g>
<g><path style="opacity:1" fill="#fed88d" d="M 110.5,169.5 C 109.078,169.709 107.745,170.209 106.5,171C 102.886,174.103 99.886,177.603 97.5,181.5C 96.391,181.443 95.391,181.11 94.5,180.5C 95.7458,173.589 99.7458,169.255 106.5,167.5C 108.355,167.34 109.688,168.007 110.5,169.5 Z"/></g>
<g><path style="opacity:1" fill="#fcc355" d="M 110.5,169.5 C 112.679,169.84 114.512,170.84 116,172.5C 116.498,175.817 116.665,179.15 116.5,182.5C 115.343,185.026 115.343,187.693 116.5,190.5C 115.178,190.33 114.011,190.663 113,191.5C 111.328,196.178 109.161,200.511 106.5,204.5C 98.1777,198.863 95.1777,191.197 97.5,181.5C 99.886,177.603 102.886,174.103 106.5,171C 107.745,170.209 109.078,169.709 110.5,169.5 Z"/></g>
<g><path style="opacity:1" fill="#ffda96" d="M 159.5,187.5 C 159.167,187.5 158.833,187.5 158.5,187.5C 157.791,186.596 156.791,186.263 155.5,186.5C 163.13,180.404 171.464,175.238 180.5,171C 181.833,170.333 183.167,170.333 184.5,171C 185.65,179.755 185.816,188.588 185,197.5C 184.5,189.507 184.334,181.507 184.5,173.5C 181.984,173.755 179.65,174.589 177.5,176C 171.266,179.608 165.266,183.441 159.5,187.5 Z"/></g>
<g><path style="opacity:1" fill="#f8efe0" d="M 107.5,176.5 C 107.408,180.684 105.741,184.017 102.5,186.5C 101.379,182.071 103.046,178.737 107.5,176.5 Z"/></g>
<g><path style="opacity:1" fill="#866931" d="M 107.5,176.5 C 111.225,176.78 112.392,178.78 111,182.5C 110.282,185.885 108.282,187.885 105,188.5C 103.624,188.316 102.791,187.649 102.5,186.5C 105.741,184.017 107.408,180.684 107.5,176.5 Z"/></g>
<g><path style="opacity:1" fill="#a8b1b6" d="M 182.5,174.5 C 183.788,176.035 183.788,177.701 182.5,179.5C 179.265,180.733 176.265,182.399 173.5,184.5C 172.167,183.167 172.167,181.833 173.5,180.5C 176.738,178.725 179.738,176.725 182.5,174.5 Z"/></g>
<g><path style="opacity:1" fill="#e6b452" d="M 155.5,186.5 C 156.791,186.263 157.791,186.596 158.5,187.5C 159.135,196.234 158.468,204.567 156.5,212.5C 156.167,211.833 155.833,211.167 155.5,210.5C 155.5,202.5 155.5,194.5 155.5,186.5 Z"/></g>
<g><path style="opacity:1" fill="#e7b34d" d="M 94.5,180.5 C 95.391,181.11 96.391,181.443 97.5,181.5C 95.1777,191.197 98.1777,198.863 106.5,204.5C 109.161,200.511 111.328,196.178 113,191.5C 114.011,190.663 115.178,190.33 116.5,190.5C 126.262,194.881 135.595,200.048 144.5,206C 130.562,214.553 116.396,222.719 102,230.5C 95.4362,227.134 88.9362,223.634 82.5,220C 80.3645,219.124 79.0312,217.624 78.5,215.5C 80.6416,214.255 82.6416,212.755 84.5,211C 83.8699,209.69 82.8699,208.856 81.5,208.5C 81.5106,206.983 82.1772,205.816 83.5,205C 87.6262,203.034 91.6262,200.868 95.5,198.5C 96.7759,197.386 96.7759,196.386 95.5,195.5C 92.0841,190.565 91.7508,185.565 94.5,180.5 Z"/></g>
<g><path style="opacity:1" fill="#abb4b8" d="M 168.5,187.5 C 165.886,188.807 163.22,190.14 160.5,191.5C 159.571,190.311 159.238,188.978 159.5,187.5C 161.144,187.286 162.644,187.62 164,188.5C 165.479,185.184 167.979,183.184 171.5,182.5C 171.69,184.959 170.69,186.626 168.5,187.5 Z"/></g>
<g><path style="opacity:0.914" fill="#4b4b4b" d="M 274.5,183.5 C 274.5,184.167 274.5,184.833 274.5,185.5C 272.668,293.495 271.835,401.829 272,510.5C 271.802,512.382 271.302,514.048 270.5,515.5C 271.488,405.182 271.821,294.848 271.5,184.5C 272.391,183.89 273.391,183.557 274.5,183.5 Z"/></g>
<g><path style="opacity:1" fill="#fcedd2" d="M 166.5,211.5 C 166.719,212.675 166.386,213.675 165.5,214.5C 164.167,213.5 162.833,212.5 161.5,211.5C 159.93,213.379 158.264,213.712 156.5,212.5C 158.468,204.567 159.135,196.234 158.5,187.5C 158.833,187.5 159.167,187.5 159.5,187.5C 159.238,188.978 159.571,190.311 160.5,191.5C 163.22,190.14 165.886,188.807 168.5,187.5C 169.93,187.579 171.264,187.246 172.5,186.5C 173.662,191.467 173.829,196.467 173,201.5C 168.276,203.779 163.776,206.446 159.5,209.5C 162.026,208.909 164.36,209.576 166.5,211.5 Z"/></g>
<g><path style="opacity:1" fill="#8e8c7f" d="M 165.5,193.5 C 167.972,194.749 168.139,196.415 166,198.5C 164.212,196.977 164.045,195.31 165.5,193.5 Z"/></g>
<g><path style="opacity:1" fill="#676767" d="M 216.5,261.5 C 216.831,238.994 216.497,216.66 215.5,194.5C 213.763,192.12 211.43,190.453 208.5,189.5C 207.692,191.423 207.192,193.423 207,195.5C 206.833,194.333 206.667,193.167 206.5,192C 206.309,190.027 206.976,188.527 208.5,187.5C 211.596,189.131 214.43,191.131 217,193.5C 217.827,216.906 217.661,239.573 216.5,261.5 Z"/></g>
<g><path style="opacity:1" fill="#9f9f9e" d="M 58.5,223.5 C 58.5,231.833 58.5,240.167 58.5,248.5C 57.8333,249.5 57.1667,250.5 56.5,251.5C 56.3334,232.497 56.5001,213.497 57,194.5C 59.6871,190.328 63.3537,188.328 68,188.5C 68.2868,190.891 68.7868,193.224 69.5,195.5C 68.1667,196.833 66.8333,196.833 65.5,195.5C 66.7059,193.484 66.7059,191.484 65.5,189.5C 63.417,190.959 61.2503,192.292 59,193.5C 58.5002,203.494 58.3335,213.494 58.5,223.5 Z"/></g>
<g><path style="opacity:1" fill="#6b6b6b" d="M 5.5,72.5 C 5.16705,218.001 5.50038,363.334 6.5,508.5C 6.46651,513.099 7.13317,517.599 8.5,522C 8.16667,522.833 7.83333,523.667 7.5,524.5C 6.44427,521.274 4.94427,518.274 3,515.5C 2.50204,512.518 2.33537,509.518 2.5,506.5C 2.5,404.5 2.5,302.5 2.5,200.5C 1.5,200.5 0.5,200.5 -0.5,200.5C -0.5,189.167 -0.5,177.833 -0.5,166.5C 0.5,166.5 1.5,166.5 2.5,166.5C 2.5,160.833 2.5,155.167 2.5,149.5C 1.5,149.5 0.5,149.5 -0.5,149.5C -0.5,138.167 -0.5,126.833 -0.5,115.5C 0.5,115.5 1.5,115.5 2.5,115.5C 2.1672,98.82 2.50053,82.1533 3.5,65.5C 4.16805,67.9688 4.83472,70.3021 5.5,72.5 Z"/></g>
<g><path style="opacity:1" fill="#fee5b4" d="M 95.5,195.5 C 96.7759,196.386 96.7759,197.386 95.5,198.5C 91.6262,200.868 87.6262,203.034 83.5,205C 82.1772,205.816 81.5106,206.983 81.5,208.5C 78.8598,209.448 76.1931,210.448 73.5,211.5C 71.5,211.5 70.5,212.5 70.5,214.5C 69.609,213.89 68.609,213.557 67.5,213.5C 75.9416,207.437 84.9416,202.104 94.5,197.5C 95.2975,197.043 95.6309,196.376 95.5,195.5 Z"/></g>
<g><path style="opacity:1" fill="#536065" d="M 205.5,199.5 C 206.5,199.5 207.5,199.5 208.5,199.5C 208.5,200.5 208.5,201.5 208.5,202.5C 207.5,202.5 206.5,202.5 205.5,202.5C 205.5,201.5 205.5,200.5 205.5,199.5 Z"/></g>
<g><path style="opacity:1" fill="#6e797e" d="M 66.5,199.5 C 67.5,199.5 68.5,199.5 69.5,199.5C 69.5,200.5 69.5,201.5 69.5,202.5C 66.4331,202.879 65.4331,201.879 66.5,199.5 Z"/></g>
<g><path style="opacity:0.847" fill="#2b2b2b" d="M -0.5,200.5 C 0.5,200.5 1.5,200.5 2.5,200.5C 2.5,302.5 2.5,404.5 2.5,506.5C 1.66694,405.001 1.16694,303.334 1,201.5C 0.617425,202.056 0.117425,202.389 -0.5,202.5C -0.5,201.833 -0.5,201.167 -0.5,200.5 Z"/></g>
<g><path style="opacity:1" fill="#5f6866" d="M 193.5,209.5 C 190.991,210.888 189.324,210.054 188.5,207C 186.527,206.505 184.527,206.338 182.5,206.5C 182.167,206.5 181.833,206.5 181.5,206.5C 184.823,201.591 188.656,201.258 193,205.5C 193.49,206.793 193.657,208.127 193.5,209.5 Z"/></g>
<g><path style="opacity:1" fill="#eae9e8" d="M 181.5,206.5 C 181.833,206.5 182.167,206.5 182.5,206.5C 182.336,209.187 182.503,211.854 183,214.5C 184.417,215.078 185.25,216.078 185.5,217.5C 180.926,217.065 177.926,219.065 176.5,223.5C 174.107,221.637 171.44,220.304 168.5,219.5C 166.829,219.668 165.496,220.335 164.5,221.5C 163.508,221.328 162.842,221.662 162.5,222.5C 160.205,223.136 158.539,224.469 157.5,226.5C 157.5,230.167 157.5,233.833 157.5,237.5C 156.285,233.077 153.285,231.411 148.5,232.5C 148.568,245.723 148.568,258.723 148.5,271.5C 148.672,270.508 148.338,269.842 147.5,269.5C 147.5,249.5 147.5,229.5 147.5,209.5C 148.11,208.609 148.443,207.609 148.5,206.5C 149.583,206.461 150.583,206.127 151.5,205.5C 152.578,207.461 153.911,209.128 155.5,210.5C 155.833,211.167 156.167,211.833 156.5,212.5C 158.264,213.712 159.93,213.379 161.5,211.5C 162.833,212.5 164.167,213.5 165.5,214.5C 166.386,213.675 166.719,212.675 166.5,211.5C 168.093,208.409 170.593,206.076 174,204.5C 174.852,207.377 176.019,210.043 177.5,212.5C 179.67,211.007 181.004,209.007 181.5,206.5 Z"/></g>
<g><path style="opacity:1" fill="#eeeae4" d="M 81.5,208.5 C 82.8699,208.856 83.8699,209.69 84.5,211C 82.6416,212.755 80.6416,214.255 78.5,215.5C 75.796,215.33 74.1293,213.997 73.5,211.5C 76.1931,210.448 78.8598,209.448 81.5,208.5 Z"/></g>
<g><path style="opacity:1" fill="#f3a3a3" d="M 182.5,206.5 C 184.527,206.338 186.527,206.505 188.5,207C 189.324,210.054 190.991,210.888 193.5,209.5C 192.833,212.167 192.167,214.833 191.5,217.5C 189.389,218.742 187.389,218.742 185.5,217.5C 185.25,216.078 184.417,215.078 183,214.5C 182.503,211.854 182.336,209.187 182.5,206.5 Z"/></g>
<g><path style="opacity:1" fill="#fcc965" d="M 67.5,213.5 C 68.609,213.557 69.609,213.89 70.5,214.5C 81.0003,220.582 91.3337,226.916 101.5,233.5C 102.488,253.758 102.821,274.091 102.5,294.5C 102.843,296.225 103.843,296.725 105.5,296C 113.516,290.795 121.849,286.295 130.5,282.5C 130.5,283.5 130.5,284.5 130.5,285.5C 121.527,290.655 112.527,295.822 103.5,301C 102.072,301.579 100.738,301.412 99.5,300.5C 97.2921,293.888 96.1255,286.888 96,279.5C 92.9113,278.04 90.0779,276.207 87.5,274C 85.4546,273.51 83.4546,273.677 81.5,274.5C 81.6841,271.679 80.3507,270.012 77.5,269.5C 76.2857,271.859 76.2857,274.192 77.5,276.5C 76.6935,277.728 75.6935,278.728 74.5,279.5C 73.5269,281.948 73.1936,284.615 73.5,287.5C 72.8333,287.167 72.1667,286.833 71.5,286.5C 69.4093,283.779 68.076,280.613 67.5,277C 68.3223,274.566 68.6556,272.066 68.5,269.5C 68.5,268.5 68.5,267.5 68.5,266.5C 68.8299,249.325 68.4966,232.325 67.5,215.5C 67.5,214.833 67.5,214.167 67.5,213.5 Z"/></g>
<g><path style="opacity:1" fill="#fdd380" d="M 147.5,209.5 C 147.5,229.5 147.5,249.5 147.5,269.5C 145.243,269.962 143.243,270.962 141.5,272.5C 140.833,267.833 140.167,263.167 139.5,258.5C 136.339,259.913 133.339,261.58 130.5,263.5C 129.671,268.802 129.171,274.136 129,279.5C 120.383,284.892 111.549,289.892 102.5,294.5C 102.821,274.091 102.488,253.758 101.5,233.5C 115.014,227.407 128.014,220.24 140.5,212C 142.854,211.153 145.188,210.32 147.5,209.5 Z"/></g>
<g><path style="opacity:1" fill="#efd092" d="M 140.5,230.5 C 140.44,231.043 140.107,231.376 139.5,231.5C 138.672,227.204 138.172,222.871 138,218.5C 137.586,218.957 137.086,219.291 136.5,219.5C 135.672,224.132 135.172,228.798 135,233.5C 134.501,229.514 134.334,225.514 134.5,221.5C 133.178,221.33 132.011,221.663 131,222.5C 130.826,227.351 130.326,232.018 129.5,236.5C 129.195,231.238 129.529,226.072 130.5,221C 133.5,219.5 136.5,218 139.5,216.5C 140.167,219.167 140.833,221.833 141.5,224.5C 142.902,224.865 143.902,225.699 144.5,227C 143.314,228.412 141.981,229.579 140.5,230.5 Z"/></g>
<g><path style="opacity:1" fill="#45565f" d="M 185.5,217.5 C 187.389,218.742 189.389,218.742 191.5,217.5C 193.5,217.833 195.5,218.167 197.5,218.5C 201.42,223.349 202.754,228.849 201.5,235C 199.655,236.128 197.655,236.628 195.5,236.5C 195.585,235.005 194.919,234.005 193.5,233.5C 190.428,235.414 187.095,236.748 183.5,237.5C 184.337,239.505 185.837,240.505 188,240.5C 190.27,239.14 192.77,238.473 195.5,238.5C 195.5,239.5 195.5,240.5 195.5,241.5C 189.604,243.147 183.938,242.814 178.5,240.5C 178.631,239.761 178.464,239.094 178,238.5C 174.859,240.32 171.692,241.986 168.5,243.5C 168.824,239.445 168.491,235.445 167.5,231.5C 164.381,229.274 161.048,227.607 157.5,226.5C 158.539,224.469 160.205,223.136 162.5,222.5C 166.815,224.66 170.815,227.327 174.5,230.5C 175.731,229.349 175.731,228.183 174.5,227C 170.979,225.408 167.646,223.575 164.5,221.5C 165.496,220.335 166.829,219.668 168.5,219.5C 171.44,220.304 174.107,221.637 176.5,223.5C 177.926,219.065 180.926,217.065 185.5,217.5 Z"/></g>
<g><path style="opacity:1" fill="#eaeaea" d="M 67.5,223.5 C 67.8287,236.344 67.4954,249.011 66.5,261.5C 65.1876,258.201 63.8542,254.868 62.5,251.5C 61.3578,250.174 60.0245,249.174 58.5,248.5C 58.5,240.167 58.5,231.833 58.5,223.5C 59.7348,223.279 60.7348,222.612 61.5,221.5C 63.1161,222.115 64.4495,223.115 65.5,224.5C 66.1835,224.137 66.8501,223.804 67.5,223.5 Z"/></g>
<g><path style="opacity:1" fill="#e9e9e9" d="M 215.5,194.5 C 216.497,216.66 216.831,238.994 216.5,261.5C 213.361,257.53 209.695,254.03 205.5,251C 203.182,249.007 200.516,247.841 197.5,247.5C 197.5,250.167 197.5,252.833 197.5,255.5C 197.5,256.167 197.167,256.5 196.5,256.5C 196.249,251.493 195.916,246.493 195.5,241.5C 195.5,240.5 195.5,239.5 195.5,238.5C 195.5,237.833 195.5,237.167 195.5,236.5C 197.655,236.628 199.655,236.128 201.5,235C 202.754,228.849 201.42,223.349 197.5,218.5C 199.5,218.5 201.5,218.5 203.5,218.5C 202.419,225.144 203.753,226.311 207.5,222C 208.448,221.517 209.448,221.351 210.5,221.5C 210.192,223.924 210.526,226.257 211.5,228.5C 212.72,227.289 213.887,227.289 215,228.5C 215.5,217.172 215.667,205.838 215.5,194.5 Z"/></g>
<g><path style="opacity:1" fill="#f4e3c3" d="M 67.5,215.5 C 68.4966,232.325 68.8299,249.325 68.5,266.5C 67.6236,266.631 66.9569,266.298 66.5,265.5C 67.8069,264.135 67.8069,262.802 66.5,261.5C 67.4954,249.011 67.8287,236.344 67.5,223.5C 67.5,220.833 67.5,218.167 67.5,215.5 Z"/></g>
<g><path style="opacity:1" fill="#e1b456" d="M 162.5,222.5 C 162.842,221.662 163.508,221.328 164.5,221.5C 167.646,223.575 170.979,225.408 174.5,227C 175.731,228.183 175.731,229.349 174.5,230.5C 170.815,227.327 166.815,224.66 162.5,222.5 Z"/></g>
<g><path style="opacity:1" fill="#edcc8b" d="M 91.5,246.5 C 89.8688,241.9 88.8688,236.9 88.5,231.5C 87.8333,231.167 87.1667,230.833 86.5,230.5C 85.6725,234.796 85.1725,239.129 85,243.5C 84.5007,238.511 84.3341,233.511 84.5,228.5C 83.5,228.5 82.5,228.5 81.5,228.5C 81.203,232.767 81.5363,236.934 82.5,241C 79.7816,240.476 77.1149,239.643 74.5,238.5C 74.6107,237.883 74.944,237.383 75.5,237C 71.8575,235.422 71.6908,233.589 75,231.5C 75.6172,232.449 75.4506,233.282 74.5,234C 76.0905,235.046 77.5905,236.213 79,237.5C 79.1735,233.459 79.6735,229.459 80.5,225.5C 83.6612,226.913 86.6612,228.58 89.5,230.5C 90.4922,234.783 90.8256,239.116 90.5,243.5C 92.1092,243.094 93.4425,243.094 94.5,243.5C 93.2299,244.288 92.2299,245.288 91.5,246.5 Z"/></g>
<g><path style="opacity:1" fill="#fcdc9c" d="M 116.5,182.5 C 116.104,185.044 116.771,187.211 118.5,189C 128.41,195.096 138.41,200.929 148.5,206.5C 148.443,207.609 148.11,208.609 147.5,209.5C 145.188,210.32 142.854,211.153 140.5,212C 128.014,220.24 115.014,227.407 101.5,233.5C 91.3337,226.916 81.0003,220.582 70.5,214.5C 70.5,212.5 71.5,211.5 73.5,211.5C 74.1293,213.997 75.796,215.33 78.5,215.5C 79.0312,217.624 80.3645,219.124 82.5,220C 88.9362,223.634 95.4362,227.134 102,230.5C 116.396,222.719 130.562,214.553 144.5,206C 135.595,200.048 126.262,194.881 116.5,190.5C 115.343,187.693 115.343,185.026 116.5,182.5 Z"/></g>
<g><path style="opacity:1" fill="#2b373d" d="M 157.5,226.5 C 161.048,227.607 164.381,229.274 167.5,231.5C 168.491,235.445 168.824,239.445 168.5,243.5C 164.665,241.75 160.999,239.75 157.5,237.5C 157.5,233.833 157.5,230.167 157.5,226.5 Z"/></g>
<g><path style="opacity:1" fill="#f2d497" d="M 119.5,242.5 C 119.44,243.043 119.107,243.376 118.5,243.5C 117.672,239.204 117.172,234.871 117,230.5C 114.828,231.585 112.828,232.919 111,234.5C 110.826,239.351 110.326,244.018 109.5,248.5C 108.85,243.266 109.183,237.933 110.5,232.5C 113.661,231.087 116.661,229.42 119.5,227.5C 119.953,231.77 121.286,235.604 123.5,239C 122.314,240.412 120.981,241.579 119.5,242.5 Z"/></g>
<g><path style="opacity:1" fill="#f1e9d8" d="M 140.5,230.5 C 144.337,230.912 145.004,232.246 142.5,234.5C 138.983,236.424 135.316,238.091 131.5,239.5C 130.094,239.027 129.427,238.027 129.5,236.5C 130.326,232.018 130.826,227.351 131,222.5C 132.011,221.663 133.178,221.33 134.5,221.5C 134.334,225.514 134.501,229.514 135,233.5C 135.172,228.798 135.672,224.132 136.5,219.5C 137.086,219.291 137.586,218.957 138,218.5C 138.172,222.871 138.672,227.204 139.5,231.5C 140.107,231.376 140.44,231.043 140.5,230.5 Z"/></g>
<g><path style="opacity:1" fill="#a0a8ac" d="M 159.5,233.5 C 162.752,234.046 163.752,235.712 162.5,238.5C 160.227,237.625 159.227,235.958 159.5,233.5 Z"/></g>
<g><path style="opacity:1" fill="#eca09f" d="M 195.5,236.5 C 195.5,237.167 195.5,237.833 195.5,238.5C 192.77,238.473 190.27,239.14 188,240.5C 185.837,240.505 184.337,239.505 183.5,237.5C 187.095,236.748 190.428,235.414 193.5,233.5C 194.919,234.005 195.585,235.005 195.5,236.5 Z"/></g>
<g><path style="opacity:1" fill="#f6d79b" d="M 142.5,234.5 C 141.914,236.243 141.581,238.076 141.5,240C 143.227,243.934 144.227,248.101 144.5,252.5C 142.661,251.248 140.828,251.248 139,252.5C 138.828,248.129 138.328,243.796 137.5,239.5C 136.914,239.709 136.414,240.043 136,240.5C 135.667,245.167 135.333,249.833 135,254.5C 134.828,250.129 134.328,245.796 133.5,241.5C 132.914,241.709 132.414,242.043 132,242.5C 131.667,245.833 131.333,249.167 131,252.5C 130.617,251.944 130.117,251.611 129.5,251.5C 129.151,247.258 129.817,243.258 131.5,239.5C 135.316,238.091 138.983,236.424 142.5,234.5 Z"/></g>
<g><path style="opacity:1" fill="#f0eade" d="M 91.5,246.5 C 92.4293,247.315 93.4293,248.148 94.5,249C 93.9558,249.717 93.2891,250.217 92.5,250.5C 88.0578,248.78 83.7244,246.78 79.5,244.5C 77.2185,243.392 75.0519,242.058 73,240.5C 72.4719,239.184 72.9719,238.517 74.5,238.5C 77.1149,239.643 79.7816,240.476 82.5,241C 81.5363,236.934 81.203,232.767 81.5,228.5C 82.5,228.5 83.5,228.5 84.5,228.5C 84.3341,233.511 84.5007,238.511 85,243.5C 85.1725,239.129 85.6725,234.796 86.5,230.5C 87.1667,230.833 87.8333,231.167 88.5,231.5C 88.8688,236.9 89.8688,241.9 91.5,246.5 Z"/></g>
<g><path style="opacity:1" fill="#b68e45" d="M 178.5,240.5 C 183.938,242.814 189.604,243.147 195.5,241.5C 195.916,246.493 196.249,251.493 196.5,256.5C 194.651,257.593 192.984,258.926 191.5,260.5C 191.5,262.833 191.5,265.167 191.5,267.5C 189.475,263.11 187.975,258.443 187,253.5C 185.748,261.105 184.915,268.771 184.5,276.5C 183.833,276.833 183.167,277.167 182.5,277.5C 181.209,277.737 180.209,277.404 179.5,276.5C 178.757,264.515 178.424,252.515 178.5,240.5 Z"/></g>
<g><path style="opacity:1" fill="#eccb89" d="M 79.5,244.5 C 83.7244,246.78 88.0578,248.78 92.5,250.5C 90.3212,254.896 89.9878,259.562 91.5,264.5C 92.451,263.674 93.451,263.508 94.5,264C 92.9371,264.759 91.9371,265.926 91.5,267.5C 90.8826,267.389 90.3826,267.056 90,266.5C 89.829,261.467 89.329,256.467 88.5,251.5C 87.8333,251.167 87.1667,250.833 86.5,250.5C 85.6725,254.796 85.1725,259.129 85,263.5C 84.6667,258.833 84.3333,254.167 84,249.5C 83.586,249.043 83.086,248.709 82.5,248.5C 81.6725,252.796 81.1725,257.129 81,261.5C 79.2699,260.26 77.4366,259.26 75.5,258.5C 73.9623,258.453 72.9623,259.12 72.5,260.5C 71.2031,258.307 71.2031,255.973 72.5,253.5C 74.8375,251.989 75.5042,252.323 74.5,254.5C 75.914,255.624 77.414,256.624 79,257.5C 79.499,253.179 79.6657,248.846 79.5,244.5 Z"/></g>
<g><path style="opacity:1" fill="#f0e7d6" d="M 119.5,242.5 C 123.563,242.616 124.23,243.949 121.5,246.5C 117.983,248.424 114.316,250.091 110.5,251.5C 109.89,250.609 109.557,249.609 109.5,248.5C 110.326,244.018 110.826,239.351 111,234.5C 112.828,232.919 114.828,231.585 117,230.5C 117.172,234.871 117.672,239.204 118.5,243.5C 119.107,243.376 119.44,243.043 119.5,242.5 Z"/></g>
<g><path style="opacity:1" fill="#ac8741" d="M 58.5,248.5 C 60.0245,249.174 61.3578,250.174 62.5,251.5C 63.8542,254.868 65.1876,258.201 66.5,261.5C 67.8069,262.802 67.8069,264.135 66.5,265.5C 66.9569,266.298 67.6236,266.631 68.5,266.5C 68.5,267.5 68.5,268.5 68.5,269.5C 66.9519,269.821 66.2852,270.821 66.5,272.5C 64.139,272.674 61.8056,273.007 59.5,273.5C 60.2785,268.618 60.1118,263.618 59,258.5C 58.501,262.821 58.3343,267.154 58.5,271.5C 54.6247,273.097 51.6247,272.097 49.5,268.5C 51.4483,262.902 53.7816,257.236 56.5,251.5C 57.1667,250.5 57.8333,249.5 58.5,248.5 Z"/></g>
<g><path style="opacity:1" fill="#f3d59a" d="M 121.5,246.5 C 119.663,251.179 120.33,255.345 123.5,259C 122.728,260.221 121.728,261.221 120.5,262C 121.416,262.278 122.082,262.778 122.5,263.5C 121.07,263.421 119.736,263.754 118.5,264.5C 117.833,260.167 117.167,255.833 116.5,251.5C 114.821,252.782 112.987,253.782 111,254.5C 110.821,258.025 110.321,261.359 109.5,264.5C 109.294,260.102 109.627,255.768 110.5,251.5C 114.316,250.091 117.983,248.424 121.5,246.5 Z"/></g>
<g><path style="opacity:1" fill="#f0ebe1" d="M 144.5,252.5 C 140.854,255.327 136.854,257.661 132.5,259.5C 131.263,259.444 130.263,258.944 129.5,258C 130.605,255.88 130.605,253.713 129.5,251.5C 130.117,251.611 130.617,251.944 131,252.5C 131.333,249.167 131.667,245.833 132,242.5C 132.414,242.043 132.914,241.709 133.5,241.5C 134.328,245.796 134.828,250.129 135,254.5C 135.333,249.833 135.667,245.167 136,240.5C 136.414,240.043 136.914,239.709 137.5,239.5C 138.328,243.796 138.828,248.129 139,252.5C 140.828,251.248 142.661,251.248 144.5,252.5 Z"/></g>
<g><path style="opacity:1" fill="#f2ede5" d="M 191.5,267.5 C 191.5,268.167 191.5,268.833 191.5,269.5C 191.5,270.167 191.5,270.833 191.5,271.5C 190.312,272.364 189.145,273.364 188,274.5C 187.586,274.043 187.086,273.709 186.5,273.5C 185.824,274.602 185.158,275.602 184.5,276.5C 184.915,268.771 185.748,261.105 187,253.5C 187.975,258.443 189.475,263.11 191.5,267.5 Z"/></g>
<g><path style="opacity:1" fill="#f3ece0" d="M 91.5,267.5 C 95.2654,268.475 95.2654,269.808 91.5,271.5C 85.2674,267.554 78.9341,263.887 72.5,260.5C 72.9623,259.12 73.9623,258.453 75.5,258.5C 77.4366,259.26 79.2699,260.26 81,261.5C 81.1725,257.129 81.6725,252.796 82.5,248.5C 83.086,248.709 83.586,249.043 84,249.5C 84.3333,254.167 84.6667,258.833 85,263.5C 85.1725,259.129 85.6725,254.796 86.5,250.5C 87.1667,250.833 87.8333,251.167 88.5,251.5C 89.329,256.467 89.829,261.467 90,266.5C 90.3826,267.056 90.8826,267.389 91.5,267.5 Z"/></g>
<g><path style="opacity:1" fill="#3f4f57" d="M 197.5,255.5 C 202.899,257.113 208.066,259.446 213,262.5C 213.808,266.027 213.641,269.36 212.5,272.5C 212.62,269.795 211.62,269.128 209.5,270.5C 208.12,271.976 206.453,272.976 204.5,273.5C 203.571,274.689 203.238,276.022 203.5,277.5C 203.158,278.338 202.492,278.672 201.5,278.5C 201.5,278.167 201.5,277.833 201.5,277.5C 202.338,277.158 202.672,276.492 202.5,275.5C 202.665,272.482 202.498,269.482 202,266.5C 198.689,264.097 195.189,262.097 191.5,260.5C 192.984,258.926 194.651,257.593 196.5,256.5C 197.167,256.5 197.5,256.167 197.5,255.5 Z"/></g>
<g><path style="opacity:1" fill="#283339" d="M 191.5,260.5 C 195.189,262.097 198.689,264.097 202,266.5C 202.498,269.482 202.665,272.482 202.5,275.5C 198.673,273.754 195.007,271.754 191.5,269.5C 191.5,268.833 191.5,268.167 191.5,267.5C 191.5,265.167 191.5,262.833 191.5,260.5 Z"/></g>
<g><path style="opacity:1" fill="#8d979c" d="M 159.5,259.5 C 163.161,259.35 164.161,260.85 162.5,264C 163.672,264.419 164.672,265.085 165.5,266C 162.996,268.933 160.663,268.933 158.5,266C 159.448,265.517 160.448,265.351 161.5,265.5C 161.296,263.315 160.63,261.315 159.5,259.5 Z"/></g>
<g><path style="opacity:1" fill="#eee6d4" d="M 122.5,263.5 C 123.043,263.56 123.376,263.893 123.5,264.5C 119.79,267.354 115.79,269.687 111.5,271.5C 110.263,271.444 109.263,270.944 108.5,270C 109.406,268.301 109.739,266.467 109.5,264.5C 110.321,261.359 110.821,258.025 111,254.5C 112.987,253.782 114.821,252.782 116.5,251.5C 117.167,255.833 117.833,260.167 118.5,264.5C 119.736,263.754 121.07,263.421 122.5,263.5 Z"/></g>
<g><path style="opacity:1" fill="#47585f" d="M 136.5,272.5 C 135.035,273.737 133.368,274.737 131.5,275.5C 131.5,273.5 131.5,271.5 131.5,269.5C 133.011,268.498 134.678,267.831 136.5,267.5C 136.5,269.167 136.5,270.833 136.5,272.5 Z"/></g>
<g><path style="opacity:1" fill="#e3ddce" d="M 81.5,274.5 C 81.5,274.833 81.5,275.167 81.5,275.5C 80.5084,275.328 79.8417,275.662 79.5,276.5C 78.8333,276.5 78.1667,276.5 77.5,276.5C 76.2857,274.192 76.2857,271.859 77.5,269.5C 80.3507,270.012 81.6841,271.679 81.5,274.5 Z"/></g>
<g><path style="opacity:1" fill="#ae8b44" d="M 191.5,269.5 C 195.007,271.754 198.673,273.754 202.5,275.5C 202.672,276.492 202.338,277.158 201.5,277.5C 198.992,275.076 195.992,273.41 192.5,272.5C 192.5,271.833 192.167,271.5 191.5,271.5C 191.5,270.833 191.5,270.167 191.5,269.5 Z"/></g>
<g><path style="opacity:1" fill="#837a5d" d="M 212.5,272.5 C 211.167,273.5 209.833,274.5 208.5,275.5C 206.95,276.441 205.284,277.107 203.5,277.5C 203.238,276.022 203.571,274.689 204.5,273.5C 206.453,272.976 208.12,271.976 209.5,270.5C 211.62,269.128 212.62,269.795 212.5,272.5 Z"/></g>
<g><path style="opacity:1" fill="#646762" d="M 59.5,273.5 C 59.5,277.833 59.5,282.167 59.5,286.5C 58.0937,286.973 57.427,287.973 57.5,289.5C 56.8761,289.083 56.5427,288.416 56.5,287.5C 58.2855,282.332 58.9522,276.998 58.5,271.5C 58.3343,267.154 58.501,262.821 59,258.5C 60.1118,263.618 60.2785,268.618 59.5,273.5 Z"/></g>
<g><path style="opacity:1" fill="#eee8da" d="M 123.5,270.5 C 124.629,272.628 124.796,274.961 124,277.5C 122.915,278.293 121.748,278.96 120.5,279.5C 118.839,275.46 119.839,272.46 123.5,270.5 Z"/></g>
<g><path style="opacity:1" fill="#6c6346" d="M 192.5,272.5 C 195.992,273.41 198.992,275.076 201.5,277.5C 201.5,277.833 201.5,278.167 201.5,278.5C 200.609,277.89 199.609,277.557 198.5,277.5C 196.916,276.618 195.249,275.785 193.5,275C 192.748,274.329 192.414,273.496 192.5,272.5 Z"/></g>
<g><path style="opacity:1" fill="#eceae7" d="M 148.5,271.5 C 148.712,273.384 149.712,274.717 151.5,275.5C 149.355,277.144 147.355,278.977 145.5,281C 146.509,282.168 147.509,283.335 148.5,284.5C 145.828,287.507 142.495,289.507 138.5,290.5C 136.226,290.03 134.226,289.03 132.5,287.5C 122.054,293.721 111.387,299.388 100.5,304.5C 100.715,306.179 100.048,307.179 98.5,307.5C 99.3686,305.283 99.702,302.95 99.5,300.5C 100.738,301.412 102.072,301.579 103.5,301C 112.527,295.822 121.527,290.655 130.5,285.5C 131.479,282.375 131.813,279.042 131.5,275.5C 133.368,274.737 135.035,273.737 136.5,272.5C 136.833,272.5 137.167,272.5 137.5,272.5C 138.167,272.833 138.833,273.167 139.5,273.5C 140.167,273.833 140.833,274.167 141.5,274.5C 141.971,278.673 143.638,279.34 146.5,276.5C 147.429,275.311 147.762,273.978 147.5,272.5C 147.5,271.833 147.833,271.5 148.5,271.5 Z"/></g>
<g><path style="opacity:1" fill="#f8c35b" d="M 147.5,272.5 C 147.762,273.978 147.429,275.311 146.5,276.5C 143.638,279.34 141.971,278.673 141.5,274.5C 143.5,273.833 145.5,273.167 147.5,272.5 Z"/></g>
<g><path style="opacity:1" fill="#f4c770" d="M 179.5,276.5 C 180.209,277.404 181.209,277.737 182.5,277.5C 180.394,279.079 178.06,280.412 175.5,281.5C 174.153,280.829 172.986,280.829 172,281.5C 169.885,285.571 168.719,289.905 168.5,294.5C 166.876,294.64 165.71,293.973 165,292.5C 164.708,287.991 165.542,283.658 167.5,279.5C 166.675,278.614 165.675,278.281 164.5,278.5C 166.969,277.683 169.635,277.183 172.5,277C 173.022,276.439 173.355,275.772 173.5,275C 172.214,273.351 170.547,272.185 168.5,271.5C 166.974,273.658 165.474,273.325 164,270.5C 163.312,269.668 163.479,269.002 164.5,268.5C 167.228,269.145 169.895,269.979 172.5,271C 174.957,272.852 177.291,274.686 179.5,276.5 Z"/></g>
<g><path style="opacity:1" fill="#e2af4d" d="M 210.5,277.5 C 215.282,279.042 216.615,281.709 214.5,285.5C 212.973,285.427 211.973,286.094 211.5,287.5C 210.508,287.328 209.842,287.662 209.5,288.5C 205.345,289.742 201.678,291.742 198.5,294.5C 198.167,294.5 197.833,294.5 197.5,294.5C 193.878,296.289 190.378,298.289 187,300.5C 182.349,299.947 180.849,297.614 182.5,293.5C 182.296,290.482 181.963,287.482 181.5,284.5C 181.56,283.957 181.893,283.624 182.5,283.5C 184.332,284.248 185.999,285.248 187.5,286.5C 189.955,284.703 192.622,283.37 195.5,282.5C 196.721,283.028 197.887,283.695 199,284.5C 201.851,280.494 205.685,278.16 210.5,277.5 Z"/></g>
<g><path style="opacity:1" fill="#e2b557" d="M 81.5,275.5 C 84.3283,277.47 87.3283,279.303 90.5,281C 91.5171,282.049 91.6838,283.216 91,284.5C 87.1876,281.688 83.3543,279.021 79.5,276.5C 79.8417,275.662 80.5084,275.328 81.5,275.5 Z"/></g>
<g><path style="opacity:1" fill="#eecc88" d="M 208.5,275.5 C 209.5,275.833 210.167,276.5 210.5,277.5C 205.685,278.16 201.851,280.494 199,284.5C 197.887,283.695 196.721,283.028 195.5,282.5C 197.69,281.626 198.69,279.959 198.5,277.5C 199.609,277.557 200.609,277.89 201.5,278.5C 202.492,278.672 203.158,278.338 203.5,277.5C 205.284,277.107 206.95,276.441 208.5,275.5 Z"/></g>
<g><path style="opacity:1" fill="#e0ded4" d="M 111.5,277.5 C 112.693,277.97 113.36,278.97 113.5,280.5C 113.711,283.124 112.544,284.79 110,285.5C 109.133,282.479 109.633,279.812 111.5,277.5 Z"/></g>
<g><path style="opacity:1" fill="#415157" d="M 99.5,300.5 C 99.702,302.95 99.3686,305.283 98.5,307.5C 94.0778,309.406 89.7444,311.572 85.5,314C 84.2506,314.74 83.2506,314.573 82.5,313.5C 83.647,309.354 83.8136,305.02 83,300.5C 77.3333,297.167 71.6667,293.833 66,290.5C 65.5008,295.155 65.3342,299.821 65.5,304.5C 64.3503,299.684 64.1837,294.684 65,289.5C 66.9935,288.086 69.1602,287.086 71.5,286.5C 72.1667,286.833 72.8333,287.167 73.5,287.5C 73.2606,289.467 73.5939,291.301 74.5,293C 77.54,295.22 80.8733,296.72 84.5,297.5C 84.8242,293.445 84.4909,289.445 83.5,285.5C 80.2624,283.725 77.2624,281.725 74.5,279.5C 75.6935,278.728 76.6935,277.728 77.5,276.5C 78.1667,276.5 78.8333,276.5 79.5,276.5C 83.3543,279.021 87.1876,281.688 91,284.5C 91.6838,283.216 91.5171,282.049 90.5,281C 87.3283,279.303 84.3283,277.47 81.5,275.5C 81.5,275.167 81.5,274.833 81.5,274.5C 83.4546,273.677 85.4546,273.51 87.5,274C 90.0779,276.207 92.9113,278.04 96,279.5C 96.1255,286.888 97.2921,293.888 99.5,300.5 Z"/></g>
<g><path style="opacity:1" fill="#44545b" d="M 191.5,271.5 C 192.167,271.5 192.5,271.833 192.5,272.5C 192.414,273.496 192.748,274.329 193.5,275C 195.249,275.785 196.916,276.618 198.5,277.5C 198.69,279.959 197.69,281.626 195.5,282.5C 192.622,283.37 189.955,284.703 187.5,286.5C 185.999,285.248 184.332,284.248 182.5,283.5C 181.893,283.624 181.56,283.957 181.5,284.5C 179.958,285.301 178.292,285.634 176.5,285.5C 176.567,284.041 176.234,282.708 175.5,281.5C 178.06,280.412 180.394,279.079 182.5,277.5C 183.167,277.167 183.833,276.833 184.5,276.5C 185.158,275.602 185.824,274.602 186.5,273.5C 187.086,273.709 187.586,274.043 188,274.5C 189.145,273.364 190.312,272.364 191.5,271.5 Z"/></g>
<g><path style="opacity:1" fill="#29343a" d="M 74.5,279.5 C 77.2624,281.725 80.2624,283.725 83.5,285.5C 84.4909,289.445 84.8242,293.445 84.5,297.5C 80.8733,296.72 77.54,295.22 74.5,293C 73.5939,291.301 73.2606,289.467 73.5,287.5C 73.1936,284.615 73.5269,281.948 74.5,279.5 Z"/></g>
<g><path style="opacity:1" fill="#f3f0ea" d="M 181.5,284.5 C 181.963,287.482 182.296,290.482 182.5,293.5C 179.807,294.847 177.14,296.18 174.5,297.5C 174.079,293.258 174.746,289.258 176.5,285.5C 178.292,285.634 179.958,285.301 181.5,284.5 Z"/></g>
<g><path style="opacity:1" fill="#fad89c" d="M 59.5,286.5 C 61.0481,286.821 61.7148,287.821 61.5,289.5C 60.1667,289.5 58.8333,289.5 57.5,289.5C 57.427,287.973 58.0937,286.973 59.5,286.5 Z"/></g>
<g><path style="opacity:1" fill="#8e969b" d="M 75.5,288.5 C 79.2349,288.546 80.5683,290.213 79.5,293.5C 77.0693,292.64 75.736,290.973 75.5,288.5 Z"/></g>
<g><path style="opacity:1" fill="#fbda98" d="M 147.5,269.5 C 148.338,269.842 148.672,270.508 148.5,271.5C 147.833,271.5 147.5,271.833 147.5,272.5C 145.5,273.167 143.5,273.833 141.5,274.5C 140.833,274.167 140.167,273.833 139.5,273.5C 139.826,269.116 139.492,264.783 138.5,260.5C 137.893,260.624 137.56,260.957 137.5,261.5C 133.29,262.376 131.29,265.043 131.5,269.5C 131.5,271.5 131.5,273.5 131.5,275.5C 131.813,279.042 131.479,282.375 130.5,285.5C 130.5,284.5 130.5,283.5 130.5,282.5C 121.849,286.295 113.516,290.795 105.5,296C 103.843,296.725 102.843,296.225 102.5,294.5C 111.549,289.892 120.383,284.892 129,279.5C 129.171,274.136 129.671,268.802 130.5,263.5C 133.339,261.58 136.339,259.913 139.5,258.5C 140.167,263.167 140.833,267.833 141.5,272.5C 143.243,270.962 145.243,269.962 147.5,269.5 Z"/></g>
<g><path style="opacity:1" fill="#877e5d" d="M 137.5,261.5 C 137.5,265.167 137.5,268.833 137.5,272.5C 137.167,272.5 136.833,272.5 136.5,272.5C 136.5,270.833 136.5,269.167 136.5,267.5C 134.678,267.831 133.011,268.498 131.5,269.5C 131.29,265.043 133.29,262.376 137.5,261.5 Z"/></g>
<g><path style="opacity:1" fill="#f7c157" d="M 139.5,273.5 C 138.833,273.167 138.167,272.833 137.5,272.5C 137.5,268.833 137.5,265.167 137.5,261.5C 137.56,260.957 137.893,260.624 138.5,260.5C 139.492,264.783 139.826,269.116 139.5,273.5 Z"/></g>
<g><path style="opacity:1" fill="#dedddc" d="M 214.5,285.5 C 212.58,286.821 212.413,288.154 214,289.5C 214.457,294.08 212.624,297.58 208.5,300C 194.517,309.826 179.517,317.826 163.5,324C 160.167,324.667 156.833,324.667 153.5,324C 151.82,323.653 150.82,322.653 150.5,321C 151.016,318.331 151.683,315.831 152.5,313.5C 152.714,320.865 156.38,323.365 163.5,321C 166.934,318.297 168.934,314.797 169.5,310.5C 171.216,310.629 172.883,310.962 174.5,311.5C 183.407,310.945 190.407,306.945 195.5,299.5C 196.401,298.71 197.068,297.71 197.5,296.5C 205.156,298.554 209.823,295.554 211.5,287.5C 211.973,286.094 212.973,285.427 214.5,285.5 Z"/></g>
<g><path style="opacity:1" fill="#616d72" d="M 211.5,287.5 C 209.823,295.554 205.156,298.554 197.5,296.5C 197.5,295.833 197.5,295.167 197.5,294.5C 197.833,294.5 198.167,294.5 198.5,294.5C 204.258,297.172 207.925,295.172 209.5,288.5C 209.842,287.662 210.508,287.328 211.5,287.5 Z"/></g>
<g><path style="opacity:1" fill="#273339" d="M 82.5,313.5 C 76.7019,310.767 71.0353,307.767 65.5,304.5C 65.3342,299.821 65.5008,295.155 66,290.5C 71.6667,293.833 77.3333,297.167 83,300.5C 83.8136,305.02 83.647,309.354 82.5,313.5 Z"/></g>
<g><path style="opacity:1" fill="#f9c257" d="M 164.5,278.5 C 165.675,278.281 166.675,278.614 167.5,279.5C 165.542,283.658 164.708,287.991 165,292.5C 165.71,293.973 166.876,294.64 168.5,294.5C 168.719,289.905 169.885,285.571 172,281.5C 172.986,280.829 174.153,280.829 175.5,281.5C 176.234,282.708 176.567,284.041 176.5,285.5C 174.746,289.258 174.079,293.258 174.5,297.5C 174.301,300.941 174.801,304.274 176,307.5C 176.804,308.804 177.971,309.471 179.5,309.5C 185.11,306.546 190.444,303.212 195.5,299.5C 190.407,306.945 183.407,310.945 174.5,311.5C 172.98,304.997 169.313,300.33 163.5,297.5C 162.416,297.685 161.416,298.018 160.5,298.5C 160.5,295.5 160.5,292.5 160.5,289.5C 160.667,285.327 162,281.66 164.5,278.5 Z"/></g>
<g><path style="opacity:1" fill="#fceaca" d="M 161.5,289.5 C 162.649,289.791 163.316,290.624 163.5,292C 163.167,292.833 162.833,293.667 162.5,294.5C 161.548,292.955 161.215,291.288 161.5,289.5 Z"/></g>
<g><path style="opacity:1" fill="#deddda" d="M 209.5,288.5 C 207.925,295.172 204.258,297.172 198.5,294.5C 201.678,291.742 205.345,289.742 209.5,288.5 Z"/></g>
<g><path style="opacity:1" fill="#fceac9" d="M 170.5,294.5 C 173.063,295.998 173.063,297.665 170.5,299.5C 169.334,297.833 169.334,296.166 170.5,294.5 Z"/></g>
<g><path style="opacity:1" fill="#bd974a" d="M 89.5,295.5 C 90.5,295.5 91.5,295.5 92.5,295.5C 91.9407,300.639 90.9407,300.639 89.5,295.5 Z"/></g>
<g><path style="opacity:1" fill="#9e7a35" d="M 182.5,293.5 C 180.849,297.614 182.349,299.947 187,300.5C 190.378,298.289 193.878,296.289 197.5,294.5C 197.5,295.167 197.5,295.833 197.5,296.5C 197.068,297.71 196.401,298.71 195.5,299.5C 190.444,303.212 185.11,306.546 179.5,309.5C 177.971,309.471 176.804,308.804 176,307.5C 174.801,304.274 174.301,300.941 174.5,297.5C 177.14,296.18 179.807,294.847 182.5,293.5 Z"/></g>
<g><path style="opacity:1" fill="#9fa7ab" d="M 67.5,299.5 C 68.8068,300.153 70.1401,300.82 71.5,301.5C 72.7587,305.94 71.592,306.607 68,303.5C 67.51,302.207 67.3433,300.873 67.5,299.5 Z"/></g>
<g><path style="opacity:1" fill="#fdd78e" d="M 160.5,289.5 C 160.5,292.5 160.5,295.5 160.5,298.5C 161.588,300 162.921,301.333 164.5,302.5C 161.704,305.698 158.37,306.365 154.5,304.5C 155.292,302.743 156.625,301.409 158.5,300.5C 159.167,296.687 159.834,293.021 160.5,289.5 Z"/></g>
<g><path style="opacity:1" fill="#e3b14f" d="M 174.5,311.5 C 172.883,310.962 171.216,310.629 169.5,310.5C 169.167,310.5 168.833,310.5 168.5,310.5C 165.465,309.266 162.465,309.266 159.5,310.5C 157.435,310.483 155.435,310.15 153.5,309.5C 151.977,307.414 152.31,305.748 154.5,304.5C 158.37,306.365 161.704,305.698 164.5,302.5C 162.921,301.333 161.588,300 160.5,298.5C 161.416,298.018 162.416,297.685 163.5,297.5C 169.313,300.33 172.98,304.997 174.5,311.5 Z"/></g>
<g><path style="opacity:1" fill="#f8dba3" d="M 127.5,296.5 C 134.644,298.738 141.31,302.072 147.5,306.5C 143.685,311.472 138.685,314.639 132.5,316C 129.872,317.626 127.539,319.626 125.5,322C 122.068,324.072 118.402,324.738 114.5,324C 109.167,320.667 103.833,317.333 98.5,314C 104.508,312.654 109.508,309.654 113.5,305C 119.326,303.91 123.992,301.077 127.5,296.5 Z"/></g>
<g><path style="opacity:1" fill="#516269" d="M 153.5,309.5 C 155.435,310.15 157.435,310.483 159.5,310.5C 157.903,313.319 157.403,316.319 158,319.5C 161.482,321.077 164.148,320.077 166,316.5C 166.938,314.512 167.772,312.512 168.5,310.5C 168.833,310.5 169.167,310.5 169.5,310.5C 168.934,314.797 166.934,318.297 163.5,321C 156.38,323.365 152.714,320.865 152.5,313.5C 152.433,312.041 152.766,310.708 153.5,309.5 Z"/></g>
<g><path style="opacity:1" fill="#edeceb" d="M 127.5,298.5 C 133.515,299.993 139.015,302.66 144,306.5C 144.667,307.167 144.667,307.833 144,308.5C 140.845,311.667 137.012,313.501 132.5,314C 128.581,318.755 123.581,321.588 117.5,322.5C 111.776,320.47 106.442,317.637 101.5,314C 106.604,312.613 110.937,309.947 114.5,306C 119.973,305.253 124.306,302.753 127.5,298.5 Z"/></g>
<g><path style="opacity:1" fill="#e2e3e2" d="M 168.5,310.5 C 167.772,312.512 166.938,314.512 166,316.5C 164.148,320.077 161.482,321.077 158,319.5C 157.403,316.319 157.903,313.319 159.5,310.5C 162.465,309.266 165.465,309.266 168.5,310.5 Z"/></g>
<g><path style="opacity:1" fill="#4d6069" d="M 162.5,310.5 C 163.5,310.5 164.5,310.5 165.5,310.5C 165.676,314.192 164.009,316.192 160.5,316.5C 160.253,314.142 160.919,312.142 162.5,310.5 Z"/></g>
<g><path style="opacity:1" fill="#80cd31" d="M 113.5,350.5 C 117.584,350.043 121.417,350.71 125,352.5C 125.663,358.667 122.83,361.334 116.5,360.5C 116.5,362.167 116.5,363.833 116.5,365.5C 115.5,365.5 114.5,365.5 113.5,365.5C 113.5,360.5 113.5,355.5 113.5,350.5 Z"/></g>
<g><path style="opacity:1" fill="#f6fbf1" d="M 116.5,353.5 C 118.5,353.5 120.5,353.5 122.5,353.5C 122.241,357.068 120.241,358.401 116.5,357.5C 116.5,356.167 116.5,354.833 116.5,353.5 Z"/></g>
<g><path style="opacity:1" fill="#84cf38" d="M 139.5,354.5 C 142.365,354.055 144.865,354.722 147,356.5C 147.498,359.482 147.665,362.482 147.5,365.5C 144.262,366.395 141.095,366.395 138,365.5C 137.333,363.833 137.333,362.167 138,360.5C 140.071,359.475 142.238,358.642 144.5,358C 142.064,358.053 139.731,357.887 137.5,357.5C 138.193,356.482 138.859,355.482 139.5,354.5 Z"/></g>
<g><path style="opacity:1" fill="#cf3752" d="M 162.5,354.5 C 164.591,354.318 166.591,354.652 168.5,355.5C 169.487,358.768 169.82,362.102 169.5,365.5C 167.453,365.511 165.453,365.844 163.5,366.5C 160.508,366.02 159.341,364.353 160,361.5C 162.101,360.076 164.267,358.742 166.5,357.5C 164.635,356.334 162.968,356.667 161.5,358.5C 161.167,358.167 160.833,357.833 160.5,357.5C 161.193,356.482 161.859,355.482 162.5,354.5 Z"/></g>
<g><path style="opacity:1" fill="#d14058" d="M 149.5,354.5 C 150.675,354.281 151.675,354.614 152.5,355.5C 153.833,360.833 155.167,360.833 156.5,355.5C 157.5,354.167 158.5,354.167 159.5,355.5C 158.065,358.643 156.732,361.81 155.5,365C 154.551,365.617 153.718,365.451 153,364.5C 151.533,361.242 150.367,357.908 149.5,354.5 Z"/></g>
<g><path style="opacity:1" fill="#86cf3c" d="M 128.5,354.5 C 131.365,354.055 133.865,354.722 136,356.5C 136.498,359.482 136.665,362.482 136.5,365.5C 134.304,365.59 132.137,365.923 130,366.5C 126.745,366.255 125.412,364.588 126,361.5C 127.932,359.962 130.099,358.795 132.5,358C 130.413,358.218 128.413,358.051 126.5,357.5C 127.193,356.482 127.859,355.482 128.5,354.5 Z"/></g>
<g><path style="opacity:1" fill="#f6fcf1" d="M 129.5,361.5 C 130.675,361.281 131.675,361.614 132.5,362.5C 130.948,363.798 129.948,363.465 129.5,361.5 Z"/></g>
<g><path style="opacity:1" fill="#f3faec" d="M 140.5,361.5 C 144.588,361.218 145.088,361.885 142,363.5C 140.97,363.164 140.47,362.497 140.5,361.5 Z"/></g>
<g><path style="opacity:1" fill="#fae6ea" d="M 162.5,361.5 C 163.978,361.238 165.311,361.571 166.5,362.5C 165.833,362.833 165.167,363.167 164.5,363.5C 163.287,363.253 162.62,362.586 162.5,361.5 Z"/></g>
<g><path style="opacity:1" fill="#7b7b7b" d="M 29.5,527.5 C 31.0269,527.427 32.0269,528.094 32.5,529.5C 30.9731,529.573 29.9731,528.906 29.5,527.5 Z"/></g>
<g><path style="opacity:1" fill="#636363" d="M 245.5,527.5 C 242.374,529.99 238.708,531.323 234.5,531.5C 234.5,531.167 234.5,530.833 234.5,530.5C 238.223,529.703 241.89,528.703 245.5,527.5 Z"/></g>
<g><path style="opacity:1" fill="#c3c3c3" d="M 32.5,529.5 C 99.8108,530.486 167.144,530.82 234.5,530.5C 234.5,530.833 234.5,531.167 234.5,531.5C 168.166,531.667 101.832,531.5 35.5,531C 34.2625,530.768 33.2625,530.268 32.5,529.5 Z"/></g>
<g><path style="opacity:1" fill="#161616" d="M 55.5,536.5 C 110.834,536.333 166.168,536.5 221.5,537C 222.973,537.71 223.64,538.876 223.5,540.5C 166.5,541.833 109.5,541.833 52.5,540.5C 52.5,539.5 52.5,538.5 52.5,537.5C 53.791,537.737 54.791,537.404 55.5,536.5 Z"/></g>
<g><path style="opacity:1" fill="#313131" d="M 77.5,537.5 C 120.501,537.333 163.501,537.5 206.5,538C 206.957,538.414 207.291,538.914 207.5,539.5C 163.833,540.833 120.167,540.833 76.5,539.5C 76.8627,538.817 77.1961,538.15 77.5,537.5 Z"/></g>
<g><path style="opacity:1" fill="#3f3f3f" d="M 235.5,546.5 C 234.5,546.5 233.5,546.5 232.5,546.5C 233.609,545.71 234.942,545.21 236.5,545C 233.964,544.814 231.631,544.314 229.5,543.5C 238.329,542.432 246.995,540.932 255.5,539C 249.687,543.702 243.02,546.202 235.5,546.5 Z"/></g>
<g><path style="opacity:0.996" fill="#696969" d="M 229.5,543.5 C 231.631,544.314 233.964,544.814 236.5,545C 234.942,545.21 233.609,545.71 232.5,546.5C 168.501,547.759 104.501,547.759 40.5,546.5C 33.3454,546.615 27.012,544.449 21.5,540C 25.982,540.057 30.3154,541.057 34.5,543C 99.4991,543.5 164.499,543.667 229.5,543.5 Z"/></g>
<g><path style="opacity:0.487" fill="#131313" d="M 40.5,546.5 C 104.501,547.759 168.501,547.759 232.5,546.5C 233.5,546.5 234.5,546.5 235.5,546.5C 235.5,547.167 235.5,547.833 235.5,548.5C 170.5,548.5 105.5,548.5 40.5,548.5C 40.5,547.833 40.5,547.167 40.5,546.5 Z"/></g>
</svg>
